<?xml version="1.0" standalone="no"?>
<!DOCTYPE svg PUBLIC "-//W3C//DTD SVG 1.1//EN" "http://www.w3.org/Graphics/SVG/1.1/DTD/svg11.dtd" >
<svg xmlns="http://www.w3.org/2000/svg" xmlns:xlink="http://www.w3.org/1999/xlink" version="1.1">
<metadata>
Created by FontForge 20190801 at Wed Aug  4 13:05:45 2021
 By www-data
Copyright (c) 2017 by Re'mi Godefroid. All rights reserved.
</metadata>
<defs>
<font id="AIR_Rebellion" horiz-adv-x="3714" >
  <font-face 
    font-family="AIR_Rebellion"
    font-weight="400"
    font-stretch="normal"
    units-per-em="2048"
    panose-1="2 0 5 0 0 0 0 0 0 0"
    ascent="1638"
    descent="-410"
    x-height="872"
    cap-height="1416"
    bbox="-532 -1959 10625 3268"
    underline-thickness="150"
    underline-position="-292"
    unicode-range="U+001D-2E18"
  />
<missing-glyph horiz-adv-x="0" 
 />
    <glyph glyph-name=".notdef" horiz-adv-x="0" 
 />
    <glyph glyph-name=".null" horiz-adv-x="0" 
 />
    <glyph glyph-name=".null" horiz-adv-x="0" 
 />
    <glyph glyph-name="nonmarkingreturn" horiz-adv-x="508" 
 />
    <glyph glyph-name="space" unicode=" " horiz-adv-x="1526" 
 />
    <glyph glyph-name="space" unicode="&#xa0;" horiz-adv-x="1526" 
 />
    <glyph glyph-name="exclam" unicode="!" horiz-adv-x="658" 
d="M166 0h333v333h-333v-333zM166 702h333v714h-333v-714z" />
    <glyph glyph-name="quotedbl" unicode="&#x22;" horiz-adv-x="1289" 
d="M151 539h333v877h-333v-877zM817 539h333v877h-333v-877z" />
    <glyph glyph-name="numbersign" unicode="#" horiz-adv-x="3476" 
d="M2680 1416v-173h-1877v173h-333v-173h-333v-333h333v-416h-333v-333h333v-161h333v161h1877v-161h333v161h333v333h-333v416h333v333h-333v173h-333zM803 910h1877v-416h-1877v416z" />
    <glyph glyph-name="dollar" unicode="$" horiz-adv-x="3736" 
d="M1701 1639v-224h-1521v-874h1521v-208h-1521v-333h1521v-215h333v215h1521v874h-1521v208h1521v333h-1521v224h-333zM513 1082h1188v-208h-1188v208zM2034 541h1188v-208h-1188v208z" />
    <glyph glyph-name="percent" unicode="%" horiz-adv-x="3676" 
d="M2536 1416l-535 -381v381h-1854v-875h1160l-239 -170l-154 -110v-252h219l535 380v-389h1854v874h-1173l252 180v0l154 109v253h-219zM480 1083h1188v-209h-1188v209zM2001 541h1188v-208h-1188v208z" />
    <glyph glyph-name="ampersand" unicode="&#x26;" horiz-adv-x="3692" 
d="M177 1419v-545l376 -134l-376 -133v-607h3375v708h-333v-375h-585l-81 29l-1064 378l376 134v545h-1688zM835 973l-182 65l-135 48h1005l-135 -48l-367 -131zM1021 574l677 -241h-1188z" />
    <glyph glyph-name="quotesingle" unicode="'" horiz-adv-x="623" 
d="M151 539h333v877h-333v-877z" />
    <glyph glyph-name="parenleft" unicode="(" horiz-adv-x="766" 
d="M361 1416l-252 -708l252 -708h353l-252 708l252 708h-353z" />
    <glyph glyph-name="parenright" unicode=")" horiz-adv-x="770" 
d="M1255 592q28 0 28 21q0 22 -28 22h-34l1 -43h33zM1222 572v-55q0 -4 -4 -4h-17q-4 0 -4 4l1 134q0 4 4 4h56q48 0 48 -41q0 -33 -36 -41l40 -55q3 -5 -3 -5h-20q-3 0 -5 2l-37 57h-23zM1383 671q-2 -3 -5 -3h-6q-6 0 -3 5l13 24q1 2 4 2h14q6 0 2 -4zM1353 598h60
q4 0 4 -4v-13q0 -4 -4 -4h-59v-43h67q4 0 4 -4v-13q0 -4 -4 -4h-88q-4 0 -4 4l1 134q0 4 4 4h87q4 0 4 -4v-13q0 -3 -4 -3h-68v-37zM1574 513q-4 0 -4 4l-2 111l-35 -112q-1 -3 -5 -3h-15q-3 0 -4 3l-37 115l-2 -114q0 -4 -3 -4h-16q-4 0 -4 4l5 134q0 4 4 4h25q4 0 5 -3
l35 -108l35 108q1 3 4 3h25q4 0 4 -4l5 -134q0 -4 -4 -4h-16zM1657 517q0 -4 -4 -4h-17q-4 0 -4 4l1 134q0 4 4 4h15q4 0 4 -4zM622 351q5 0 5 -5q-1 -30 -19 -49q-20 -21 -50 -21t-48 21q-19 21 -19 54q0 32 20 53q19 21 49 21q45 0 60 -40q2 -4 -3 -4l-14 -1q-3 0 -5 3
q-15 22 -40 22q-44 0 -44 -53q0 -55 47 -55q33 0 41 33h-32q-4 0 -4 4v13q0 4 4 4h52zM714 297q45 0 45 54t-46 54q-45 0 -45 -53q0 -55 46 -55zM762 298q-20 -22 -49 -22q-30 0 -49 21t-19 54q0 32 20 53t50 21q29 0 48 -20t19 -52q0 -33 -20 -55zM858 300q48 0 48 50
q0 52 -48 52h-30l1 -102h29zM859 422q70 0 70 -69q0 -73 -70 -73h-51q-3 0 -3 3v135q0 4 4 4h50zM975 364h60q4 0 4 -4v-13q0 -4 -4 -4h-59v-43h67q4 0 4 -3v-14q0 -3 -4 -3h-88q-4 0 -4 3l1 135q0 4 4 4h87q4 0 4 -4v-13q0 -4 -4 -4h-68v-37zM1093 367h59q4 0 4 -4v-13
q0 -4 -4 -4h-59l1 -63q0 -3 -4 -3h-17q-4 0 -4 3l1 135q0 4 4 4h87q4 0 4 -4v-13q0 -4 -4 -4h-68v-34zM1245 359q28 0 28 20q0 23 -28 23h-34v-43h34zM1211 339v-56q0 -3 -4 -3h-16q-4 0 -4 3v135q0 4 4 4h57q48 0 48 -41q0 -34 -36 -41l39 -56q4 -4 -2 -4h-20q-4 0 -5 2
l-38 57h-23zM1384 297q45 0 45 54t-47 54q-45 0 -45 -53q0 -55 47 -55zM1432 298q-20 -22 -50 -22q-29 0 -49 21q-19 21 -19 54q0 32 20 53t50 21t49 -20t19 -52q0 -33 -20 -55zM1510 283q0 -3 -4 -3h-16q-4 0 -4 3v135q0 4 4 4h15q4 0 4 -4zM1602 300q48 0 48 50
q0 52 -48 52h-29v-102h29zM1603 422q70 0 70 -69q0 -73 -70 -73h-50q-4 0 -4 3l1 135q0 4 3 4h50zM733 1374q59 -61 103 -126l8 -13q-9 -31 -14 -56q-12 -51 -18 -102h-79v297zM1177 1077h-183v-90h97l1 -16q0 -105 -28 -216q-21 -83 -57 -165l-6 -13q-8 41 -18 76
q-29 114 -71 197l-4 7l-4 8q-8 54 -8 106l1 16q1 45 7 90l4 30q7 39 16 76q8 30 19 65q17 52 38 100q12 28 25 53q9 18 17 35h-102q-21 -43 -39 -88l-2 -6q-37 49 -80 94h-158v-933h91v440q47 -44 83 -107l15 -27q35 -70 62 -169q10 -37 18 -77q7 -30 12 -60h143
q21 41 39 87q34 84 53 170q25 108 25 211q0 32 -3 65zM221 1301q28 0 28 23t-31 23h-41l1 -46h43zM177 1370h41q23 0 23 21q0 22 -27 22h-37v-43zM261 1292q-15 -13 -38 -13h-68q-5 0 -5 4l1 149q0 4 5 4h61q49 0 49 -43q0 -19 -12 -31q21 -12 21 -36q0 -20 -14 -34z
M431 1346q0 -71 -66 -71t-66 71v86q0 4 5 4h16q5 0 5 -4v-83q1 -51 41 -51q39 0 39 51v83q0 4 5 4h16q5 0 5 -4v-86zM525 1283q0 -4 -4 -4h-18q-5 0 -5 4l1 59l-48 89q-3 5 3 5h18q4 0 6 -3l33 -64h2l34 64q2 3 5 3h17q6 0 3 -5l-47 -89v-59zM71 1117h66q4 0 4 -4v-14
q0 -5 -4 -5h-66v-69q0 -4 -4 -4h-18q-5 0 -5 4l1 149q0 4 4 4h97q4 0 4 -4v-14q0 -5 -4 -5h-75v-38zM306 1089q1 -71 -66 -71q-66 0 -66 71l1 85q0 4 4 4h17q4 0 4 -4v-82q1 -52 41 -52q39 0 39 52l1 82q0 4 4 4h17q4 0 4 -4v-85zM440 1044q4 0 4 -4v-15q0 -4 -4 -4h-100
q-4 0 -4 4l1 149q0 4 4 4h17q4 0 4 -4l1 -130h77zM568 1044q4 0 4 -4v-15q0 -4 -4 -4h-100q-4 0 -4 4l1 149q0 4 4 4h17q4 0 4 -4l1 -130h77zM27 860h65q5 0 5 -5v-14q0 -4 -5 -4h-65v-69q0 -4 -4 -4h-19q-4 0 -4 4l1 148q0 5 4 5h97q4 0 4 -5v-14q0 -4 -4 -4h-76zM202 783
q50 0 50 59q0 60 -52 60q-50 0 -50 -58q0 -61 52 -61zM255 784q-22 -24 -55 -24t-54 23t-21 59t22 59t55 23t54 -22t21 -57q0 -37 -22 -61zM432 768q0 -4 -4 -4h-25q-3 0 -5 3l-71 123l1 -122q0 -4 -4 -4h-18q-5 0 -5 4l1 148q0 5 4 5h26q3 0 5 -3l68 -119l1 117q0 5 4 5h17
q4 0 4 -5zM574 902q0 -4 -4 -4h-45l1 -130q0 -4 -5 -4h-18q-4 0 -4 4v130h-44q-5 0 -5 4v14q0 5 5 5h115q4 0 4 -5v-14zM332 525q50 0 50 60q0 59 -51 59q-50 0 -50 -58q0 -61 51 -61zM386 527q-22 -24 -55 -24t-54 22q-22 24 -22 60q0 35 23 59q22 23 55 23q32 0 53 -22
q22 -23 22 -58q0 -36 -22 -60zM563 510q0 -4 -5 -4h-24q-4 0 -5 3l-71 124l1 -123q0 -4 -5 -4h-18q-4 0 -4 4l1 149q0 4 4 4h26q3 0 5 -3l68 -119l1 118q0 4 4 4h16q5 0 5 -4zM738 196q6 0 4 -6l-49 -181q-1 -5 -6 -5h-27q-4 0 -5 5l-37 142h-3l-36 -142q-2 -5 -6 -5h-26
q-5 0 -6 5l-50 181q-2 6 4 6h22q4 0 6 -4l36 -136h2l36 136q2 4 6 4h27q4 0 6 -4l35 -136h3l36 136q2 4 6 4h22zM798 118h80q6 0 6 -5v-18q0 -5 -6 -5h-80l1 -58h90q6 0 6 -5v-18q0 -5 -6 -5h-118q-6 0 -6 5l2 182q0 5 5 5h117q6 0 6 -5v-18q0 -5 -6 -5h-91v-50zM1011 31
q34 0 34 28q0 29 -39 29h-49v-57h54zM957 116h50q28 0 28 26q0 27 -34 27h-44v-53zM1059 21q-18 -17 -46 -17h-83q-6 0 -6 5l1 182q0 5 6 5h74q27 0 44 -15q17 -14 17 -37t-16 -39q26 -14 26 -43q0 -25 -17 -41zM1244 146h-19q-4 0 -6 4q-14 23 -44 23q-35 0 -35 -23
q0 -19 44 -32l8 -3q61 -18 61 -60q0 -55 -72 -55q-34 0 -57 18q-18 14 -24 35q-1 6 5 6h21q4 0 6 -4q14 -27 51 -27q38 0 38 23q0 21 -45 36l-9 3q-58 19 -59 55q-1 25 20 41q19 14 49 14q55 0 72 -48q2 -6 -5 -6zM1332 9q0 -5 -5 -5h-22q-6 0 -6 5l1 182q0 5 5 5h21
q5 0 5 -5zM1522 173q0 -5 -5 -5h-55l1 -159q0 -5 -5 -5h-23q-5 0 -5 5l1 159h-55q-5 0 -5 5v18q0 5 5 5h141q5 0 5 -5v-18zM1577 118h80q5 0 5 -5v-18q0 -5 -5 -5h-80v-58h91q5 0 5 -5v-18q0 -5 -5 -5h-119q-5 0 -5 5l1 182q0 5 5 5h118q5 0 5 -5v-18q0 -5 -5 -5h-92z" />
    <glyph glyph-name="asterisk" unicode="*" horiz-adv-x="1094" 
d="M758 1407l-206 -148l-205 148h-220v-253l140 -99l-140 -99v-253h220l205 148l206 -148h220v253l-140 99l140 99v253h-220z" />
    <glyph glyph-name="plus" unicode="+" horiz-adv-x="3585" 
d="M1255 592q28 0 28 21q0 22 -28 22h-34l1 -43h33zM1222 572v-55q0 -4 -4 -4h-17q-4 0 -4 4l1 134q0 4 4 4h56q48 0 48 -41q0 -33 -36 -41l40 -55q3 -5 -3 -5h-20q-3 0 -5 2l-37 57h-23zM1383 671q-2 -3 -5 -3h-6q-6 0 -3 5l13 24q1 2 4 2h14q6 0 2 -4zM1353 598h60
q4 0 4 -4v-13q0 -4 -4 -4h-59v-43h67q4 0 4 -4v-13q0 -4 -4 -4h-88q-4 0 -4 4l1 134q0 4 4 4h87q4 0 4 -4v-13q0 -3 -4 -3h-68v-37zM1574 513q-4 0 -4 4l-2 111l-35 -112q-1 -3 -5 -3h-15q-3 0 -4 3l-37 115l-2 -114q0 -4 -3 -4h-16q-4 0 -4 4l5 134q0 4 4 4h25q4 0 5 -3
l35 -108l35 108q1 3 4 3h25q4 0 4 -4l5 -134q0 -4 -4 -4h-16zM1657 517q0 -4 -4 -4h-17q-4 0 -4 4l1 134q0 4 4 4h15q4 0 4 -4zM622 351q5 0 5 -5q-1 -30 -19 -49q-20 -21 -50 -21t-48 21q-19 21 -19 54q0 32 20 53q19 21 49 21q45 0 60 -40q2 -4 -3 -4l-14 -1q-3 0 -5 3
q-15 22 -40 22q-44 0 -44 -53q0 -55 47 -55q33 0 41 33h-32q-4 0 -4 4v13q0 4 4 4h52zM714 297q45 0 45 54t-46 54q-45 0 -45 -53q0 -55 46 -55zM762 298q-20 -22 -49 -22q-30 0 -49 21t-19 54q0 32 20 53t50 21q29 0 48 -20t19 -52q0 -33 -20 -55zM858 300q48 0 48 50
q0 52 -48 52h-30l1 -102h29zM859 422q70 0 70 -69q0 -73 -70 -73h-51q-3 0 -3 3v135q0 4 4 4h50zM975 364h60q4 0 4 -4v-13q0 -4 -4 -4h-59v-43h67q4 0 4 -3v-14q0 -3 -4 -3h-88q-4 0 -4 3l1 135q0 4 4 4h87q4 0 4 -4v-13q0 -4 -4 -4h-68v-37zM1093 367h59q4 0 4 -4v-13
q0 -4 -4 -4h-59l1 -63q0 -3 -4 -3h-17q-4 0 -4 3l1 135q0 4 4 4h87q4 0 4 -4v-13q0 -4 -4 -4h-68v-34zM1245 359q28 0 28 20q0 23 -28 23h-34v-43h34zM1211 339v-56q0 -3 -4 -3h-16q-4 0 -4 3v135q0 4 4 4h57q48 0 48 -41q0 -34 -36 -41l39 -56q4 -4 -2 -4h-20q-4 0 -5 2
l-38 57h-23zM1384 297q45 0 45 54t-47 54q-45 0 -45 -53q0 -55 47 -55zM1432 298q-20 -22 -50 -22q-29 0 -49 21q-19 21 -19 54q0 32 20 53t50 21t49 -20t19 -52q0 -33 -20 -55zM1510 283q0 -3 -4 -3h-16q-4 0 -4 3v135q0 4 4 4h15q4 0 4 -4zM1602 300q48 0 48 50
q0 52 -48 52h-29v-102h29zM1603 422q70 0 70 -69q0 -73 -70 -73h-50q-4 0 -4 3l1 135q0 4 3 4h50zM733 1374q59 -61 103 -126l8 -13q-9 -31 -14 -56q-12 -51 -18 -102h-79v297zM1177 1077h-183v-90h97l1 -16q0 -105 -28 -216q-21 -83 -57 -165l-6 -13q-8 41 -18 76
q-29 114 -71 197l-4 7l-4 8q-8 54 -8 106l1 16q1 45 7 90l4 30q7 39 16 76q8 30 19 65q17 52 38 100q12 28 25 53q9 18 17 35h-102q-21 -43 -39 -88l-2 -6q-37 49 -80 94h-158v-933h91v440q47 -44 83 -107l15 -27q35 -70 62 -169q10 -37 18 -77q7 -30 12 -60h143
q21 41 39 87q34 84 53 170q25 108 25 211q0 32 -3 65zM221 1301q28 0 28 23t-31 23h-41l1 -46h43zM177 1370h41q23 0 23 21q0 22 -27 22h-37v-43zM261 1292q-15 -13 -38 -13h-68q-5 0 -5 4l1 149q0 4 5 4h61q49 0 49 -43q0 -19 -12 -31q21 -12 21 -36q0 -20 -14 -34z
M431 1346q0 -71 -66 -71t-66 71v86q0 4 5 4h16q5 0 5 -4v-83q1 -51 41 -51q39 0 39 51v83q0 4 5 4h16q5 0 5 -4v-86zM525 1283q0 -4 -4 -4h-18q-5 0 -5 4l1 59l-48 89q-3 5 3 5h18q4 0 6 -3l33 -64h2l34 64q2 3 5 3h17q6 0 3 -5l-47 -89v-59zM71 1117h66q4 0 4 -4v-14
q0 -5 -4 -5h-66v-69q0 -4 -4 -4h-18q-5 0 -5 4l1 149q0 4 4 4h97q4 0 4 -4v-14q0 -5 -4 -5h-75v-38zM306 1089q1 -71 -66 -71q-66 0 -66 71l1 85q0 4 4 4h17q4 0 4 -4v-82q1 -52 41 -52q39 0 39 52l1 82q0 4 4 4h17q4 0 4 -4v-85zM440 1044q4 0 4 -4v-15q0 -4 -4 -4h-100
q-4 0 -4 4l1 149q0 4 4 4h17q4 0 4 -4l1 -130h77zM568 1044q4 0 4 -4v-15q0 -4 -4 -4h-100q-4 0 -4 4l1 149q0 4 4 4h17q4 0 4 -4l1 -130h77zM27 860h65q5 0 5 -5v-14q0 -4 -5 -4h-65v-69q0 -4 -4 -4h-19q-4 0 -4 4l1 148q0 5 4 5h97q4 0 4 -5v-14q0 -4 -4 -4h-76zM202 783
q50 0 50 59q0 60 -52 60q-50 0 -50 -58q0 -61 52 -61zM255 784q-22 -24 -55 -24t-54 23t-21 59t22 59t55 23t54 -22t21 -57q0 -37 -22 -61zM432 768q0 -4 -4 -4h-25q-3 0 -5 3l-71 123l1 -122q0 -4 -4 -4h-18q-5 0 -5 4l1 148q0 5 4 5h26q3 0 5 -3l68 -119l1 117q0 5 4 5h17
q4 0 4 -5zM574 902q0 -4 -4 -4h-45l1 -130q0 -4 -5 -4h-18q-4 0 -4 4v130h-44q-5 0 -5 4v14q0 5 5 5h115q4 0 4 -5v-14zM332 525q50 0 50 60q0 59 -51 59q-50 0 -50 -58q0 -61 51 -61zM386 527q-22 -24 -55 -24t-54 22q-22 24 -22 60q0 35 23 59q22 23 55 23q32 0 53 -22
q22 -23 22 -58q0 -36 -22 -60zM563 510q0 -4 -5 -4h-24q-4 0 -5 3l-71 124l1 -123q0 -4 -5 -4h-18q-4 0 -4 4l1 149q0 4 4 4h26q3 0 5 -3l68 -119l1 118q0 4 4 4h16q5 0 5 -4zM738 196q6 0 4 -6l-49 -181q-1 -5 -6 -5h-27q-4 0 -5 5l-37 142h-3l-36 -142q-2 -5 -6 -5h-26
q-5 0 -6 5l-50 181q-2 6 4 6h22q4 0 6 -4l36 -136h2l36 136q2 4 6 4h27q4 0 6 -4l35 -136h3l36 136q2 4 6 4h22zM798 118h80q6 0 6 -5v-18q0 -5 -6 -5h-80l1 -58h90q6 0 6 -5v-18q0 -5 -6 -5h-118q-6 0 -6 5l2 182q0 5 5 5h117q6 0 6 -5v-18q0 -5 -6 -5h-91v-50zM1011 31
q34 0 34 28q0 29 -39 29h-49v-57h54zM957 116h50q28 0 28 26q0 27 -34 27h-44v-53zM1059 21q-18 -17 -46 -17h-83q-6 0 -6 5l1 182q0 5 6 5h74q27 0 44 -15q17 -14 17 -37t-16 -39q26 -14 26 -43q0 -25 -17 -41zM1244 146h-19q-4 0 -6 4q-14 23 -44 23q-35 0 -35 -23
q0 -19 44 -32l8 -3q61 -18 61 -60q0 -55 -72 -55q-34 0 -57 18q-18 14 -24 35q-1 6 5 6h21q4 0 6 -4q14 -27 51 -27q38 0 38 23q0 21 -45 36l-9 3q-58 19 -59 55q-1 25 20 41q19 14 49 14q55 0 72 -48q2 -6 -5 -6zM1332 9q0 -5 -5 -5h-22q-6 0 -6 5l1 182q0 5 5 5h21
q5 0 5 -5zM1522 173q0 -5 -5 -5h-55l1 -159q0 -5 -5 -5h-23q-5 0 -5 5l1 159h-55q-5 0 -5 5v18q0 5 5 5h141q5 0 5 -5v-18zM1577 118h80q5 0 5 -5v-18q0 -5 -5 -5h-80v-58h91q5 0 5 -5v-18q0 -5 -5 -5h-119q-5 0 -5 5l1 182q0 5 5 5h118q5 0 5 -5v-18q0 -5 -5 -5h-92z" />
    <glyph glyph-name="comma" unicode="," horiz-adv-x="675" 
d="M222 335v-453l-588 -417h574l347 246v624h-333z" />
    <glyph glyph-name="hyphen" unicode="-" horiz-adv-x="3595" 
d="M1255 592q28 0 28 21q0 22 -28 22h-34l1 -43h33zM1222 572v-55q0 -4 -4 -4h-17q-4 0 -4 4l1 134q0 4 4 4h56q48 0 48 -41q0 -33 -36 -41l40 -55q3 -5 -3 -5h-20q-3 0 -5 2l-37 57h-23zM1383 671q-2 -3 -5 -3h-6q-6 0 -3 5l13 24q1 2 4 2h14q6 0 2 -4zM1353 598h60
q4 0 4 -4v-13q0 -4 -4 -4h-59v-43h67q4 0 4 -4v-13q0 -4 -4 -4h-88q-4 0 -4 4l1 134q0 4 4 4h87q4 0 4 -4v-13q0 -3 -4 -3h-68v-37zM1574 513q-4 0 -4 4l-2 111l-35 -112q-1 -3 -5 -3h-15q-3 0 -4 3l-37 115l-2 -114q0 -4 -3 -4h-16q-4 0 -4 4l5 134q0 4 4 4h25q4 0 5 -3
l35 -108l35 108q1 3 4 3h25q4 0 4 -4l5 -134q0 -4 -4 -4h-16zM1657 517q0 -4 -4 -4h-17q-4 0 -4 4l1 134q0 4 4 4h15q4 0 4 -4zM622 351q5 0 5 -5q-1 -30 -19 -49q-20 -21 -50 -21t-48 21q-19 21 -19 54q0 32 20 53q19 21 49 21q45 0 60 -40q2 -4 -3 -4l-14 -1q-3 0 -5 3
q-15 22 -40 22q-44 0 -44 -53q0 -55 47 -55q33 0 41 33h-32q-4 0 -4 4v13q0 4 4 4h52zM714 297q45 0 45 54t-46 54q-45 0 -45 -53q0 -55 46 -55zM762 298q-20 -22 -49 -22q-30 0 -49 21t-19 54q0 32 20 53t50 21q29 0 48 -20t19 -52q0 -33 -20 -55zM858 300q48 0 48 50
q0 52 -48 52h-30l1 -102h29zM859 422q70 0 70 -69q0 -73 -70 -73h-51q-3 0 -3 3v135q0 4 4 4h50zM975 364h60q4 0 4 -4v-13q0 -4 -4 -4h-59v-43h67q4 0 4 -3v-14q0 -3 -4 -3h-88q-4 0 -4 3l1 135q0 4 4 4h87q4 0 4 -4v-13q0 -4 -4 -4h-68v-37zM1093 367h59q4 0 4 -4v-13
q0 -4 -4 -4h-59l1 -63q0 -3 -4 -3h-17q-4 0 -4 3l1 135q0 4 4 4h87q4 0 4 -4v-13q0 -4 -4 -4h-68v-34zM1245 359q28 0 28 20q0 23 -28 23h-34v-43h34zM1211 339v-56q0 -3 -4 -3h-16q-4 0 -4 3v135q0 4 4 4h57q48 0 48 -41q0 -34 -36 -41l39 -56q4 -4 -2 -4h-20q-4 0 -5 2
l-38 57h-23zM1384 297q45 0 45 54t-47 54q-45 0 -45 -53q0 -55 47 -55zM1432 298q-20 -22 -50 -22q-29 0 -49 21q-19 21 -19 54q0 32 20 53t50 21t49 -20t19 -52q0 -33 -20 -55zM1510 283q0 -3 -4 -3h-16q-4 0 -4 3v135q0 4 4 4h15q4 0 4 -4zM1602 300q48 0 48 50
q0 52 -48 52h-29v-102h29zM1603 422q70 0 70 -69q0 -73 -70 -73h-50q-4 0 -4 3l1 135q0 4 3 4h50zM733 1374q59 -61 103 -126l8 -13q-9 -31 -14 -56q-12 -51 -18 -102h-79v297zM1177 1077h-183v-90h97l1 -16q0 -105 -28 -216q-21 -83 -57 -165l-6 -13q-8 41 -18 76
q-29 114 -71 197l-4 7l-4 8q-8 54 -8 106l1 16q1 45 7 90l4 30q7 39 16 76q8 30 19 65q17 52 38 100q12 28 25 53q9 18 17 35h-102q-21 -43 -39 -88l-2 -6q-37 49 -80 94h-158v-933h91v440q47 -44 83 -107l15 -27q35 -70 62 -169q10 -37 18 -77q7 -30 12 -60h143
q21 41 39 87q34 84 53 170q25 108 25 211q0 32 -3 65zM221 1301q28 0 28 23t-31 23h-41l1 -46h43zM177 1370h41q23 0 23 21q0 22 -27 22h-37v-43zM261 1292q-15 -13 -38 -13h-68q-5 0 -5 4l1 149q0 4 5 4h61q49 0 49 -43q0 -19 -12 -31q21 -12 21 -36q0 -20 -14 -34z
M431 1346q0 -71 -66 -71t-66 71v86q0 4 5 4h16q5 0 5 -4v-83q1 -51 41 -51q39 0 39 51v83q0 4 5 4h16q5 0 5 -4v-86zM525 1283q0 -4 -4 -4h-18q-5 0 -5 4l1 59l-48 89q-3 5 3 5h18q4 0 6 -3l33 -64h2l34 64q2 3 5 3h17q6 0 3 -5l-47 -89v-59zM71 1117h66q4 0 4 -4v-14
q0 -5 -4 -5h-66v-69q0 -4 -4 -4h-18q-5 0 -5 4l1 149q0 4 4 4h97q4 0 4 -4v-14q0 -5 -4 -5h-75v-38zM306 1089q1 -71 -66 -71q-66 0 -66 71l1 85q0 4 4 4h17q4 0 4 -4v-82q1 -52 41 -52q39 0 39 52l1 82q0 4 4 4h17q4 0 4 -4v-85zM440 1044q4 0 4 -4v-15q0 -4 -4 -4h-100
q-4 0 -4 4l1 149q0 4 4 4h17q4 0 4 -4l1 -130h77zM568 1044q4 0 4 -4v-15q0 -4 -4 -4h-100q-4 0 -4 4l1 149q0 4 4 4h17q4 0 4 -4l1 -130h77zM27 860h65q5 0 5 -5v-14q0 -4 -5 -4h-65v-69q0 -4 -4 -4h-19q-4 0 -4 4l1 148q0 5 4 5h97q4 0 4 -5v-14q0 -4 -4 -4h-76zM202 783
q50 0 50 59q0 60 -52 60q-50 0 -50 -58q0 -61 52 -61zM255 784q-22 -24 -55 -24t-54 23t-21 59t22 59t55 23t54 -22t21 -57q0 -37 -22 -61zM432 768q0 -4 -4 -4h-25q-3 0 -5 3l-71 123l1 -122q0 -4 -4 -4h-18q-5 0 -5 4l1 148q0 5 4 5h26q3 0 5 -3l68 -119l1 117q0 5 4 5h17
q4 0 4 -5zM574 902q0 -4 -4 -4h-45l1 -130q0 -4 -5 -4h-18q-4 0 -4 4v130h-44q-5 0 -5 4v14q0 5 5 5h115q4 0 4 -5v-14zM332 525q50 0 50 60q0 59 -51 59q-50 0 -50 -58q0 -61 51 -61zM386 527q-22 -24 -55 -24t-54 22q-22 24 -22 60q0 35 23 59q22 23 55 23q32 0 53 -22
q22 -23 22 -58q0 -36 -22 -60zM563 510q0 -4 -5 -4h-24q-4 0 -5 3l-71 124l1 -123q0 -4 -5 -4h-18q-4 0 -4 4l1 149q0 4 4 4h26q3 0 5 -3l68 -119l1 118q0 4 4 4h16q5 0 5 -4zM738 196q6 0 4 -6l-49 -181q-1 -5 -6 -5h-27q-4 0 -5 5l-37 142h-3l-36 -142q-2 -5 -6 -5h-26
q-5 0 -6 5l-50 181q-2 6 4 6h22q4 0 6 -4l36 -136h2l36 136q2 4 6 4h27q4 0 6 -4l35 -136h3l36 136q2 4 6 4h22zM798 118h80q6 0 6 -5v-18q0 -5 -6 -5h-80l1 -58h90q6 0 6 -5v-18q0 -5 -6 -5h-118q-6 0 -6 5l2 182q0 5 5 5h117q6 0 6 -5v-18q0 -5 -6 -5h-91v-50zM1011 31
q34 0 34 28q0 29 -39 29h-49v-57h54zM957 116h50q28 0 28 26q0 27 -34 27h-44v-53zM1059 21q-18 -17 -46 -17h-83q-6 0 -6 5l1 182q0 5 6 5h74q27 0 44 -15q17 -14 17 -37t-16 -39q26 -14 26 -43q0 -25 -17 -41zM1244 146h-19q-4 0 -6 4q-14 23 -44 23q-35 0 -35 -23
q0 -19 44 -32l8 -3q61 -18 61 -60q0 -55 -72 -55q-34 0 -57 18q-18 14 -24 35q-1 6 5 6h21q4 0 6 -4q14 -27 51 -27q38 0 38 23q0 21 -45 36l-9 3q-58 19 -59 55q-1 25 20 41q19 14 49 14q55 0 72 -48q2 -6 -5 -6zM1332 9q0 -5 -5 -5h-22q-6 0 -6 5l1 182q0 5 5 5h21
q5 0 5 -5zM1522 173q0 -5 -5 -5h-55l1 -159q0 -5 -5 -5h-23q-5 0 -5 5l1 159h-55q-5 0 -5 5v18q0 5 5 5h141q5 0 5 -5v-18zM1577 118h80q5 0 5 -5v-18q0 -5 -5 -5h-80v-58h91q5 0 5 -5v-18q0 -5 -5 -5h-119q-5 0 -5 5l1 182q0 5 5 5h118q5 0 5 -5v-18q0 -5 -5 -5h-92z" />
    <glyph glyph-name="period" unicode="." horiz-adv-x="549" 
d="M110 0h333v333h-333v-333z" />
    <glyph glyph-name="slash" unicode="/" horiz-adv-x="1971" 
d="M1688 1407l-1468 -1045l-154 -110v-252h220l1468 1045l154 109v253h-220z" />
    <glyph glyph-name="zero" unicode="0" horiz-adv-x="3616" 
d="M54 0h3375v1416h-3375v-1416zM387 1083h2709v-750h-2709v750z" />
    <glyph glyph-name="one" unicode="1" horiz-adv-x="986" 
d="M377 0h333v1416h-333v-1416z" />
    <glyph glyph-name="two" unicode="2" horiz-adv-x="3605" 
d="M53 1416v-333h3042v-209h-3042v-874h3375v333h-3042v208h3042v875h-3375z" />
    <glyph glyph-name="three" unicode="3" horiz-adv-x="3575" 
d="M37 1416v-333h3042v-209h-3042v-333h3042v-208h-3042v-333h3375v1416h-3375z" />
    <glyph glyph-name="four" unicode="4" horiz-adv-x="3593" 
d="M3066 1416v-542h-2709v542h-333v-875h3042v-541h333v1416h-333z" />
    <glyph glyph-name="five" unicode="5" horiz-adv-x="3593" 
d="M51 1416v-875h3042v-208h-3042v-333h3375v874h-3042v209h3042v333h-3375z" />
    <glyph glyph-name="six" unicode="6" horiz-adv-x="3593" 
d="M61 1416v-1416h3375v874h-3042v209h3042v333h-3375zM394 541h2709v-208h-2709v208z" />
    <glyph glyph-name="seven" unicode="7" horiz-adv-x="3616" 
d="M0 1416v-333h3042v-1083h333v1416h-3375z" />
    <glyph glyph-name="eight" unicode="8" horiz-adv-x="3587" 
d="M54 0h3375v1416h-3375v-1416zM387 1083h2709v-209h-2709v209zM387 541h2709v-208h-2709v208z" />
    <glyph glyph-name="nine" unicode="9" horiz-adv-x="3575" 
d="M24 1416v-875h3042v-541h333v1416h-3375zM357 1083h2709v-209h-2709v209z" />
    <glyph glyph-name="colon" unicode=":" horiz-adv-x="609" 
d="M143 1077h333v332h-333v-332zM143 0h333v333h-333v-333z" />
    <glyph glyph-name="semicolon" unicode=";" horiz-adv-x="683" 
d="M209 1077h333v333h-333v-333zM209 334v-453l-588 -417h574l347 246v624h-333z" />
    <glyph glyph-name="less" unicode="&#x3c;" horiz-adv-x="3625" 
d="M3492 1416l-3375 -548v-321l3375 -547v333l-2364 375l2364 375v333z" />
    <glyph glyph-name="equal" unicode="=" horiz-adv-x="3653" 
d="M144 1083h3375v333h-3375v-333zM144 0h3375v333h-3375v-333z" />
    <glyph glyph-name="greater" unicode="&#x3e;" horiz-adv-x="3616" 
d="M140 1416v-333l2364 -375l-2364 -375v-333l3375 547v321z" />
    <glyph glyph-name="question" unicode="?" horiz-adv-x="3607" 
d="M99 1416v-333h3042v-209h-1521v-333h1854v875h-3375zM1620 0h333v333h-333v-333z" />
    <glyph glyph-name="at" unicode="@" horiz-adv-x="7147" 
d="M200 1532v-246h-1v-2316h1v-269h1767v333h-1435v2165h6086v-1457h-1355v1082h-1687v-333h1354v-208h-3042v-874h5063v2123h-6751zM2221 -50h2709v-208h-2709v208z" />
    <glyph glyph-name="A" unicode="A" 
d="M172 1416v-1416h333v541h2709v-541h333v1416h-3375zM505 1083h2709v-209h-2709v209z" />
    <glyph glyph-name="B" unicode="B" horiz-adv-x="3677" 
d="M172 1416v-1416h3375v825l-1659 591h-1716zM505 1083h1326l585 -209h-1911v209zM505 541h2709v-208h-2709v208z" />
    <glyph glyph-name="C" unicode="C" horiz-adv-x="3655" 
d="M172 1416v-1416h3375v333h-3042v750h3042v333h-3375z" />
    <glyph glyph-name="D" unicode="D" horiz-adv-x="3677" 
d="M172 1416v-1416h3375v825l-1659 591h-1716zM505 1083h1326l1383 -493v-257h-2709v750z" />
    <glyph glyph-name="E" unicode="E" horiz-adv-x="3548" 
d="M172 1416v-1416h3209v333h-2876v208h2876v333h-2876v209h2876v333h-3209z" />
    <glyph glyph-name="F" unicode="F" horiz-adv-x="3548" 
d="M510 0h-338v1416h3209v-333h-2876v-209h2876v-333h-2876z" />
    <glyph glyph-name="G" unicode="G" 
d="M172 1416v-1416h3375v874h-1687v-333h1354v-208h-2709v750h3042v333h-3375z" />
    <glyph glyph-name="H" unicode="H" 
d="M3214 1416v-542h-2709v542h-333v-1416h333v541h2709v-541h333v1416h-333z" />
    <glyph glyph-name="I" unicode="I" horiz-adv-x="672" 
d="M172 0h333v1416h-333v-1416z" />
    <glyph glyph-name="J" unicode="J" horiz-adv-x="3572" 
d="M1718 1416v-333h1354v-750h-3042v-333h3375v1416h-1687z" />
    <glyph glyph-name="K" unicode="K" horiz-adv-x="3648" 
d="M3352 1416l-1521 -542h-1326v542h-333v-1416h333v541h1326l1521 -541h195v284l-1191 424l1191 424v284h-195z" />
    <glyph glyph-name="L" unicode="L" horiz-adv-x="3627" 
d="M172 1416v-1416h3375v333h-3042v1083h-333z" />
    <glyph glyph-name="M" unicode="M" horiz-adv-x="3539" 
d="M3064 1318l-1307 -974l-1289 974h-393l-2 -1314h333v967l1301 -971h107l1301 1011v-1007l333 -4l2 1318h-386z" />
    <glyph glyph-name="N" unicode="N" 
d="M3214 1416v-1014l-2847 1014h-195v-1416h333v1013l2847 -1013h195v1416h-333z" />
    <glyph glyph-name="O" unicode="O" 
d="M172 0h3375v1416h-3375v-1416zM505 1083h2709v-750h-2709v750z" />
    <glyph glyph-name="P" unicode="P" horiz-adv-x="3651" 
d="M172 1416v-1416h333v541h3042v875h-3375zM505 1083h2709v-209h-2709v209z" />
    <glyph glyph-name="Q" unicode="Q" 
d="M172 0h3375v1416h-3375v-1416zM505 1083h2709v-684l-1482 503v-352l640 -217h-1867v750z" />
    <glyph glyph-name="R" unicode="R" 
d="M172 1416v-1407h333v532h1326l1521 -541h195v284l-723 257h723v875h-3375zM505 1083h2709v-209h-2709v209z" />
    <glyph glyph-name="S" unicode="S" 
d="M172 1416v-875h3042v-208h-3042v-333h3375v874h-3042v209h3042v333h-3375z" />
    <glyph glyph-name="T" unicode="T" horiz-adv-x="3529" 
d="M87 1407v-333h1521v-1074h333v1074h1521v333h-3375z" />
    <glyph glyph-name="U" unicode="U" 
d="M3214 1416v-1083h-2709v1083h-333v-1416h3375v1416h-333z" />
    <glyph glyph-name="V" unicode="V" horiz-adv-x="3405" 
d="M3213 1407l-1468 -1045l-1468 1045h-220v-253l1622 -1154h131l1622 1154v253h-219z" />
    <glyph glyph-name="W" unicode="W" horiz-adv-x="3539" 
d="M3059 2l-1307 974l-1289 -974h-393l-2 1314h333v-967l1301 971h107l1301 -1011v1007l333 4l2 -1318h-386z" />
    <glyph glyph-name="X" unicode="X" horiz-adv-x="3508" 
d="M3180 1416l-1492 -532l-1493 532h-195v-284l1191 -424l-1191 -424v-284h195l1493 531l1492 -531h195v284l-1191 424l1191 424v284h-195z" />
    <glyph glyph-name="Y" unicode="Y" horiz-adv-x="3508" 
d="M3248 1416l-1492 -532l-1493 532h-139v-304l1135 -404l-1135 -404v-304h139l3236 1151v265h-251z" />
    <glyph glyph-name="Z" unicode="Z" horiz-adv-x="3607" 
d="M124 1416v-333h2244l-2244 -799v-284h3375v333h-2244l2244 799v284h-3375z" />
    <glyph glyph-name="bracketleft" unicode="[" horiz-adv-x="819" 
d="M0 1772v-2123h662v333h-329v1457h329v333h-662z" />
    <glyph glyph-name="backslash" unicode="\" horiz-adv-x="1953" 
d="M0 1407v-253l154 -109l1468 -1045h220v252l-154 110v0l-1468 1045h-220z" />
    <glyph glyph-name="bracketright" unicode="]" horiz-adv-x="819" 
d="M0 1776v-333h329v-1457h-329v-333h662v2123h-662z" />
    <glyph glyph-name="asciicircum" unicode="^" horiz-adv-x="1875" 
d="M844 1145l-844 -570v-304h144l751 506l750 -506h145v304l-844 570h-102z" />
    <glyph glyph-name="underscore" unicode="_" horiz-adv-x="3354" 
d="M0 0h3375v333h-3375v-333z" />
    <glyph glyph-name="grave" unicode="`" horiz-adv-x="1795" 
d="M0 2001v-323l1548 -551h85v323l-1548 551h-85z" />
    <glyph glyph-name="a" unicode="a" horiz-adv-x="3616" 
d="M1778 889v-333h1354v-209h-3042v-874h3375v1416h-1687zM423 14h2709v-208h-2709v208z" />
    <glyph glyph-name="b" unicode="b" horiz-adv-x="3649" 
d="M144 1249v-1249h3375v874h-3042v375h-333zM477 541h2709v-208h-2709v208z" />
    <glyph glyph-name="c" unicode="c" horiz-adv-x="3640" 
d="M135 874v-874h3375v333h-3042v208h3042v333h-3375z" />
    <glyph glyph-name="d" unicode="d" horiz-adv-x="3677" 
d="M3177 1249v-375h-3042v-874h3375v1249h-333zM468 541h2709v-208h-2709v208z" />
    <glyph glyph-name="e" unicode="e" horiz-adv-x="3650" 
d="M145 873v-1416h1688v333h-1355v208h3042v875h-3375zM478 540h2709v-209h-2709v209z" />
    <glyph glyph-name="f" unicode="f" horiz-adv-x="3587" 
d="M145 873v-1416h333v541h1521v333h-1521v209h3042v333h-3375z" />
    <glyph glyph-name="g" unicode="g" horiz-adv-x="3672" 
d="M135 872v-875h3053v-208h-1360v-333h1693v1416h-3386zM468 539h2720v-209h-2720v209z" />
    <glyph glyph-name="h" unicode="h" horiz-adv-x="3649" 
d="M144 1249v-1249h333v541h2709v-541h333v874h-3042v375h-333z" />
    <glyph glyph-name="i" unicode="i" horiz-adv-x="598" 
d="M135 0h333v874h-333v-874z" />
    <glyph glyph-name="j" unicode="j" horiz-adv-x="3589" 
d="M1255 592q28 0 28 21q0 22 -28 22h-34l1 -43h33zM1222 572v-55q0 -4 -4 -4h-17q-4 0 -4 4l1 134q0 4 4 4h56q48 0 48 -41q0 -33 -36 -41l40 -55q3 -5 -3 -5h-20q-3 0 -5 2l-37 57h-23zM1383 671q-2 -3 -5 -3h-6q-6 0 -3 5l13 24q1 2 4 2h14q6 0 2 -4zM1353 598h60
q4 0 4 -4v-13q0 -4 -4 -4h-59v-43h67q4 0 4 -4v-13q0 -4 -4 -4h-88q-4 0 -4 4l1 134q0 4 4 4h87q4 0 4 -4v-13q0 -3 -4 -3h-68v-37zM1574 513q-4 0 -4 4l-2 111l-35 -112q-1 -3 -5 -3h-15q-3 0 -4 3l-37 115l-2 -114q0 -4 -3 -4h-16q-4 0 -4 4l5 134q0 4 4 4h25q4 0 5 -3
l35 -108l35 108q1 3 4 3h25q4 0 4 -4l5 -134q0 -4 -4 -4h-16zM1657 517q0 -4 -4 -4h-17q-4 0 -4 4l1 134q0 4 4 4h15q4 0 4 -4zM622 351q5 0 5 -5q-1 -30 -19 -49q-20 -21 -50 -21t-48 21q-19 21 -19 54q0 32 20 53q19 21 49 21q45 0 60 -40q2 -4 -3 -4l-14 -1q-3 0 -5 3
q-15 22 -40 22q-44 0 -44 -53q0 -55 47 -55q33 0 41 33h-32q-4 0 -4 4v13q0 4 4 4h52zM714 297q45 0 45 54t-46 54q-45 0 -45 -53q0 -55 46 -55zM762 298q-20 -22 -49 -22q-30 0 -49 21t-19 54q0 32 20 53t50 21q29 0 48 -20t19 -52q0 -33 -20 -55zM858 300q48 0 48 50
q0 52 -48 52h-30l1 -102h29zM859 422q70 0 70 -69q0 -73 -70 -73h-51q-3 0 -3 3v135q0 4 4 4h50zM975 364h60q4 0 4 -4v-13q0 -4 -4 -4h-59v-43h67q4 0 4 -3v-14q0 -3 -4 -3h-88q-4 0 -4 3l1 135q0 4 4 4h87q4 0 4 -4v-13q0 -4 -4 -4h-68v-37zM1093 367h59q4 0 4 -4v-13
q0 -4 -4 -4h-59l1 -63q0 -3 -4 -3h-17q-4 0 -4 3l1 135q0 4 4 4h87q4 0 4 -4v-13q0 -4 -4 -4h-68v-34zM1245 359q28 0 28 20q0 23 -28 23h-34v-43h34zM1211 339v-56q0 -3 -4 -3h-16q-4 0 -4 3v135q0 4 4 4h57q48 0 48 -41q0 -34 -36 -41l39 -56q4 -4 -2 -4h-20q-4 0 -5 2
l-38 57h-23zM1384 297q45 0 45 54t-47 54q-45 0 -45 -53q0 -55 47 -55zM1432 298q-20 -22 -50 -22q-29 0 -49 21q-19 21 -19 54q0 32 20 53t50 21t49 -20t19 -52q0 -33 -20 -55zM1510 283q0 -3 -4 -3h-16q-4 0 -4 3v135q0 4 4 4h15q4 0 4 -4zM1602 300q48 0 48 50
q0 52 -48 52h-29v-102h29zM1603 422q70 0 70 -69q0 -73 -70 -73h-50q-4 0 -4 3l1 135q0 4 3 4h50zM733 1374q59 -61 103 -126l8 -13q-9 -31 -14 -56q-12 -51 -18 -102h-79v297zM1177 1077h-183v-90h97l1 -16q0 -105 -28 -216q-21 -83 -57 -165l-6 -13q-8 41 -18 76
q-29 114 -71 197l-4 7l-4 8q-8 54 -8 106l1 16q1 45 7 90l4 30q7 39 16 76q8 30 19 65q17 52 38 100q12 28 25 53q9 18 17 35h-102q-21 -43 -39 -88l-2 -6q-37 49 -80 94h-158v-933h91v440q47 -44 83 -107l15 -27q35 -70 62 -169q10 -37 18 -77q7 -30 12 -60h143
q21 41 39 87q34 84 53 170q25 108 25 211q0 32 -3 65zM221 1301q28 0 28 23t-31 23h-41l1 -46h43zM177 1370h41q23 0 23 21q0 22 -27 22h-37v-43zM261 1292q-15 -13 -38 -13h-68q-5 0 -5 4l1 149q0 4 5 4h61q49 0 49 -43q0 -19 -12 -31q21 -12 21 -36q0 -20 -14 -34z
M431 1346q0 -71 -66 -71t-66 71v86q0 4 5 4h16q5 0 5 -4v-83q1 -51 41 -51q39 0 39 51v83q0 4 5 4h16q5 0 5 -4v-86zM525 1283q0 -4 -4 -4h-18q-5 0 -5 4l1 59l-48 89q-3 5 3 5h18q4 0 6 -3l33 -64h2l34 64q2 3 5 3h17q6 0 3 -5l-47 -89v-59zM71 1117h66q4 0 4 -4v-14
q0 -5 -4 -5h-66v-69q0 -4 -4 -4h-18q-5 0 -5 4l1 149q0 4 4 4h97q4 0 4 -4v-14q0 -5 -4 -5h-75v-38zM306 1089q1 -71 -66 -71q-66 0 -66 71l1 85q0 4 4 4h17q4 0 4 -4v-82q1 -52 41 -52q39 0 39 52l1 82q0 4 4 4h17q4 0 4 -4v-85zM440 1044q4 0 4 -4v-15q0 -4 -4 -4h-100
q-4 0 -4 4l1 149q0 4 4 4h17q4 0 4 -4l1 -130h77zM568 1044q4 0 4 -4v-15q0 -4 -4 -4h-100q-4 0 -4 4l1 149q0 4 4 4h17q4 0 4 -4l1 -130h77zM27 860h65q5 0 5 -5v-14q0 -4 -5 -4h-65v-69q0 -4 -4 -4h-19q-4 0 -4 4l1 148q0 5 4 5h97q4 0 4 -5v-14q0 -4 -4 -4h-76zM202 783
q50 0 50 59q0 60 -52 60q-50 0 -50 -58q0 -61 52 -61zM255 784q-22 -24 -55 -24t-54 23t-21 59t22 59t55 23t54 -22t21 -57q0 -37 -22 -61zM432 768q0 -4 -4 -4h-25q-3 0 -5 3l-71 123l1 -122q0 -4 -4 -4h-18q-5 0 -5 4l1 148q0 5 4 5h26q3 0 5 -3l68 -119l1 117q0 5 4 5h17
q4 0 4 -5zM574 902q0 -4 -4 -4h-45l1 -130q0 -4 -5 -4h-18q-4 0 -4 4v130h-44q-5 0 -5 4v14q0 5 5 5h115q4 0 4 -5v-14zM332 525q50 0 50 60q0 59 -51 59q-50 0 -50 -58q0 -61 51 -61zM386 527q-22 -24 -55 -24t-54 22q-22 24 -22 60q0 35 23 59q22 23 55 23q32 0 53 -22
q22 -23 22 -58q0 -36 -22 -60zM563 510q0 -4 -5 -4h-24q-4 0 -5 3l-71 124l1 -123q0 -4 -5 -4h-18q-4 0 -4 4l1 149q0 4 4 4h26q3 0 5 -3l68 -119l1 118q0 4 4 4h16q5 0 5 -4zM738 196q6 0 4 -6l-49 -181q-1 -5 -6 -5h-27q-4 0 -5 5l-37 142h-3l-36 -142q-2 -5 -6 -5h-26
q-5 0 -6 5l-50 181q-2 6 4 6h22q4 0 6 -4l36 -136h2l36 136q2 4 6 4h27q4 0 6 -4l35 -136h3l36 136q2 4 6 4h22zM798 118h80q6 0 6 -5v-18q0 -5 -6 -5h-80l1 -58h90q6 0 6 -5v-18q0 -5 -6 -5h-118q-6 0 -6 5l2 182q0 5 5 5h117q6 0 6 -5v-18q0 -5 -6 -5h-91v-50zM1011 31
q34 0 34 28q0 29 -39 29h-49v-57h54zM957 116h50q28 0 28 26q0 27 -34 27h-44v-53zM1059 21q-18 -17 -46 -17h-83q-6 0 -6 5l1 182q0 5 6 5h74q27 0 44 -15q17 -14 17 -37t-16 -39q26 -14 26 -43q0 -25 -17 -41zM1244 146h-19q-4 0 -6 4q-14 23 -44 23q-35 0 -35 -23
q0 -19 44 -32l8 -3q61 -18 61 -60q0 -55 -72 -55q-34 0 -57 18q-18 14 -24 35q-1 6 5 6h21q4 0 6 -4q14 -27 51 -27q38 0 38 23q0 21 -45 36l-9 3q-58 19 -59 55q-1 25 20 41q19 14 49 14q55 0 72 -48q2 -6 -5 -6zM1332 9q0 -5 -5 -5h-22q-6 0 -6 5l1 182q0 5 5 5h21
q5 0 5 -5zM1522 173q0 -5 -5 -5h-55l1 -159q0 -5 -5 -5h-23q-5 0 -5 5l1 159h-55q-5 0 -5 5v18q0 5 5 5h141q5 0 5 -5v-18zM1577 118h80q5 0 5 -5v-18q0 -5 -5 -5h-80v-58h91q5 0 5 -5v-18q0 -5 -5 -5h-119q-5 0 -5 5l1 182q0 5 5 5h118q5 0 5 -5v-18q0 -5 -5 -5h-92z" />
    <glyph glyph-name="k" unicode="k" horiz-adv-x="3600" 
d="M3520 886l-1550 -552h-1492v542h-333v-1416h333v542h1492l1550 -552v353l-1024 365l1024 365v353z" />
    <glyph glyph-name="l" unicode="l" horiz-adv-x="644" 
d="M144 -1h333v1416h-333v-1416z" />
    <glyph glyph-name="m" unicode="m" horiz-adv-x="3640" 
d="M135 874v-874h333v541h1188v-541h333v541h1188v-541h333v874h-3375z" />
    <glyph glyph-name="n" unicode="n" horiz-adv-x="3640" 
d="M135 874v-874h333v541h2709v-541h333v874h-3375z" />
    <glyph glyph-name="o" unicode="o" horiz-adv-x="3640" 
d="M135 0h3375v874h-3375v-874zM468 541h2709v-208h-2709v208z" />
    <glyph glyph-name="p" unicode="p" horiz-adv-x="3650" 
d="M145 867v-1407h333v532h3042v875h-3375zM478 534h2709v-209h-2709v209z" />
    <glyph glyph-name="q" unicode="q" horiz-adv-x="3661" 
d="M1255 592q28 0 28 21q0 22 -28 22h-34l1 -43h33zM1222 572v-55q0 -4 -4 -4h-17q-4 0 -4 4l1 134q0 4 4 4h56q48 0 48 -41q0 -33 -36 -41l40 -55q3 -5 -3 -5h-20q-3 0 -5 2l-37 57h-23zM1383 671q-2 -3 -5 -3h-6q-6 0 -3 5l13 24q1 2 4 2h14q6 0 2 -4zM1353 598h60
q4 0 4 -4v-13q0 -4 -4 -4h-59v-43h67q4 0 4 -4v-13q0 -4 -4 -4h-88q-4 0 -4 4l1 134q0 4 4 4h87q4 0 4 -4v-13q0 -3 -4 -3h-68v-37zM1574 513q-4 0 -4 4l-2 111l-35 -112q-1 -3 -5 -3h-15q-3 0 -4 3l-37 115l-2 -114q0 -4 -3 -4h-16q-4 0 -4 4l5 134q0 4 4 4h25q4 0 5 -3
l35 -108l35 108q1 3 4 3h25q4 0 4 -4l5 -134q0 -4 -4 -4h-16zM1657 517q0 -4 -4 -4h-17q-4 0 -4 4l1 134q0 4 4 4h15q4 0 4 -4zM622 351q5 0 5 -5q-1 -30 -19 -49q-20 -21 -50 -21t-48 21q-19 21 -19 54q0 32 20 53q19 21 49 21q45 0 60 -40q2 -4 -3 -4l-14 -1q-3 0 -5 3
q-15 22 -40 22q-44 0 -44 -53q0 -55 47 -55q33 0 41 33h-32q-4 0 -4 4v13q0 4 4 4h52zM714 297q45 0 45 54t-46 54q-45 0 -45 -53q0 -55 46 -55zM762 298q-20 -22 -49 -22q-30 0 -49 21t-19 54q0 32 20 53t50 21q29 0 48 -20t19 -52q0 -33 -20 -55zM858 300q48 0 48 50
q0 52 -48 52h-30l1 -102h29zM859 422q70 0 70 -69q0 -73 -70 -73h-51q-3 0 -3 3v135q0 4 4 4h50zM975 364h60q4 0 4 -4v-13q0 -4 -4 -4h-59v-43h67q4 0 4 -3v-14q0 -3 -4 -3h-88q-4 0 -4 3l1 135q0 4 4 4h87q4 0 4 -4v-13q0 -4 -4 -4h-68v-37zM1093 367h59q4 0 4 -4v-13
q0 -4 -4 -4h-59l1 -63q0 -3 -4 -3h-17q-4 0 -4 3l1 135q0 4 4 4h87q4 0 4 -4v-13q0 -4 -4 -4h-68v-34zM1245 359q28 0 28 20q0 23 -28 23h-34v-43h34zM1211 339v-56q0 -3 -4 -3h-16q-4 0 -4 3v135q0 4 4 4h57q48 0 48 -41q0 -34 -36 -41l39 -56q4 -4 -2 -4h-20q-4 0 -5 2
l-38 57h-23zM1384 297q45 0 45 54t-47 54q-45 0 -45 -53q0 -55 47 -55zM1432 298q-20 -22 -50 -22q-29 0 -49 21q-19 21 -19 54q0 32 20 53t50 21t49 -20t19 -52q0 -33 -20 -55zM1510 283q0 -3 -4 -3h-16q-4 0 -4 3v135q0 4 4 4h15q4 0 4 -4zM1602 300q48 0 48 50
q0 52 -48 52h-29v-102h29zM1603 422q70 0 70 -69q0 -73 -70 -73h-50q-4 0 -4 3l1 135q0 4 3 4h50zM733 1374q59 -61 103 -126l8 -13q-9 -31 -14 -56q-12 -51 -18 -102h-79v297zM1177 1077h-183v-90h97l1 -16q0 -105 -28 -216q-21 -83 -57 -165l-6 -13q-8 41 -18 76
q-29 114 -71 197l-4 7l-4 8q-8 54 -8 106l1 16q1 45 7 90l4 30q7 39 16 76q8 30 19 65q17 52 38 100q12 28 25 53q9 18 17 35h-102q-21 -43 -39 -88l-2 -6q-37 49 -80 94h-158v-933h91v440q47 -44 83 -107l15 -27q35 -70 62 -169q10 -37 18 -77q7 -30 12 -60h143
q21 41 39 87q34 84 53 170q25 108 25 211q0 32 -3 65zM221 1301q28 0 28 23t-31 23h-41l1 -46h43zM177 1370h41q23 0 23 21q0 22 -27 22h-37v-43zM261 1292q-15 -13 -38 -13h-68q-5 0 -5 4l1 149q0 4 5 4h61q49 0 49 -43q0 -19 -12 -31q21 -12 21 -36q0 -20 -14 -34z
M431 1346q0 -71 -66 -71t-66 71v86q0 4 5 4h16q5 0 5 -4v-83q1 -51 41 -51q39 0 39 51v83q0 4 5 4h16q5 0 5 -4v-86zM525 1283q0 -4 -4 -4h-18q-5 0 -5 4l1 59l-48 89q-3 5 3 5h18q4 0 6 -3l33 -64h2l34 64q2 3 5 3h17q6 0 3 -5l-47 -89v-59zM71 1117h66q4 0 4 -4v-14
q0 -5 -4 -5h-66v-69q0 -4 -4 -4h-18q-5 0 -5 4l1 149q0 4 4 4h97q4 0 4 -4v-14q0 -5 -4 -5h-75v-38zM306 1089q1 -71 -66 -71q-66 0 -66 71l1 85q0 4 4 4h17q4 0 4 -4v-82q1 -52 41 -52q39 0 39 52l1 82q0 4 4 4h17q4 0 4 -4v-85zM440 1044q4 0 4 -4v-15q0 -4 -4 -4h-100
q-4 0 -4 4l1 149q0 4 4 4h17q4 0 4 -4l1 -130h77zM568 1044q4 0 4 -4v-15q0 -4 -4 -4h-100q-4 0 -4 4l1 149q0 4 4 4h17q4 0 4 -4l1 -130h77zM27 860h65q5 0 5 -5v-14q0 -4 -5 -4h-65v-69q0 -4 -4 -4h-19q-4 0 -4 4l1 148q0 5 4 5h97q4 0 4 -5v-14q0 -4 -4 -4h-76zM202 783
q50 0 50 59q0 60 -52 60q-50 0 -50 -58q0 -61 52 -61zM255 784q-22 -24 -55 -24t-54 23t-21 59t22 59t55 23t54 -22t21 -57q0 -37 -22 -61zM432 768q0 -4 -4 -4h-25q-3 0 -5 3l-71 123l1 -122q0 -4 -4 -4h-18q-5 0 -5 4l1 148q0 5 4 5h26q3 0 5 -3l68 -119l1 117q0 5 4 5h17
q4 0 4 -5zM574 902q0 -4 -4 -4h-45l1 -130q0 -4 -5 -4h-18q-4 0 -4 4v130h-44q-5 0 -5 4v14q0 5 5 5h115q4 0 4 -5v-14zM332 525q50 0 50 60q0 59 -51 59q-50 0 -50 -58q0 -61 51 -61zM386 527q-22 -24 -55 -24t-54 22q-22 24 -22 60q0 35 23 59q22 23 55 23q32 0 53 -22
q22 -23 22 -58q0 -36 -22 -60zM563 510q0 -4 -5 -4h-24q-4 0 -5 3l-71 124l1 -123q0 -4 -5 -4h-18q-4 0 -4 4l1 149q0 4 4 4h26q3 0 5 -3l68 -119l1 118q0 4 4 4h16q5 0 5 -4zM738 196q6 0 4 -6l-49 -181q-1 -5 -6 -5h-27q-4 0 -5 5l-37 142h-3l-36 -142q-2 -5 -6 -5h-26
q-5 0 -6 5l-50 181q-2 6 4 6h22q4 0 6 -4l36 -136h2l36 136q2 4 6 4h27q4 0 6 -4l35 -136h3l36 136q2 4 6 4h22zM798 118h80q6 0 6 -5v-18q0 -5 -6 -5h-80l1 -58h90q6 0 6 -5v-18q0 -5 -6 -5h-118q-6 0 -6 5l2 182q0 5 5 5h117q6 0 6 -5v-18q0 -5 -6 -5h-91v-50zM1011 31
q34 0 34 28q0 29 -39 29h-49v-57h54zM957 116h50q28 0 28 26q0 27 -34 27h-44v-53zM1059 21q-18 -17 -46 -17h-83q-6 0 -6 5l1 182q0 5 6 5h74q27 0 44 -15q17 -14 17 -37t-16 -39q26 -14 26 -43q0 -25 -17 -41zM1244 146h-19q-4 0 -6 4q-14 23 -44 23q-35 0 -35 -23
q0 -19 44 -32l8 -3q61 -18 61 -60q0 -55 -72 -55q-34 0 -57 18q-18 14 -24 35q-1 6 5 6h21q4 0 6 -4q14 -27 51 -27q38 0 38 23q0 21 -45 36l-9 3q-58 19 -59 55q-1 25 20 41q19 14 49 14q55 0 72 -48q2 -6 -5 -6zM1332 9q0 -5 -5 -5h-22q-6 0 -6 5l1 182q0 5 5 5h21
q5 0 5 -5zM1522 173q0 -5 -5 -5h-55l1 -159q0 -5 -5 -5h-23q-5 0 -5 5l1 159h-55q-5 0 -5 5v18q0 5 5 5h141q5 0 5 -5v-18zM1577 118h80q5 0 5 -5v-18q0 -5 -5 -5h-80v-58h91q5 0 5 -5v-18q0 -5 -5 -5h-119q-5 0 -5 5l1 182q0 5 5 5h118q5 0 5 -5v-18q0 -5 -5 -5h-92z" />
    <glyph glyph-name="r" unicode="r" horiz-adv-x="3411" 
d="M135 874v-874h333v541h2876v333h-3209z" />
    <glyph glyph-name="s" unicode="s" horiz-adv-x="3640" 
d="M135 874v-708h333v375h2709v-208h-1354v-333h1687v874h-3375z" />
    <glyph glyph-name="t" unicode="t" horiz-adv-x="3432" 
d="M143 1083v-1083h333v375h2876v333h-2876v375h-333z" />
    <glyph glyph-name="u" unicode="u" horiz-adv-x="3640" 
d="M3177 874v-541h-2709v541h-333v-874h3375v874h-333z" />
    <glyph glyph-name="v" unicode="v" horiz-adv-x="3513" 
d="M3258 874l-1492 -531l-1493 531h-195v-284l1659 -590h57l1659 590v284h-195z" />
    <glyph glyph-name="w" unicode="w" horiz-adv-x="3640" 
d="M3177 874v-541h-1188v541h-333v-541h-1188v541h-333v-874h3375v874h-333z" />
    <glyph glyph-name="x" unicode="x" horiz-adv-x="3640" 
d="M1255 592q28 0 28 21q0 22 -28 22h-34l1 -43h33zM1222 572v-55q0 -4 -4 -4h-17q-4 0 -4 4l1 134q0 4 4 4h56q48 0 48 -41q0 -33 -36 -41l40 -55q3 -5 -3 -5h-20q-3 0 -5 2l-37 57h-23zM1383 671q-2 -3 -5 -3h-6q-6 0 -3 5l13 24q1 2 4 2h14q6 0 2 -4zM1353 598h60
q4 0 4 -4v-13q0 -4 -4 -4h-59v-43h67q4 0 4 -4v-13q0 -4 -4 -4h-88q-4 0 -4 4l1 134q0 4 4 4h87q4 0 4 -4v-13q0 -3 -4 -3h-68v-37zM1574 513q-4 0 -4 4l-2 111l-35 -112q-1 -3 -5 -3h-15q-3 0 -4 3l-37 115l-2 -114q0 -4 -3 -4h-16q-4 0 -4 4l5 134q0 4 4 4h25q4 0 5 -3
l35 -108l35 108q1 3 4 3h25q4 0 4 -4l5 -134q0 -4 -4 -4h-16zM1657 517q0 -4 -4 -4h-17q-4 0 -4 4l1 134q0 4 4 4h15q4 0 4 -4zM622 351q5 0 5 -5q-1 -30 -19 -49q-20 -21 -50 -21t-48 21q-19 21 -19 54q0 32 20 53q19 21 49 21q45 0 60 -40q2 -4 -3 -4l-14 -1q-3 0 -5 3
q-15 22 -40 22q-44 0 -44 -53q0 -55 47 -55q33 0 41 33h-32q-4 0 -4 4v13q0 4 4 4h52zM714 297q45 0 45 54t-46 54q-45 0 -45 -53q0 -55 46 -55zM762 298q-20 -22 -49 -22q-30 0 -49 21t-19 54q0 32 20 53t50 21q29 0 48 -20t19 -52q0 -33 -20 -55zM858 300q48 0 48 50
q0 52 -48 52h-30l1 -102h29zM859 422q70 0 70 -69q0 -73 -70 -73h-51q-3 0 -3 3v135q0 4 4 4h50zM975 364h60q4 0 4 -4v-13q0 -4 -4 -4h-59v-43h67q4 0 4 -3v-14q0 -3 -4 -3h-88q-4 0 -4 3l1 135q0 4 4 4h87q4 0 4 -4v-13q0 -4 -4 -4h-68v-37zM1093 367h59q4 0 4 -4v-13
q0 -4 -4 -4h-59l1 -63q0 -3 -4 -3h-17q-4 0 -4 3l1 135q0 4 4 4h87q4 0 4 -4v-13q0 -4 -4 -4h-68v-34zM1245 359q28 0 28 20q0 23 -28 23h-34v-43h34zM1211 339v-56q0 -3 -4 -3h-16q-4 0 -4 3v135q0 4 4 4h57q48 0 48 -41q0 -34 -36 -41l39 -56q4 -4 -2 -4h-20q-4 0 -5 2
l-38 57h-23zM1384 297q45 0 45 54t-47 54q-45 0 -45 -53q0 -55 47 -55zM1432 298q-20 -22 -50 -22q-29 0 -49 21q-19 21 -19 54q0 32 20 53t50 21t49 -20t19 -52q0 -33 -20 -55zM1510 283q0 -3 -4 -3h-16q-4 0 -4 3v135q0 4 4 4h15q4 0 4 -4zM1602 300q48 0 48 50
q0 52 -48 52h-29v-102h29zM1603 422q70 0 70 -69q0 -73 -70 -73h-50q-4 0 -4 3l1 135q0 4 3 4h50zM733 1374q59 -61 103 -126l8 -13q-9 -31 -14 -56q-12 -51 -18 -102h-79v297zM1177 1077h-183v-90h97l1 -16q0 -105 -28 -216q-21 -83 -57 -165l-6 -13q-8 41 -18 76
q-29 114 -71 197l-4 7l-4 8q-8 54 -8 106l1 16q1 45 7 90l4 30q7 39 16 76q8 30 19 65q17 52 38 100q12 28 25 53q9 18 17 35h-102q-21 -43 -39 -88l-2 -6q-37 49 -80 94h-158v-933h91v440q47 -44 83 -107l15 -27q35 -70 62 -169q10 -37 18 -77q7 -30 12 -60h143
q21 41 39 87q34 84 53 170q25 108 25 211q0 32 -3 65zM221 1301q28 0 28 23t-31 23h-41l1 -46h43zM177 1370h41q23 0 23 21q0 22 -27 22h-37v-43zM261 1292q-15 -13 -38 -13h-68q-5 0 -5 4l1 149q0 4 5 4h61q49 0 49 -43q0 -19 -12 -31q21 -12 21 -36q0 -20 -14 -34z
M431 1346q0 -71 -66 -71t-66 71v86q0 4 5 4h16q5 0 5 -4v-83q1 -51 41 -51q39 0 39 51v83q0 4 5 4h16q5 0 5 -4v-86zM525 1283q0 -4 -4 -4h-18q-5 0 -5 4l1 59l-48 89q-3 5 3 5h18q4 0 6 -3l33 -64h2l34 64q2 3 5 3h17q6 0 3 -5l-47 -89v-59zM71 1117h66q4 0 4 -4v-14
q0 -5 -4 -5h-66v-69q0 -4 -4 -4h-18q-5 0 -5 4l1 149q0 4 4 4h97q4 0 4 -4v-14q0 -5 -4 -5h-75v-38zM306 1089q1 -71 -66 -71q-66 0 -66 71l1 85q0 4 4 4h17q4 0 4 -4v-82q1 -52 41 -52q39 0 39 52l1 82q0 4 4 4h17q4 0 4 -4v-85zM440 1044q4 0 4 -4v-15q0 -4 -4 -4h-100
q-4 0 -4 4l1 149q0 4 4 4h17q4 0 4 -4l1 -130h77zM568 1044q4 0 4 -4v-15q0 -4 -4 -4h-100q-4 0 -4 4l1 149q0 4 4 4h17q4 0 4 -4l1 -130h77zM27 860h65q5 0 5 -5v-14q0 -4 -5 -4h-65v-69q0 -4 -4 -4h-19q-4 0 -4 4l1 148q0 5 4 5h97q4 0 4 -5v-14q0 -4 -4 -4h-76zM202 783
q50 0 50 59q0 60 -52 60q-50 0 -50 -58q0 -61 52 -61zM255 784q-22 -24 -55 -24t-54 23t-21 59t22 59t55 23t54 -22t21 -57q0 -37 -22 -61zM432 768q0 -4 -4 -4h-25q-3 0 -5 3l-71 123l1 -122q0 -4 -4 -4h-18q-5 0 -5 4l1 148q0 5 4 5h26q3 0 5 -3l68 -119l1 117q0 5 4 5h17
q4 0 4 -5zM574 902q0 -4 -4 -4h-45l1 -130q0 -4 -5 -4h-18q-4 0 -4 4v130h-44q-5 0 -5 4v14q0 5 5 5h115q4 0 4 -5v-14zM332 525q50 0 50 60q0 59 -51 59q-50 0 -50 -58q0 -61 51 -61zM386 527q-22 -24 -55 -24t-54 22q-22 24 -22 60q0 35 23 59q22 23 55 23q32 0 53 -22
q22 -23 22 -58q0 -36 -22 -60zM563 510q0 -4 -5 -4h-24q-4 0 -5 3l-71 124l1 -123q0 -4 -5 -4h-18q-4 0 -4 4l1 149q0 4 4 4h26q3 0 5 -3l68 -119l1 118q0 4 4 4h16q5 0 5 -4zM738 196q6 0 4 -6l-49 -181q-1 -5 -6 -5h-27q-4 0 -5 5l-37 142h-3l-36 -142q-2 -5 -6 -5h-26
q-5 0 -6 5l-50 181q-2 6 4 6h22q4 0 6 -4l36 -136h2l36 136q2 4 6 4h27q4 0 6 -4l35 -136h3l36 136q2 4 6 4h22zM798 118h80q6 0 6 -5v-18q0 -5 -6 -5h-80l1 -58h90q6 0 6 -5v-18q0 -5 -6 -5h-118q-6 0 -6 5l2 182q0 5 5 5h117q6 0 6 -5v-18q0 -5 -6 -5h-91v-50zM1011 31
q34 0 34 28q0 29 -39 29h-49v-57h54zM957 116h50q28 0 28 26q0 27 -34 27h-44v-53zM1059 21q-18 -17 -46 -17h-83q-6 0 -6 5l1 182q0 5 6 5h74q27 0 44 -15q17 -14 17 -37t-16 -39q26 -14 26 -43q0 -25 -17 -41zM1244 146h-19q-4 0 -6 4q-14 23 -44 23q-35 0 -35 -23
q0 -19 44 -32l8 -3q61 -18 61 -60q0 -55 -72 -55q-34 0 -57 18q-18 14 -24 35q-1 6 5 6h21q4 0 6 -4q14 -27 51 -27q38 0 38 23q0 21 -45 36l-9 3q-58 19 -59 55q-1 25 20 41q19 14 49 14q55 0 72 -48q2 -6 -5 -6zM1332 9q0 -5 -5 -5h-22q-6 0 -6 5l1 182q0 5 5 5h21
q5 0 5 -5zM1522 173q0 -5 -5 -5h-55l1 -159q0 -5 -5 -5h-23q-5 0 -5 5l1 159h-55q-5 0 -5 5v18q0 5 5 5h141q5 0 5 -5v-18zM1577 118h80q5 0 5 -5v-18q0 -5 -5 -5h-80v-58h91q5 0 5 -5v-18q0 -5 -5 -5h-119q-5 0 -5 5l1 182q0 5 5 5h118q5 0 5 -5v-18q0 -5 -5 -5h-92z" />
    <glyph glyph-name="y" unicode="y" horiz-adv-x="3661" 
d="M3177 875v-541h-2709v541h-333v-874h3042v-208h-1354v-333h1687v1415h-333z" />
    <glyph glyph-name="z" unicode="z" horiz-adv-x="3590" 
d="M135 872v-708h333v375h1188v-542h1521v-208h-1354v-333h1687v874h-1521v542h-1854z" />
    <glyph glyph-name="braceleft" unicode="{" horiz-adv-x="1049" 
d="M331 1772v-783l-331 -118v-329h2v-2l329 -117v-774h662v333h-329v676l-135 48l135 48v685h329v333h-662z" />
    <glyph glyph-name="bar" unicode="|" horiz-adv-x="819" 
d="M0 -702h333v2831h-333v-2831z" />
    <glyph glyph-name="braceright" unicode="}" horiz-adv-x="1062" 
d="M0 1772v-333h329v-675l135 -48l-135 -48v-686h-329v-333h662v784l331 117v330h-2v2l-329 117v773h-662z" />
    <glyph glyph-name="asciitilde" unicode="~" horiz-adv-x="1953" 
d="M1507 1145l-360 -444l-360 444h-159l-628 -774v-100h348l359 443l360 -443h159l628 774v100h-347z" />
    <glyph glyph-name="exclamdown" unicode="&#xa1;" horiz-adv-x="819" 
d="M0 1083h333v333h-333v-333zM0 0h333v714h-333v-714z" />
    <glyph glyph-name="cent" unicode="&#xa2;" horiz-adv-x="3509" 
d="M1255 592q28 0 28 21q0 22 -28 22h-34l1 -43h33zM1222 572v-55q0 -4 -4 -4h-17q-4 0 -4 4l1 134q0 4 4 4h56q48 0 48 -41q0 -33 -36 -41l40 -55q3 -5 -3 -5h-20q-3 0 -5 2l-37 57h-23zM1383 671q-2 -3 -5 -3h-6q-6 0 -3 5l13 24q1 2 4 2h14q6 0 2 -4zM1353 598h60
q4 0 4 -4v-13q0 -4 -4 -4h-59v-43h67q4 0 4 -4v-13q0 -4 -4 -4h-88q-4 0 -4 4l1 134q0 4 4 4h87q4 0 4 -4v-13q0 -3 -4 -3h-68v-37zM1574 513q-4 0 -4 4l-2 111l-35 -112q-1 -3 -5 -3h-15q-3 0 -4 3l-37 115l-2 -114q0 -4 -3 -4h-16q-4 0 -4 4l5 134q0 4 4 4h25q4 0 5 -3
l35 -108l35 108q1 3 4 3h25q4 0 4 -4l5 -134q0 -4 -4 -4h-16zM1657 517q0 -4 -4 -4h-17q-4 0 -4 4l1 134q0 4 4 4h15q4 0 4 -4zM622 351q5 0 5 -5q-1 -30 -19 -49q-20 -21 -50 -21t-48 21q-19 21 -19 54q0 32 20 53q19 21 49 21q45 0 60 -40q2 -4 -3 -4l-14 -1q-3 0 -5 3
q-15 22 -40 22q-44 0 -44 -53q0 -55 47 -55q33 0 41 33h-32q-4 0 -4 4v13q0 4 4 4h52zM714 297q45 0 45 54t-46 54q-45 0 -45 -53q0 -55 46 -55zM762 298q-20 -22 -49 -22q-30 0 -49 21t-19 54q0 32 20 53t50 21q29 0 48 -20t19 -52q0 -33 -20 -55zM858 300q48 0 48 50
q0 52 -48 52h-30l1 -102h29zM859 422q70 0 70 -69q0 -73 -70 -73h-51q-3 0 -3 3v135q0 4 4 4h50zM975 364h60q4 0 4 -4v-13q0 -4 -4 -4h-59v-43h67q4 0 4 -3v-14q0 -3 -4 -3h-88q-4 0 -4 3l1 135q0 4 4 4h87q4 0 4 -4v-13q0 -4 -4 -4h-68v-37zM1093 367h59q4 0 4 -4v-13
q0 -4 -4 -4h-59l1 -63q0 -3 -4 -3h-17q-4 0 -4 3l1 135q0 4 4 4h87q4 0 4 -4v-13q0 -4 -4 -4h-68v-34zM1245 359q28 0 28 20q0 23 -28 23h-34v-43h34zM1211 339v-56q0 -3 -4 -3h-16q-4 0 -4 3v135q0 4 4 4h57q48 0 48 -41q0 -34 -36 -41l39 -56q4 -4 -2 -4h-20q-4 0 -5 2
l-38 57h-23zM1384 297q45 0 45 54t-47 54q-45 0 -45 -53q0 -55 47 -55zM1432 298q-20 -22 -50 -22q-29 0 -49 21q-19 21 -19 54q0 32 20 53t50 21t49 -20t19 -52q0 -33 -20 -55zM1510 283q0 -3 -4 -3h-16q-4 0 -4 3v135q0 4 4 4h15q4 0 4 -4zM1602 300q48 0 48 50
q0 52 -48 52h-29v-102h29zM1603 422q70 0 70 -69q0 -73 -70 -73h-50q-4 0 -4 3l1 135q0 4 3 4h50zM733 1374q59 -61 103 -126l8 -13q-9 -31 -14 -56q-12 -51 -18 -102h-79v297zM1177 1077h-183v-90h97l1 -16q0 -105 -28 -216q-21 -83 -57 -165l-6 -13q-8 41 -18 76
q-29 114 -71 197l-4 7l-4 8q-8 54 -8 106l1 16q1 45 7 90l4 30q7 39 16 76q8 30 19 65q17 52 38 100q12 28 25 53q9 18 17 35h-102q-21 -43 -39 -88l-2 -6q-37 49 -80 94h-158v-933h91v440q47 -44 83 -107l15 -27q35 -70 62 -169q10 -37 18 -77q7 -30 12 -60h143
q21 41 39 87q34 84 53 170q25 108 25 211q0 32 -3 65zM221 1301q28 0 28 23t-31 23h-41l1 -46h43zM177 1370h41q23 0 23 21q0 22 -27 22h-37v-43zM261 1292q-15 -13 -38 -13h-68q-5 0 -5 4l1 149q0 4 5 4h61q49 0 49 -43q0 -19 -12 -31q21 -12 21 -36q0 -20 -14 -34z
M431 1346q0 -71 -66 -71t-66 71v86q0 4 5 4h16q5 0 5 -4v-83q1 -51 41 -51q39 0 39 51v83q0 4 5 4h16q5 0 5 -4v-86zM525 1283q0 -4 -4 -4h-18q-5 0 -5 4l1 59l-48 89q-3 5 3 5h18q4 0 6 -3l33 -64h2l34 64q2 3 5 3h17q6 0 3 -5l-47 -89v-59zM71 1117h66q4 0 4 -4v-14
q0 -5 -4 -5h-66v-69q0 -4 -4 -4h-18q-5 0 -5 4l1 149q0 4 4 4h97q4 0 4 -4v-14q0 -5 -4 -5h-75v-38zM306 1089q1 -71 -66 -71q-66 0 -66 71l1 85q0 4 4 4h17q4 0 4 -4v-82q1 -52 41 -52q39 0 39 52l1 82q0 4 4 4h17q4 0 4 -4v-85zM440 1044q4 0 4 -4v-15q0 -4 -4 -4h-100
q-4 0 -4 4l1 149q0 4 4 4h17q4 0 4 -4l1 -130h77zM568 1044q4 0 4 -4v-15q0 -4 -4 -4h-100q-4 0 -4 4l1 149q0 4 4 4h17q4 0 4 -4l1 -130h77zM27 860h65q5 0 5 -5v-14q0 -4 -5 -4h-65v-69q0 -4 -4 -4h-19q-4 0 -4 4l1 148q0 5 4 5h97q4 0 4 -5v-14q0 -4 -4 -4h-76zM202 783
q50 0 50 59q0 60 -52 60q-50 0 -50 -58q0 -61 52 -61zM255 784q-22 -24 -55 -24t-54 23t-21 59t22 59t55 23t54 -22t21 -57q0 -37 -22 -61zM432 768q0 -4 -4 -4h-25q-3 0 -5 3l-71 123l1 -122q0 -4 -4 -4h-18q-5 0 -5 4l1 148q0 5 4 5h26q3 0 5 -3l68 -119l1 117q0 5 4 5h17
q4 0 4 -5zM574 902q0 -4 -4 -4h-45l1 -130q0 -4 -5 -4h-18q-4 0 -4 4v130h-44q-5 0 -5 4v14q0 5 5 5h115q4 0 4 -5v-14zM332 525q50 0 50 60q0 59 -51 59q-50 0 -50 -58q0 -61 51 -61zM386 527q-22 -24 -55 -24t-54 22q-22 24 -22 60q0 35 23 59q22 23 55 23q32 0 53 -22
q22 -23 22 -58q0 -36 -22 -60zM563 510q0 -4 -5 -4h-24q-4 0 -5 3l-71 124l1 -123q0 -4 -5 -4h-18q-4 0 -4 4l1 149q0 4 4 4h26q3 0 5 -3l68 -119l1 118q0 4 4 4h16q5 0 5 -4zM738 196q6 0 4 -6l-49 -181q-1 -5 -6 -5h-27q-4 0 -5 5l-37 142h-3l-36 -142q-2 -5 -6 -5h-26
q-5 0 -6 5l-50 181q-2 6 4 6h22q4 0 6 -4l36 -136h2l36 136q2 4 6 4h27q4 0 6 -4l35 -136h3l36 136q2 4 6 4h22zM798 118h80q6 0 6 -5v-18q0 -5 -6 -5h-80l1 -58h90q6 0 6 -5v-18q0 -5 -6 -5h-118q-6 0 -6 5l2 182q0 5 5 5h117q6 0 6 -5v-18q0 -5 -6 -5h-91v-50zM1011 31
q34 0 34 28q0 29 -39 29h-49v-57h54zM957 116h50q28 0 28 26q0 27 -34 27h-44v-53zM1059 21q-18 -17 -46 -17h-83q-6 0 -6 5l1 182q0 5 6 5h74q27 0 44 -15q17 -14 17 -37t-16 -39q26 -14 26 -43q0 -25 -17 -41zM1244 146h-19q-4 0 -6 4q-14 23 -44 23q-35 0 -35 -23
q0 -19 44 -32l8 -3q61 -18 61 -60q0 -55 -72 -55q-34 0 -57 18q-18 14 -24 35q-1 6 5 6h21q4 0 6 -4q14 -27 51 -27q38 0 38 23q0 21 -45 36l-9 3q-58 19 -59 55q-1 25 20 41q19 14 49 14q55 0 72 -48q2 -6 -5 -6zM1332 9q0 -5 -5 -5h-22q-6 0 -6 5l1 182q0 5 5 5h21
q5 0 5 -5zM1522 173q0 -5 -5 -5h-55l1 -159q0 -5 -5 -5h-23q-5 0 -5 5l1 159h-55q-5 0 -5 5v18q0 5 5 5h141q5 0 5 -5v-18zM1577 118h80q5 0 5 -5v-18q0 -5 -5 -5h-80v-58h91q5 0 5 -5v-18q0 -5 -5 -5h-119q-5 0 -5 5l1 182q0 5 5 5h118q5 0 5 -5v-18q0 -5 -5 -5h-92z" />
    <glyph glyph-name="sterling" unicode="&#xa3;" horiz-adv-x="4313" 
d="M799 1416v-542h-799v-333h799v-541h3376v333h-3043v208h722v333h-722v542h-333z" />
    <glyph glyph-name="currency" unicode="&#xa4;" horiz-adv-x="2645" 
d="M2376 1418l-401 -271h-1430l-401 271h-144v-304l333 -225v-360l-333 -225v-304h144l405 273h1422l405 -273h144v304l-333 225v360l333 225v304h-144zM666 664v90l89 60h1010l89 -60v-90l-86 -58h-1016z" />
    <glyph glyph-name="yen" unicode="&#xa5;" horiz-adv-x="3455" 
d="M3124 1416l-1492 -532l-1493 532h-139v-304l667 -238h-667v-333h1464v-208h-1464v-333h3375v333h-1579v208h1579v333h-779l779 277v265h-251z" />
    <glyph glyph-name="brokenbar" unicode="&#xa6;" horiz-adv-x="819" 
d="M1255 592q28 0 28 21q0 22 -28 22h-34l1 -43h33zM1222 572v-55q0 -4 -4 -4h-17q-4 0 -4 4l1 134q0 4 4 4h56q48 0 48 -41q0 -33 -36 -41l40 -55q3 -5 -3 -5h-20q-3 0 -5 2l-37 57h-23zM1383 671q-2 -3 -5 -3h-6q-6 0 -3 5l13 24q1 2 4 2h14q6 0 2 -4zM1353 598h60
q4 0 4 -4v-13q0 -4 -4 -4h-59v-43h67q4 0 4 -4v-13q0 -4 -4 -4h-88q-4 0 -4 4l1 134q0 4 4 4h87q4 0 4 -4v-13q0 -3 -4 -3h-68v-37zM1574 513q-4 0 -4 4l-2 111l-35 -112q-1 -3 -5 -3h-15q-3 0 -4 3l-37 115l-2 -114q0 -4 -3 -4h-16q-4 0 -4 4l5 134q0 4 4 4h25q4 0 5 -3
l35 -108l35 108q1 3 4 3h25q4 0 4 -4l5 -134q0 -4 -4 -4h-16zM1657 517q0 -4 -4 -4h-17q-4 0 -4 4l1 134q0 4 4 4h15q4 0 4 -4zM622 351q5 0 5 -5q-1 -30 -19 -49q-20 -21 -50 -21t-48 21q-19 21 -19 54q0 32 20 53q19 21 49 21q45 0 60 -40q2 -4 -3 -4l-14 -1q-3 0 -5 3
q-15 22 -40 22q-44 0 -44 -53q0 -55 47 -55q33 0 41 33h-32q-4 0 -4 4v13q0 4 4 4h52zM714 297q45 0 45 54t-46 54q-45 0 -45 -53q0 -55 46 -55zM762 298q-20 -22 -49 -22q-30 0 -49 21t-19 54q0 32 20 53t50 21q29 0 48 -20t19 -52q0 -33 -20 -55zM858 300q48 0 48 50
q0 52 -48 52h-30l1 -102h29zM859 422q70 0 70 -69q0 -73 -70 -73h-51q-3 0 -3 3v135q0 4 4 4h50zM975 364h60q4 0 4 -4v-13q0 -4 -4 -4h-59v-43h67q4 0 4 -3v-14q0 -3 -4 -3h-88q-4 0 -4 3l1 135q0 4 4 4h87q4 0 4 -4v-13q0 -4 -4 -4h-68v-37zM1093 367h59q4 0 4 -4v-13
q0 -4 -4 -4h-59l1 -63q0 -3 -4 -3h-17q-4 0 -4 3l1 135q0 4 4 4h87q4 0 4 -4v-13q0 -4 -4 -4h-68v-34zM1245 359q28 0 28 20q0 23 -28 23h-34v-43h34zM1211 339v-56q0 -3 -4 -3h-16q-4 0 -4 3v135q0 4 4 4h57q48 0 48 -41q0 -34 -36 -41l39 -56q4 -4 -2 -4h-20q-4 0 -5 2
l-38 57h-23zM1384 297q45 0 45 54t-47 54q-45 0 -45 -53q0 -55 47 -55zM1432 298q-20 -22 -50 -22q-29 0 -49 21q-19 21 -19 54q0 32 20 53t50 21t49 -20t19 -52q0 -33 -20 -55zM1510 283q0 -3 -4 -3h-16q-4 0 -4 3v135q0 4 4 4h15q4 0 4 -4zM1602 300q48 0 48 50
q0 52 -48 52h-29v-102h29zM1603 422q70 0 70 -69q0 -73 -70 -73h-50q-4 0 -4 3l1 135q0 4 3 4h50zM733 1374q59 -61 103 -126l8 -13q-9 -31 -14 -56q-12 -51 -18 -102h-79v297zM1177 1077h-183v-90h97l1 -16q0 -105 -28 -216q-21 -83 -57 -165l-6 -13q-8 41 -18 76
q-29 114 -71 197l-4 7l-4 8q-8 54 -8 106l1 16q1 45 7 90l4 30q7 39 16 76q8 30 19 65q17 52 38 100q12 28 25 53q9 18 17 35h-102q-21 -43 -39 -88l-2 -6q-37 49 -80 94h-158v-933h91v440q47 -44 83 -107l15 -27q35 -70 62 -169q10 -37 18 -77q7 -30 12 -60h143
q21 41 39 87q34 84 53 170q25 108 25 211q0 32 -3 65zM221 1301q28 0 28 23t-31 23h-41l1 -46h43zM177 1370h41q23 0 23 21q0 22 -27 22h-37v-43zM261 1292q-15 -13 -38 -13h-68q-5 0 -5 4l1 149q0 4 5 4h61q49 0 49 -43q0 -19 -12 -31q21 -12 21 -36q0 -20 -14 -34z
M431 1346q0 -71 -66 -71t-66 71v86q0 4 5 4h16q5 0 5 -4v-83q1 -51 41 -51q39 0 39 51v83q0 4 5 4h16q5 0 5 -4v-86zM525 1283q0 -4 -4 -4h-18q-5 0 -5 4l1 59l-48 89q-3 5 3 5h18q4 0 6 -3l33 -64h2l34 64q2 3 5 3h17q6 0 3 -5l-47 -89v-59zM71 1117h66q4 0 4 -4v-14
q0 -5 -4 -5h-66v-69q0 -4 -4 -4h-18q-5 0 -5 4l1 149q0 4 4 4h97q4 0 4 -4v-14q0 -5 -4 -5h-75v-38zM306 1089q1 -71 -66 -71q-66 0 -66 71l1 85q0 4 4 4h17q4 0 4 -4v-82q1 -52 41 -52q39 0 39 52l1 82q0 4 4 4h17q4 0 4 -4v-85zM440 1044q4 0 4 -4v-15q0 -4 -4 -4h-100
q-4 0 -4 4l1 149q0 4 4 4h17q4 0 4 -4l1 -130h77zM568 1044q4 0 4 -4v-15q0 -4 -4 -4h-100q-4 0 -4 4l1 149q0 4 4 4h17q4 0 4 -4l1 -130h77zM27 860h65q5 0 5 -5v-14q0 -4 -5 -4h-65v-69q0 -4 -4 -4h-19q-4 0 -4 4l1 148q0 5 4 5h97q4 0 4 -5v-14q0 -4 -4 -4h-76zM202 783
q50 0 50 59q0 60 -52 60q-50 0 -50 -58q0 -61 52 -61zM255 784q-22 -24 -55 -24t-54 23t-21 59t22 59t55 23t54 -22t21 -57q0 -37 -22 -61zM432 768q0 -4 -4 -4h-25q-3 0 -5 3l-71 123l1 -122q0 -4 -4 -4h-18q-5 0 -5 4l1 148q0 5 4 5h26q3 0 5 -3l68 -119l1 117q0 5 4 5h17
q4 0 4 -5zM574 902q0 -4 -4 -4h-45l1 -130q0 -4 -5 -4h-18q-4 0 -4 4v130h-44q-5 0 -5 4v14q0 5 5 5h115q4 0 4 -5v-14zM332 525q50 0 50 60q0 59 -51 59q-50 0 -50 -58q0 -61 51 -61zM386 527q-22 -24 -55 -24t-54 22q-22 24 -22 60q0 35 23 59q22 23 55 23q32 0 53 -22
q22 -23 22 -58q0 -36 -22 -60zM563 510q0 -4 -5 -4h-24q-4 0 -5 3l-71 124l1 -123q0 -4 -5 -4h-18q-4 0 -4 4l1 149q0 4 4 4h26q3 0 5 -3l68 -119l1 118q0 4 4 4h16q5 0 5 -4zM738 196q6 0 4 -6l-49 -181q-1 -5 -6 -5h-27q-4 0 -5 5l-37 142h-3l-36 -142q-2 -5 -6 -5h-26
q-5 0 -6 5l-50 181q-2 6 4 6h22q4 0 6 -4l36 -136h2l36 136q2 4 6 4h27q4 0 6 -4l35 -136h3l36 136q2 4 6 4h22zM798 118h80q6 0 6 -5v-18q0 -5 -6 -5h-80l1 -58h90q6 0 6 -5v-18q0 -5 -6 -5h-118q-6 0 -6 5l2 182q0 5 5 5h117q6 0 6 -5v-18q0 -5 -6 -5h-91v-50zM1011 31
q34 0 34 28q0 29 -39 29h-49v-57h54zM957 116h50q28 0 28 26q0 27 -34 27h-44v-53zM1059 21q-18 -17 -46 -17h-83q-6 0 -6 5l1 182q0 5 6 5h74q27 0 44 -15q17 -14 17 -37t-16 -39q26 -14 26 -43q0 -25 -17 -41zM1244 146h-19q-4 0 -6 4q-14 23 -44 23q-35 0 -35 -23
q0 -19 44 -32l8 -3q61 -18 61 -60q0 -55 -72 -55q-34 0 -57 18q-18 14 -24 35q-1 6 5 6h21q4 0 6 -4q14 -27 51 -27q38 0 38 23q0 21 -45 36l-9 3q-58 19 -59 55q-1 25 20 41q19 14 49 14q55 0 72 -48q2 -6 -5 -6zM1332 9q0 -5 -5 -5h-22q-6 0 -6 5l1 182q0 5 5 5h21
q5 0 5 -5zM1522 173q0 -5 -5 -5h-55l1 -159q0 -5 -5 -5h-23q-5 0 -5 5l1 159h-55q-5 0 -5 5v18q0 5 5 5h141q5 0 5 -5v-18zM1577 118h80q5 0 5 -5v-18q0 -5 -5 -5h-80v-58h91q5 0 5 -5v-18q0 -5 -5 -5h-119q-5 0 -5 5l1 182q0 5 5 5h118q5 0 5 -5v-18q0 -5 -5 -5h-92z" />
    <glyph glyph-name="section" unicode="&#xa7;" horiz-adv-x="3480" 
d="M0 1415v-1416h3042v-208h-3042v-333h3375v1416h-3042v208h3042v333h-3375zM333 541h2709v-209h-2709v209z" />
    <glyph glyph-name="dieresis" unicode="&#xa8;" horiz-adv-x="1985" 
d="M1255 592q28 0 28 21q0 22 -28 22h-34l1 -43h33zM1222 572v-55q0 -4 -4 -4h-17q-4 0 -4 4l1 134q0 4 4 4h56q48 0 48 -41q0 -33 -36 -41l40 -55q3 -5 -3 -5h-20q-3 0 -5 2l-37 57h-23zM1383 671q-2 -3 -5 -3h-6q-6 0 -3 5l13 24q1 2 4 2h14q6 0 2 -4zM1353 598h60
q4 0 4 -4v-13q0 -4 -4 -4h-59v-43h67q4 0 4 -4v-13q0 -4 -4 -4h-88q-4 0 -4 4l1 134q0 4 4 4h87q4 0 4 -4v-13q0 -3 -4 -3h-68v-37zM1574 513q-4 0 -4 4l-2 111l-35 -112q-1 -3 -5 -3h-15q-3 0 -4 3l-37 115l-2 -114q0 -4 -3 -4h-16q-4 0 -4 4l5 134q0 4 4 4h25q4 0 5 -3
l35 -108l35 108q1 3 4 3h25q4 0 4 -4l5 -134q0 -4 -4 -4h-16zM1657 517q0 -4 -4 -4h-17q-4 0 -4 4l1 134q0 4 4 4h15q4 0 4 -4zM622 351q5 0 5 -5q-1 -30 -19 -49q-20 -21 -50 -21t-48 21q-19 21 -19 54q0 32 20 53q19 21 49 21q45 0 60 -40q2 -4 -3 -4l-14 -1q-3 0 -5 3
q-15 22 -40 22q-44 0 -44 -53q0 -55 47 -55q33 0 41 33h-32q-4 0 -4 4v13q0 4 4 4h52zM714 297q45 0 45 54t-46 54q-45 0 -45 -53q0 -55 46 -55zM762 298q-20 -22 -49 -22q-30 0 -49 21t-19 54q0 32 20 53t50 21q29 0 48 -20t19 -52q0 -33 -20 -55zM858 300q48 0 48 50
q0 52 -48 52h-30l1 -102h29zM859 422q70 0 70 -69q0 -73 -70 -73h-51q-3 0 -3 3v135q0 4 4 4h50zM975 364h60q4 0 4 -4v-13q0 -4 -4 -4h-59v-43h67q4 0 4 -3v-14q0 -3 -4 -3h-88q-4 0 -4 3l1 135q0 4 4 4h87q4 0 4 -4v-13q0 -4 -4 -4h-68v-37zM1093 367h59q4 0 4 -4v-13
q0 -4 -4 -4h-59l1 -63q0 -3 -4 -3h-17q-4 0 -4 3l1 135q0 4 4 4h87q4 0 4 -4v-13q0 -4 -4 -4h-68v-34zM1245 359q28 0 28 20q0 23 -28 23h-34v-43h34zM1211 339v-56q0 -3 -4 -3h-16q-4 0 -4 3v135q0 4 4 4h57q48 0 48 -41q0 -34 -36 -41l39 -56q4 -4 -2 -4h-20q-4 0 -5 2
l-38 57h-23zM1384 297q45 0 45 54t-47 54q-45 0 -45 -53q0 -55 47 -55zM1432 298q-20 -22 -50 -22q-29 0 -49 21q-19 21 -19 54q0 32 20 53t50 21t49 -20t19 -52q0 -33 -20 -55zM1510 283q0 -3 -4 -3h-16q-4 0 -4 3v135q0 4 4 4h15q4 0 4 -4zM1602 300q48 0 48 50
q0 52 -48 52h-29v-102h29zM1603 422q70 0 70 -69q0 -73 -70 -73h-50q-4 0 -4 3l1 135q0 4 3 4h50zM733 1374q59 -61 103 -126l8 -13q-9 -31 -14 -56q-12 -51 -18 -102h-79v297zM1177 1077h-183v-90h97l1 -16q0 -105 -28 -216q-21 -83 -57 -165l-6 -13q-8 41 -18 76
q-29 114 -71 197l-4 7l-4 8q-8 54 -8 106l1 16q1 45 7 90l4 30q7 39 16 76q8 30 19 65q17 52 38 100q12 28 25 53q9 18 17 35h-102q-21 -43 -39 -88l-2 -6q-37 49 -80 94h-158v-933h91v440q47 -44 83 -107l15 -27q35 -70 62 -169q10 -37 18 -77q7 -30 12 -60h143
q21 41 39 87q34 84 53 170q25 108 25 211q0 32 -3 65zM221 1301q28 0 28 23t-31 23h-41l1 -46h43zM177 1370h41q23 0 23 21q0 22 -27 22h-37v-43zM261 1292q-15 -13 -38 -13h-68q-5 0 -5 4l1 149q0 4 5 4h61q49 0 49 -43q0 -19 -12 -31q21 -12 21 -36q0 -20 -14 -34z
M431 1346q0 -71 -66 -71t-66 71v86q0 4 5 4h16q5 0 5 -4v-83q1 -51 41 -51q39 0 39 51v83q0 4 5 4h16q5 0 5 -4v-86zM525 1283q0 -4 -4 -4h-18q-5 0 -5 4l1 59l-48 89q-3 5 3 5h18q4 0 6 -3l33 -64h2l34 64q2 3 5 3h17q6 0 3 -5l-47 -89v-59zM71 1117h66q4 0 4 -4v-14
q0 -5 -4 -5h-66v-69q0 -4 -4 -4h-18q-5 0 -5 4l1 149q0 4 4 4h97q4 0 4 -4v-14q0 -5 -4 -5h-75v-38zM306 1089q1 -71 -66 -71q-66 0 -66 71l1 85q0 4 4 4h17q4 0 4 -4v-82q1 -52 41 -52q39 0 39 52l1 82q0 4 4 4h17q4 0 4 -4v-85zM440 1044q4 0 4 -4v-15q0 -4 -4 -4h-100
q-4 0 -4 4l1 149q0 4 4 4h17q4 0 4 -4l1 -130h77zM568 1044q4 0 4 -4v-15q0 -4 -4 -4h-100q-4 0 -4 4l1 149q0 4 4 4h17q4 0 4 -4l1 -130h77zM27 860h65q5 0 5 -5v-14q0 -4 -5 -4h-65v-69q0 -4 -4 -4h-19q-4 0 -4 4l1 148q0 5 4 5h97q4 0 4 -5v-14q0 -4 -4 -4h-76zM202 783
q50 0 50 59q0 60 -52 60q-50 0 -50 -58q0 -61 52 -61zM255 784q-22 -24 -55 -24t-54 23t-21 59t22 59t55 23t54 -22t21 -57q0 -37 -22 -61zM432 768q0 -4 -4 -4h-25q-3 0 -5 3l-71 123l1 -122q0 -4 -4 -4h-18q-5 0 -5 4l1 148q0 5 4 5h26q3 0 5 -3l68 -119l1 117q0 5 4 5h17
q4 0 4 -5zM574 902q0 -4 -4 -4h-45l1 -130q0 -4 -5 -4h-18q-4 0 -4 4v130h-44q-5 0 -5 4v14q0 5 5 5h115q4 0 4 -5v-14zM332 525q50 0 50 60q0 59 -51 59q-50 0 -50 -58q0 -61 51 -61zM386 527q-22 -24 -55 -24t-54 22q-22 24 -22 60q0 35 23 59q22 23 55 23q32 0 53 -22
q22 -23 22 -58q0 -36 -22 -60zM563 510q0 -4 -5 -4h-24q-4 0 -5 3l-71 124l1 -123q0 -4 -5 -4h-18q-4 0 -4 4l1 149q0 4 4 4h26q3 0 5 -3l68 -119l1 118q0 4 4 4h16q5 0 5 -4zM738 196q6 0 4 -6l-49 -181q-1 -5 -6 -5h-27q-4 0 -5 5l-37 142h-3l-36 -142q-2 -5 -6 -5h-26
q-5 0 -6 5l-50 181q-2 6 4 6h22q4 0 6 -4l36 -136h2l36 136q2 4 6 4h27q4 0 6 -4l35 -136h3l36 136q2 4 6 4h22zM798 118h80q6 0 6 -5v-18q0 -5 -6 -5h-80l1 -58h90q6 0 6 -5v-18q0 -5 -6 -5h-118q-6 0 -6 5l2 182q0 5 5 5h117q6 0 6 -5v-18q0 -5 -6 -5h-91v-50zM1011 31
q34 0 34 28q0 29 -39 29h-49v-57h54zM957 116h50q28 0 28 26q0 27 -34 27h-44v-53zM1059 21q-18 -17 -46 -17h-83q-6 0 -6 5l1 182q0 5 6 5h74q27 0 44 -15q17 -14 17 -37t-16 -39q26 -14 26 -43q0 -25 -17 -41zM1244 146h-19q-4 0 -6 4q-14 23 -44 23q-35 0 -35 -23
q0 -19 44 -32l8 -3q61 -18 61 -60q0 -55 -72 -55q-34 0 -57 18q-18 14 -24 35q-1 6 5 6h21q4 0 6 -4q14 -27 51 -27q38 0 38 23q0 21 -45 36l-9 3q-58 19 -59 55q-1 25 20 41q19 14 49 14q55 0 72 -48q2 -6 -5 -6zM1332 9q0 -5 -5 -5h-22q-6 0 -6 5l1 182q0 5 5 5h21
q5 0 5 -5zM1522 173q0 -5 -5 -5h-55l1 -159q0 -5 -5 -5h-23q-5 0 -5 5l1 159h-55q-5 0 -5 5v18q0 5 5 5h141q5 0 5 -5v-18zM1577 118h80q5 0 5 -5v-18q0 -5 -5 -5h-80v-58h91q5 0 5 -5v-18q0 -5 -5 -5h-119q-5 0 -5 5l1 182q0 5 5 5h118q5 0 5 -5v-18q0 -5 -5 -5h-92z" />
    <glyph glyph-name="copyright" unicode="&#xa9;" horiz-adv-x="5094" 
d="M4669 2128l-4137 -5v3h-333v-2832h210v-2l4156 5v-3h333v2832h-229v2zM532 1790l4033 5v-2165l-4033 -5v2165zM861 2h3375v333h-3042v750h3042v333h-3375v-1416z" />
    <glyph glyph-name="guillemotleft" unicode="&#xab;" horiz-adv-x="2281" 
d="M988 1407l-701 -499l-287 -205l287 -204l701 -499h220v252l-154 110l-480 341l480 342l154 109v253h-220zM1925 1407l-701 -499l-287 -205l287 -204l701 -499h220v252l-154 110l-480 341l480 342l154 109v253h-220z" />
    <glyph glyph-name="logicalnot" unicode="&#xac;" horiz-adv-x="3521" 
d="M0 1416v-333h3042v-1083h333v1416h-3375z" />
    <glyph glyph-name="registered" unicode="&#xae;" horiz-adv-x="4877" 
d="M4470 2116l-4137 -5v3h-333v-2832h210v-2l4156 5v-3h333v2832h-229v2zM333 1778l4033 5v-2165l-4033 -5v2165zM995 1073h2709v-208h-2709v208zM995 532h1326l1521 -542h195v284l-723 258h723v874h-3375v-1407h333v533z" />
    <glyph glyph-name="macron" unicode="&#xaf;" horiz-adv-x="1968" 
d="M0 1400h1854v333h-1854v-333z" />
    <glyph glyph-name="degree" unicode="&#xb0;" horiz-adv-x="1148" 
d="M0 1416v-877h333v2h333v-2h333v877h-999zM333 1083h333v-209h-333v209z" />
    <glyph glyph-name="plusminus" unicode="&#xb1;" horiz-adv-x="3593" 
d="M1521 1416v-541h-1521v-333h1521v-542h333v542h1521v333h-1521v541h-333zM0 -874h3375v333h-3375v-333z" />
    <glyph glyph-name="acute" unicode="&#xb4;" horiz-adv-x="1708" 
d="M1548 2022l-1548 -562v-330h85l1548 562v330h-85z" />
    <glyph glyph-name="paragraph" unicode="&#xb6;" horiz-adv-x="2102" 
d="M0 1416v-708h666v-708h333v1062h333v-1062h333v1062h333v354h-1998z" />
    <glyph glyph-name="periodcentered" unicode="&#xb7;" horiz-adv-x="522" 
d="M0 538h333v333h-333v-333z" />
    <glyph glyph-name="cedilla" unicode="&#xb8;" horiz-adv-x="1945" 
d="M0 262v-708h1521v-208h-1521v-333h1854v874h-1521v375h-333z" />
    <glyph glyph-name="guillemotright" unicode="&#xbb;" horiz-adv-x="2239" 
d="M937 1407v-253l154 -109l480 -342l-480 -341l-154 -110v-252h220l701 499l287 204l-287 205l-701 499h-220zM0 1407v-253l154 -109l480 -342l-480 -341l-154 -110v-252h220l701 499l287 204l-287 205l-701 499h-220z" />
    <glyph glyph-name="questiondown" unicode="&#xbf;" horiz-adv-x="3539" 
d="M0 874v-874h3375v333h-3042v208h1521v333h-1854zM1854 1416h-333v-333h333v333z" />
    <glyph glyph-name="Agrave" unicode="&#xc0;" 
d="M172 1416v-1416h333v541h2709v-541h333v1416h-3375zM505 1083h2709v-209h-2709v209zM1043 2560v-323l1548 -551h85v323l-1548 551h-85z" />
    <glyph glyph-name="Aacute" unicode="&#xc1;" 
d="M172 1416v-1416h333v541h2709v-541h333v1416h-3375zM505 1083h2709v-209h-2709v209zM2591 2560l-1548 -551v-323h85l1548 551v323h-85z" />
    <glyph glyph-name="Acircumflex" unicode="&#xc2;" 
d="M172 1416v-1416h333v541h2709v-541h333v1416h-3375zM505 1083h2709v-209h-2709v209zM1808 2560l-843 -569v-305h144l750 507l751 -507h145l-1 305l-844 569h-102z" />
    <glyph glyph-name="Atilde" unicode="&#xc3;" 
d="M172 1416v-1416h333v541h2709v-541h333v1416h-3375zM505 1083h2709v-209h-2709v209zM2551 2560l-360 -443l-360 443h-159l-628 -774v-100h348l360 444l359 -444h159l628 774v100h-347z" />
    <glyph glyph-name="Adieresis" unicode="&#xc4;" 
d="M172 1416v-1416h333v541h2709v-541h333v1416h-3375zM505 1083h2709v-209h-2709v209zM933 1957h333v333h-333v-333zM2454 1957h333v333h-333v-333z" />
    <glyph glyph-name="Aring" unicode="&#xc5;" 
d="M172 1416v-1416h333v541h2709v-541h333v1416h-3375zM505 1083h2709v-209h-2709v209zM933 1686h1854v874h-1854v-874zM1266 2228h1188v-209h-1188v209z" />
    <glyph glyph-name="AE" unicode="&#xc6;" horiz-adv-x="6590" 
d="M172 1416v-1416h333v541h2709v-541h3209v333h-2876v208h2876v333h-2876v209h2876v333h-6251zM505 1083h2709v-209h-2709v209z" />
    <glyph glyph-name="Ccedilla" unicode="&#xc7;" horiz-adv-x="3655" 
d="M1255 592q28 0 28 21q0 22 -28 22h-34l1 -43h33zM1222 572v-55q0 -4 -4 -4h-17q-4 0 -4 4l1 134q0 4 4 4h56q48 0 48 -41q0 -33 -36 -41l40 -55q3 -5 -3 -5h-20q-3 0 -5 2l-37 57h-23zM1383 671q-2 -3 -5 -3h-6q-6 0 -3 5l13 24q1 2 4 2h14q6 0 2 -4zM1353 598h60
q4 0 4 -4v-13q0 -4 -4 -4h-59v-43h67q4 0 4 -4v-13q0 -4 -4 -4h-88q-4 0 -4 4l1 134q0 4 4 4h87q4 0 4 -4v-13q0 -3 -4 -3h-68v-37zM1574 513q-4 0 -4 4l-2 111l-35 -112q-1 -3 -5 -3h-15q-3 0 -4 3l-37 115l-2 -114q0 -4 -3 -4h-16q-4 0 -4 4l5 134q0 4 4 4h25q4 0 5 -3
l35 -108l35 108q1 3 4 3h25q4 0 4 -4l5 -134q0 -4 -4 -4h-16zM1657 517q0 -4 -4 -4h-17q-4 0 -4 4l1 134q0 4 4 4h15q4 0 4 -4zM622 351q5 0 5 -5q-1 -30 -19 -49q-20 -21 -50 -21t-48 21q-19 21 -19 54q0 32 20 53q19 21 49 21q45 0 60 -40q2 -4 -3 -4l-14 -1q-3 0 -5 3
q-15 22 -40 22q-44 0 -44 -53q0 -55 47 -55q33 0 41 33h-32q-4 0 -4 4v13q0 4 4 4h52zM714 297q45 0 45 54t-46 54q-45 0 -45 -53q0 -55 46 -55zM762 298q-20 -22 -49 -22q-30 0 -49 21t-19 54q0 32 20 53t50 21q29 0 48 -20t19 -52q0 -33 -20 -55zM858 300q48 0 48 50
q0 52 -48 52h-30l1 -102h29zM859 422q70 0 70 -69q0 -73 -70 -73h-51q-3 0 -3 3v135q0 4 4 4h50zM975 364h60q4 0 4 -4v-13q0 -4 -4 -4h-59v-43h67q4 0 4 -3v-14q0 -3 -4 -3h-88q-4 0 -4 3l1 135q0 4 4 4h87q4 0 4 -4v-13q0 -4 -4 -4h-68v-37zM1093 367h59q4 0 4 -4v-13
q0 -4 -4 -4h-59l1 -63q0 -3 -4 -3h-17q-4 0 -4 3l1 135q0 4 4 4h87q4 0 4 -4v-13q0 -4 -4 -4h-68v-34zM1245 359q28 0 28 20q0 23 -28 23h-34v-43h34zM1211 339v-56q0 -3 -4 -3h-16q-4 0 -4 3v135q0 4 4 4h57q48 0 48 -41q0 -34 -36 -41l39 -56q4 -4 -2 -4h-20q-4 0 -5 2
l-38 57h-23zM1384 297q45 0 45 54t-47 54q-45 0 -45 -53q0 -55 47 -55zM1432 298q-20 -22 -50 -22q-29 0 -49 21q-19 21 -19 54q0 32 20 53t50 21t49 -20t19 -52q0 -33 -20 -55zM1510 283q0 -3 -4 -3h-16q-4 0 -4 3v135q0 4 4 4h15q4 0 4 -4zM1602 300q48 0 48 50
q0 52 -48 52h-29v-102h29zM1603 422q70 0 70 -69q0 -73 -70 -73h-50q-4 0 -4 3l1 135q0 4 3 4h50zM733 1374q59 -61 103 -126l8 -13q-9 -31 -14 -56q-12 -51 -18 -102h-79v297zM1177 1077h-183v-90h97l1 -16q0 -105 -28 -216q-21 -83 -57 -165l-6 -13q-8 41 -18 76
q-29 114 -71 197l-4 7l-4 8q-8 54 -8 106l1 16q1 45 7 90l4 30q7 39 16 76q8 30 19 65q17 52 38 100q12 28 25 53q9 18 17 35h-102q-21 -43 -39 -88l-2 -6q-37 49 -80 94h-158v-933h91v440q47 -44 83 -107l15 -27q35 -70 62 -169q10 -37 18 -77q7 -30 12 -60h143
q21 41 39 87q34 84 53 170q25 108 25 211q0 32 -3 65zM221 1301q28 0 28 23t-31 23h-41l1 -46h43zM177 1370h41q23 0 23 21q0 22 -27 22h-37v-43zM261 1292q-15 -13 -38 -13h-68q-5 0 -5 4l1 149q0 4 5 4h61q49 0 49 -43q0 -19 -12 -31q21 -12 21 -36q0 -20 -14 -34z
M431 1346q0 -71 -66 -71t-66 71v86q0 4 5 4h16q5 0 5 -4v-83q1 -51 41 -51q39 0 39 51v83q0 4 5 4h16q5 0 5 -4v-86zM525 1283q0 -4 -4 -4h-18q-5 0 -5 4l1 59l-48 89q-3 5 3 5h18q4 0 6 -3l33 -64h2l34 64q2 3 5 3h17q6 0 3 -5l-47 -89v-59zM71 1117h66q4 0 4 -4v-14
q0 -5 -4 -5h-66v-69q0 -4 -4 -4h-18q-5 0 -5 4l1 149q0 4 4 4h97q4 0 4 -4v-14q0 -5 -4 -5h-75v-38zM306 1089q1 -71 -66 -71q-66 0 -66 71l1 85q0 4 4 4h17q4 0 4 -4v-82q1 -52 41 -52q39 0 39 52l1 82q0 4 4 4h17q4 0 4 -4v-85zM440 1044q4 0 4 -4v-15q0 -4 -4 -4h-100
q-4 0 -4 4l1 149q0 4 4 4h17q4 0 4 -4l1 -130h77zM568 1044q4 0 4 -4v-15q0 -4 -4 -4h-100q-4 0 -4 4l1 149q0 4 4 4h17q4 0 4 -4l1 -130h77zM27 860h65q5 0 5 -5v-14q0 -4 -5 -4h-65v-69q0 -4 -4 -4h-19q-4 0 -4 4l1 148q0 5 4 5h97q4 0 4 -5v-14q0 -4 -4 -4h-76zM202 783
q50 0 50 59q0 60 -52 60q-50 0 -50 -58q0 -61 52 -61zM255 784q-22 -24 -55 -24t-54 23t-21 59t22 59t55 23t54 -22t21 -57q0 -37 -22 -61zM432 768q0 -4 -4 -4h-25q-3 0 -5 3l-71 123l1 -122q0 -4 -4 -4h-18q-5 0 -5 4l1 148q0 5 4 5h26q3 0 5 -3l68 -119l1 117q0 5 4 5h17
q4 0 4 -5zM574 902q0 -4 -4 -4h-45l1 -130q0 -4 -5 -4h-18q-4 0 -4 4v130h-44q-5 0 -5 4v14q0 5 5 5h115q4 0 4 -5v-14zM332 525q50 0 50 60q0 59 -51 59q-50 0 -50 -58q0 -61 51 -61zM386 527q-22 -24 -55 -24t-54 22q-22 24 -22 60q0 35 23 59q22 23 55 23q32 0 53 -22
q22 -23 22 -58q0 -36 -22 -60zM563 510q0 -4 -5 -4h-24q-4 0 -5 3l-71 124l1 -123q0 -4 -5 -4h-18q-4 0 -4 4l1 149q0 4 4 4h26q3 0 5 -3l68 -119l1 118q0 4 4 4h16q5 0 5 -4zM738 196q6 0 4 -6l-49 -181q-1 -5 -6 -5h-27q-4 0 -5 5l-37 142h-3l-36 -142q-2 -5 -6 -5h-26
q-5 0 -6 5l-50 181q-2 6 4 6h22q4 0 6 -4l36 -136h2l36 136q2 4 6 4h27q4 0 6 -4l35 -136h3l36 136q2 4 6 4h22zM798 118h80q6 0 6 -5v-18q0 -5 -6 -5h-80l1 -58h90q6 0 6 -5v-18q0 -5 -6 -5h-118q-6 0 -6 5l2 182q0 5 5 5h117q6 0 6 -5v-18q0 -5 -6 -5h-91v-50zM1011 31
q34 0 34 28q0 29 -39 29h-49v-57h54zM957 116h50q28 0 28 26q0 27 -34 27h-44v-53zM1059 21q-18 -17 -46 -17h-83q-6 0 -6 5l1 182q0 5 6 5h74q27 0 44 -15q17 -14 17 -37t-16 -39q26 -14 26 -43q0 -25 -17 -41zM1244 146h-19q-4 0 -6 4q-14 23 -44 23q-35 0 -35 -23
q0 -19 44 -32l8 -3q61 -18 61 -60q0 -55 -72 -55q-34 0 -57 18q-18 14 -24 35q-1 6 5 6h21q4 0 6 -4q14 -27 51 -27q38 0 38 23q0 21 -45 36l-9 3q-58 19 -59 55q-1 25 20 41q19 14 49 14q55 0 72 -48q2 -6 -5 -6zM1332 9q0 -5 -5 -5h-22q-6 0 -6 5l1 182q0 5 5 5h21
q5 0 5 -5zM1522 173q0 -5 -5 -5h-55l1 -159q0 -5 -5 -5h-23q-5 0 -5 5l1 159h-55q-5 0 -5 5v18q0 5 5 5h141q5 0 5 -5v-18zM1577 118h80q5 0 5 -5v-18q0 -5 -5 -5h-80v-58h91q5 0 5 -5v-18q0 -5 -5 -5h-119q-5 0 -5 5l1 182q0 5 5 5h118q5 0 5 -5v-18q0 -5 -5 -5h-92z" />
    <glyph glyph-name="Egrave" unicode="&#xc8;" horiz-adv-x="3548" 
d="M172 1416v-1416h3209v333h-2876v208h2876v333h-2876v209h2876v333h-3209zM960 2560v-324l1548 -551h85v324l-1548 551h-85z" />
    <glyph glyph-name="Eacute" unicode="&#xc9;" horiz-adv-x="3548" 
d="M172 1416v-1416h3209v333h-2876v208h2876v333h-2876v209h2876v333h-3209zM2508 2560l-1548 -551v-324h85l1548 551v324h-85z" />
    <glyph glyph-name="Ecircumflex" unicode="&#xca;" horiz-adv-x="3548" 
d="M172 1416v-1416h3209v333h-2876v208h2876v333h-2876v209h2876v333h-3209zM1725 2560l-844 -569v-305h145l750 507l751 -507h144v305l-844 569h-102z" />
    <glyph glyph-name="Edieresis" unicode="&#xcb;" horiz-adv-x="3548" 
d="M172 1416v-1416h3209v333h-2876v208h2876v333h-2876v209h2876v333h-3209zM849 1957h333v333h-333v-333zM2370 1957h333v333h-333v-333z" />
    <glyph glyph-name="Igrave" unicode="&#xcc;" horiz-adv-x="789" 
d="M221 0h333v1416h-333v-1416zM-429 2541v-324l1548 -550h85v323l-1548 551h-85z" />
    <glyph glyph-name="Iacute" unicode="&#xcd;" horiz-adv-x="824" 
d="M279 0h333v1416h-333v-1416zM1177 2560l-1548 -551v-323h85l1548 551v323h-85z" />
    <glyph glyph-name="Icircumflex" unicode="&#xce;" horiz-adv-x="1393" 
d="M637 0h333v1416h-333v-1416zM752 2560l-844 -569v-305h144l751 507l750 -507h145v305l-844 569h-102z" />
    <glyph glyph-name="Idieresis" unicode="&#xcf;" horiz-adv-x="815" 
d="M1255 592q28 0 28 21q0 22 -28 22h-34l1 -43h33zM1222 572v-55q0 -4 -4 -4h-17q-4 0 -4 4l1 134q0 4 4 4h56q48 0 48 -41q0 -33 -36 -41l40 -55q3 -5 -3 -5h-20q-3 0 -5 2l-37 57h-23zM1383 671q-2 -3 -5 -3h-6q-6 0 -3 5l13 24q1 2 4 2h14q6 0 2 -4zM1353 598h60
q4 0 4 -4v-13q0 -4 -4 -4h-59v-43h67q4 0 4 -4v-13q0 -4 -4 -4h-88q-4 0 -4 4l1 134q0 4 4 4h87q4 0 4 -4v-13q0 -3 -4 -3h-68v-37zM1574 513q-4 0 -4 4l-2 111l-35 -112q-1 -3 -5 -3h-15q-3 0 -4 3l-37 115l-2 -114q0 -4 -3 -4h-16q-4 0 -4 4l5 134q0 4 4 4h25q4 0 5 -3
l35 -108l35 108q1 3 4 3h25q4 0 4 -4l5 -134q0 -4 -4 -4h-16zM1657 517q0 -4 -4 -4h-17q-4 0 -4 4l1 134q0 4 4 4h15q4 0 4 -4zM622 351q5 0 5 -5q-1 -30 -19 -49q-20 -21 -50 -21t-48 21q-19 21 -19 54q0 32 20 53q19 21 49 21q45 0 60 -40q2 -4 -3 -4l-14 -1q-3 0 -5 3
q-15 22 -40 22q-44 0 -44 -53q0 -55 47 -55q33 0 41 33h-32q-4 0 -4 4v13q0 4 4 4h52zM714 297q45 0 45 54t-46 54q-45 0 -45 -53q0 -55 46 -55zM762 298q-20 -22 -49 -22q-30 0 -49 21t-19 54q0 32 20 53t50 21q29 0 48 -20t19 -52q0 -33 -20 -55zM858 300q48 0 48 50
q0 52 -48 52h-30l1 -102h29zM859 422q70 0 70 -69q0 -73 -70 -73h-51q-3 0 -3 3v135q0 4 4 4h50zM975 364h60q4 0 4 -4v-13q0 -4 -4 -4h-59v-43h67q4 0 4 -3v-14q0 -3 -4 -3h-88q-4 0 -4 3l1 135q0 4 4 4h87q4 0 4 -4v-13q0 -4 -4 -4h-68v-37zM1093 367h59q4 0 4 -4v-13
q0 -4 -4 -4h-59l1 -63q0 -3 -4 -3h-17q-4 0 -4 3l1 135q0 4 4 4h87q4 0 4 -4v-13q0 -4 -4 -4h-68v-34zM1245 359q28 0 28 20q0 23 -28 23h-34v-43h34zM1211 339v-56q0 -3 -4 -3h-16q-4 0 -4 3v135q0 4 4 4h57q48 0 48 -41q0 -34 -36 -41l39 -56q4 -4 -2 -4h-20q-4 0 -5 2
l-38 57h-23zM1384 297q45 0 45 54t-47 54q-45 0 -45 -53q0 -55 47 -55zM1432 298q-20 -22 -50 -22q-29 0 -49 21q-19 21 -19 54q0 32 20 53t50 21t49 -20t19 -52q0 -33 -20 -55zM1510 283q0 -3 -4 -3h-16q-4 0 -4 3v135q0 4 4 4h15q4 0 4 -4zM1602 300q48 0 48 50
q0 52 -48 52h-29v-102h29zM1603 422q70 0 70 -69q0 -73 -70 -73h-50q-4 0 -4 3l1 135q0 4 3 4h50zM733 1374q59 -61 103 -126l8 -13q-9 -31 -14 -56q-12 -51 -18 -102h-79v297zM1177 1077h-183v-90h97l1 -16q0 -105 -28 -216q-21 -83 -57 -165l-6 -13q-8 41 -18 76
q-29 114 -71 197l-4 7l-4 8q-8 54 -8 106l1 16q1 45 7 90l4 30q7 39 16 76q8 30 19 65q17 52 38 100q12 28 25 53q9 18 17 35h-102q-21 -43 -39 -88l-2 -6q-37 49 -80 94h-158v-933h91v440q47 -44 83 -107l15 -27q35 -70 62 -169q10 -37 18 -77q7 -30 12 -60h143
q21 41 39 87q34 84 53 170q25 108 25 211q0 32 -3 65zM221 1301q28 0 28 23t-31 23h-41l1 -46h43zM177 1370h41q23 0 23 21q0 22 -27 22h-37v-43zM261 1292q-15 -13 -38 -13h-68q-5 0 -5 4l1 149q0 4 5 4h61q49 0 49 -43q0 -19 -12 -31q21 -12 21 -36q0 -20 -14 -34z
M431 1346q0 -71 -66 -71t-66 71v86q0 4 5 4h16q5 0 5 -4v-83q1 -51 41 -51q39 0 39 51v83q0 4 5 4h16q5 0 5 -4v-86zM525 1283q0 -4 -4 -4h-18q-5 0 -5 4l1 59l-48 89q-3 5 3 5h18q4 0 6 -3l33 -64h2l34 64q2 3 5 3h17q6 0 3 -5l-47 -89v-59zM71 1117h66q4 0 4 -4v-14
q0 -5 -4 -5h-66v-69q0 -4 -4 -4h-18q-5 0 -5 4l1 149q0 4 4 4h97q4 0 4 -4v-14q0 -5 -4 -5h-75v-38zM306 1089q1 -71 -66 -71q-66 0 -66 71l1 85q0 4 4 4h17q4 0 4 -4v-82q1 -52 41 -52q39 0 39 52l1 82q0 4 4 4h17q4 0 4 -4v-85zM440 1044q4 0 4 -4v-15q0 -4 -4 -4h-100
q-4 0 -4 4l1 149q0 4 4 4h17q4 0 4 -4l1 -130h77zM568 1044q4 0 4 -4v-15q0 -4 -4 -4h-100q-4 0 -4 4l1 149q0 4 4 4h17q4 0 4 -4l1 -130h77zM27 860h65q5 0 5 -5v-14q0 -4 -5 -4h-65v-69q0 -4 -4 -4h-19q-4 0 -4 4l1 148q0 5 4 5h97q4 0 4 -5v-14q0 -4 -4 -4h-76zM202 783
q50 0 50 59q0 60 -52 60q-50 0 -50 -58q0 -61 52 -61zM255 784q-22 -24 -55 -24t-54 23t-21 59t22 59t55 23t54 -22t21 -57q0 -37 -22 -61zM432 768q0 -4 -4 -4h-25q-3 0 -5 3l-71 123l1 -122q0 -4 -4 -4h-18q-5 0 -5 4l1 148q0 5 4 5h26q3 0 5 -3l68 -119l1 117q0 5 4 5h17
q4 0 4 -5zM574 902q0 -4 -4 -4h-45l1 -130q0 -4 -5 -4h-18q-4 0 -4 4v130h-44q-5 0 -5 4v14q0 5 5 5h115q4 0 4 -5v-14zM332 525q50 0 50 60q0 59 -51 59q-50 0 -50 -58q0 -61 51 -61zM386 527q-22 -24 -55 -24t-54 22q-22 24 -22 60q0 35 23 59q22 23 55 23q32 0 53 -22
q22 -23 22 -58q0 -36 -22 -60zM563 510q0 -4 -5 -4h-24q-4 0 -5 3l-71 124l1 -123q0 -4 -5 -4h-18q-4 0 -4 4l1 149q0 4 4 4h26q3 0 5 -3l68 -119l1 118q0 4 4 4h16q5 0 5 -4zM738 196q6 0 4 -6l-49 -181q-1 -5 -6 -5h-27q-4 0 -5 5l-37 142h-3l-36 -142q-2 -5 -6 -5h-26
q-5 0 -6 5l-50 181q-2 6 4 6h22q4 0 6 -4l36 -136h2l36 136q2 4 6 4h27q4 0 6 -4l35 -136h3l36 136q2 4 6 4h22zM798 118h80q6 0 6 -5v-18q0 -5 -6 -5h-80l1 -58h90q6 0 6 -5v-18q0 -5 -6 -5h-118q-6 0 -6 5l2 182q0 5 5 5h117q6 0 6 -5v-18q0 -5 -6 -5h-91v-50zM1011 31
q34 0 34 28q0 29 -39 29h-49v-57h54zM957 116h50q28 0 28 26q0 27 -34 27h-44v-53zM1059 21q-18 -17 -46 -17h-83q-6 0 -6 5l1 182q0 5 6 5h74q27 0 44 -15q17 -14 17 -37t-16 -39q26 -14 26 -43q0 -25 -17 -41zM1244 146h-19q-4 0 -6 4q-14 23 -44 23q-35 0 -35 -23
q0 -19 44 -32l8 -3q61 -18 61 -60q0 -55 -72 -55q-34 0 -57 18q-18 14 -24 35q-1 6 5 6h21q4 0 6 -4q14 -27 51 -27q38 0 38 23q0 21 -45 36l-9 3q-58 19 -59 55q-1 25 20 41q19 14 49 14q55 0 72 -48q2 -6 -5 -6zM1332 9q0 -5 -5 -5h-22q-6 0 -6 5l1 182q0 5 5 5h21
q5 0 5 -5zM1522 173q0 -5 -5 -5h-55l1 -159q0 -5 -5 -5h-23q-5 0 -5 5l1 159h-55q-5 0 -5 5v18q0 5 5 5h141q5 0 5 -5v-18zM1577 118h80q5 0 5 -5v-18q0 -5 -5 -5h-80v-58h91q5 0 5 -5v-18q0 -5 -5 -5h-119q-5 0 -5 5l1 182q0 5 5 5h118q5 0 5 -5v-18q0 -5 -5 -5h-92z" />
    <glyph glyph-name="Eth" unicode="&#xd0;" horiz-adv-x="3839" 
d="M334 1416v-542h-333v-333h333v-541h3375v825l-1659 591h-1716zM667 1083h1326l1383 -493v-257h-2709v208h1188v333h-1188v209z" />
    <glyph glyph-name="Ntilde" unicode="&#xd1;" 
d="M3214 1416v-1014l-2847 1014h-195v-1416h333v1013l2847 -1013h195v1416h-333zM2439 2560l-360 -443l-360 443h-158l-628 -774v-100h347l360 444l360 -444h159l628 774v100h-348z" />
    <glyph glyph-name="Ograve" unicode="&#xd2;" 
d="M172 0h3375v1416h-3375v-1416zM505 1083h2709v-750h-2709v750zM1043 2560v-323l1548 -551h85v323l-1548 551h-85z" />
    <glyph glyph-name="Oacute" unicode="&#xd3;" 
d="M172 0h3375v1416h-3375v-1416zM505 1083h2709v-750h-2709v750zM2591 2560l-1548 -551v-323h85l1548 551v323h-85z" />
    <glyph glyph-name="Ocircumflex" unicode="&#xd4;" 
d="M172 0h3375v1416h-3375v-1416zM505 1083h2709v-750h-2709v750zM1808 2560l-843 -569v-305h144l750 507l751 -507h145l-1 305l-844 569h-102z" />
    <glyph glyph-name="Otilde" unicode="&#xd5;" 
d="M172 0h3375v1416h-3375v-1416zM505 1083h2709v-750h-2709v750zM2439 2560l-360 -443l-360 443h-158l-628 -774v-100h347l360 444l360 -444h159l628 774v100h-348z" />
    <glyph glyph-name="Odieresis" unicode="&#xd6;" 
d="M172 0h3375v1416h-3375v-1416zM505 1083h2709v-750h-2709v750zM987 1957h333v333h-333v-333zM2509 1957h333v333h-333v-333z" />
    <glyph glyph-name="multiply" unicode="&#xd7;" horiz-adv-x="3491" 
d="M3180 1416l-1492 -532l-1493 532h-195v-284l1191 -424l-1191 -424v-284h195l1493 531l1492 -531h195v284l-1191 424l1191 424v284h-195z" />
    <glyph glyph-name="Oslash" unicode="&#xd8;" 
d="M172 0h3375v1416h-3375v-1416zM505 1083h1911l-1911 -681v681zM3214 1013v-680h-1911z" />
    <glyph glyph-name="Ugrave" unicode="&#xd9;" 
d="M3214 1416v-1083h-2709v1083h-333v-1416h3375v1416h-333zM1043 2569v-323l1548 -551h85v323l-1548 551h-85z" />
    <glyph glyph-name="Uacute" unicode="&#xda;" 
d="M3214 1416v-1083h-2709v1083h-333v-1416h3375v1416h-333zM2591 2569l-1548 -562v-330h85l1548 562v330h-85z" />
    <glyph glyph-name="Ucircumflex" unicode="&#xdb;" 
d="M3214 1416v-1083h-2709v1083h-333v-1416h3375v1416h-333zM1808 2560l-843 -569v-305h144l750 507l751 -507h145l-1 305l-844 569h-102z" />
    <glyph glyph-name="Udieresis" unicode="&#xdc;" 
d="M3214 1416v-1083h-2709v1083h-333v-1416h3375v1416h-333zM933 1961h333v333h-333v-333zM2454 1961h333v333h-333v-333z" />
    <glyph glyph-name="Yacute" unicode="&#xdd;" horiz-adv-x="3508" 
d="M3248 1416l-1492 -532l-1493 532h-139v-304l1135 -404l-1135 -404v-304h139l3236 1151v265h-251zM2543 2569l-1548 -562v-330h85l1548 562v330h-85z" />
    <glyph glyph-name="Thorn" unicode="&#xde;" horiz-adv-x="3651" 
d="M146 1143v-1416h333v271h3042v874h-3042v271h-333zM479 539h2709v-208h-2709v208z" />
    <glyph glyph-name="germandbls" unicode="&#xdf;" horiz-adv-x="3628" 
d="M1811 1426l-1688 -601v-659h333v424l1355 482l556 -198h-556v-333h1354v-208h-1354v-333h1687v825z" />
    <glyph glyph-name="agrave" unicode="&#xe0;" horiz-adv-x="3616" 
d="M1778 883v-333h1354v-209h-3042v-874h3375v1416h-1687zM423 8h2709v-208h-2709v208zM1832 2027v-323l1548 -551h85v323l-1548 551h-85z" />
    <glyph glyph-name="aacute" unicode="&#xe1;" horiz-adv-x="3616" 
d="M1778 865v-333h1354v-209h-3042v-874h3375v1416h-1687zM423 -10h2709v-208h-2709v208zM3381 2018l-1549 -562v-330h85l1548 562v330h-84z" />
    <glyph glyph-name="acircumflex" unicode="&#xe2;" horiz-adv-x="3616" 
d="M1778 883v-333h1354v-209h-3042v-874h3375v1416h-1687zM423 8h2709v-208h-2709v208zM2519 2027l-844 -569v-305h144l751 507l751 -507h144v305l-844 569h-102z" />
    <glyph glyph-name="atilde" unicode="&#xe3;" horiz-adv-x="3616" 
d="M1778 883v-333h1354v-209h-3042v-874h3375v1416h-1687zM423 8h2709v-208h-2709v208zM3118 2027l-360 -443l-360 443h-159l-628 -774v-100h348l360 444l359 -444h159l628 774v100h-347z" />
    <glyph glyph-name="adieresis" unicode="&#xe4;" horiz-adv-x="3616" 
d="M1778 879v-333h1354v-209h-3042v-874h3375v1416h-1687zM423 4h2709v-208h-2709v208zM1611 1420h333v333h-333v-333zM3132 1420h333v333h-333v-333z" />
    <glyph glyph-name="aring" unicode="&#xe5;" horiz-adv-x="3616" 
d="M1778 884v-333h1354v-209h-3042v-874h3375v1416h-1687zM423 9h2709v-208h-2709v208zM1611 1154h1854v874h-1854v-874zM1944 1696h1188v-209h-1188v209z" />
    <glyph glyph-name="ae" unicode="&#xe6;" horiz-adv-x="6638" 
d="M1778 872v-333h1354v-209h-3042v-874h4730v333h-1355v208h3043v875h-4730zM3465 539h2710v-209h-2710v209zM423 -3h2709v-208h-2709v208z" />
    <glyph glyph-name="ccedilla" unicode="&#xe7;" horiz-adv-x="3640" 
d="M135 874v-875h1521v-454h1521v-208h-1521v-333h1854v874h-1521v121h1521v333h-3042v209h3042v333h-3375z" />
    <glyph glyph-name="egrave" unicode="&#xe8;" horiz-adv-x="3650" 
d="M145 874v-1416h1688v333h-1355v208h3042v875h-3375zM478 541h2709v-209h-2709v209zM1016 1988v-323l1548 -551h85v323l-1548 551h-85z" />
    <glyph glyph-name="eacute" unicode="&#xe9;" horiz-adv-x="3650" 
d="M145 874v-1416h1688v333h-1355v208h3042v875h-3375zM478 541h2709v-209h-2709v209zM2564 1997l-1548 -562v-330h85l1548 562v330h-85z" />
    <glyph glyph-name="ecircumflex" unicode="&#xea;" horiz-adv-x="3650" 
d="M145 874v-1416h1688v333h-1355v208h3042v875h-3375zM478 541h2709v-209h-2709v209zM1781 2018l-843 -569v-305h144l750 507l751 -507h145l-1 305l-844 569h-102z" />
    <glyph glyph-name="edieresis" unicode="&#xeb;" horiz-adv-x="3650" 
d="M145 876v-1416h1688v333h-1355v208h3042v875h-3375zM478 543h2709v-209h-2709v209zM906 1417h333v333h-333v-333zM2427 1417h333v333h-333v-333z" />
    <glyph glyph-name="igrave" unicode="&#xec;" horiz-adv-x="1220" 
d="M335 0h333v874h-333v-874zM-315 2009v-323l1548 -551h85v323l-1548 551h-85z" />
    <glyph glyph-name="iacute" unicode="&#xed;" horiz-adv-x="1219" 
d="M706 0h333v874h-333v-874zM1604 2018l-1548 -562v-330h85l1548 562v330h-85z" />
    <glyph glyph-name="icircumflex" unicode="&#xee;" horiz-adv-x="1838" 
d="M781 0h333v874h-333v-874zM896 1976l-844 -569v-305h144l751 507l750 -507h145v305l-844 569h-102z" />
    <glyph glyph-name="idieresis" unicode="&#xef;" horiz-adv-x="1071" 
d="M513 0h333v874h-333v-874zM-248 1405h333v333h-333v-333zM1273 1405h333v333h-333v-333z" />
    <glyph glyph-name="eth" unicode="&#xf0;" horiz-adv-x="3950" 
d="M1989 1249v-333h1188v-42h-3042v-874h3375v916h333v333h-1854zM468 541h2709v-208h-2709v208z" />
    <glyph glyph-name="ntilde" unicode="&#xf1;" horiz-adv-x="3640" 
d="M135 874v-874h333v541h2709v-541h333v874h-3375zM2402 2009l-360 -444l-360 444h-158l-628 -774v-100h347l360 443l360 -443h159l628 774v100h-348z" />
    <glyph glyph-name="ograve" unicode="&#xf2;" horiz-adv-x="3640" 
d="M135 0h3375v874h-3375v-874zM468 541h2709v-208h-2709v208zM1006 2009v-323l1548 -551h85v323l-1548 551h-85z" />
    <glyph glyph-name="oacute" unicode="&#xf3;" horiz-adv-x="3640" 
d="M135 0h3375v874h-3375v-874zM468 541h2709v-208h-2709v208zM2554 2018l-1548 -562v-330h85l1548 562v330h-85z" />
    <glyph glyph-name="ocircumflex" unicode="&#xf4;" horiz-adv-x="3640" 
d="M135 0h3375v874h-3375v-874zM468 541h2709v-208h-2709v208zM1771 2009l-843 -570v-304h144l750 507l751 -507h145l-1 304l-844 570h-102z" />
    <glyph glyph-name="otilde" unicode="&#xf5;" horiz-adv-x="3640" 
d="M135 0h3375v874h-3375v-874zM468 541h2709v-208h-2709v208zM2402 2009l-360 -444l-360 444h-158l-628 -774v-100h347l360 443l360 -443h159l628 774v100h-348z" />
    <glyph glyph-name="odieresis" unicode="&#xf6;" horiz-adv-x="3640" 
d="M135 0h3375v874h-3375v-874zM468 541h2709v-208h-2709v208zM896 1405h333v333h-333v-333zM2417 1405h333v333h-333v-333z" />
    <glyph glyph-name="divide" unicode="&#xf7;" horiz-adv-x="563" 
d="M0 1083h333v333h-333v-333zM0 0h333v333h-333v-333z" />
    <glyph glyph-name="oslash" unicode="&#xf8;" horiz-adv-x="3640" 
d="M135 0h3375v874h-3375v-874zM2612 541h565v-208h-1151zM468 541h1151l-586 -208h-565v208z" />
    <glyph glyph-name="ugrave" unicode="&#xf9;" horiz-adv-x="3640" 
d="M3177 874v-541h-2709v541h-333v-874h3375v874h-333zM1006 2015v-324l1548 -550h85v323l-1548 551h-85z" />
    <glyph glyph-name="uacute" unicode="&#xfa;" horiz-adv-x="3640" 
d="M3177 874v-541h-2709v541h-333v-874h3375v874h-333zM2554 2024l-1548 -563v-329h85l1548 562v330h-85z" />
    <glyph glyph-name="ucircumflex" unicode="&#xfb;" horiz-adv-x="3640" 
d="M3177 874v-541h-2709v541h-333v-874h3375v874h-333zM1771 2015l-843 -570v-304h144l750 506l751 -506h145l-1 304l-844 570h-102z" />
    <glyph glyph-name="udieresis" unicode="&#xfc;" horiz-adv-x="3640" 
d="M3177 874v-541h-2709v541h-333v-874h3375v874h-333zM896 1411h333v333h-333v-333zM2417 1411h333v333h-333v-333z" />
    <glyph glyph-name="yacute" unicode="&#xfd;" horiz-adv-x="3661" 
d="M3177 880v-541h-2709v541h-333v-874h3042v-208h-1354v-333h1687v1415h-333zM2554 2034l-1548 -562v-330h85l1548 562v330h-85z" />
    <glyph glyph-name="thorn" unicode="&#xfe;" horiz-adv-x="3649" 
d="M144 1148v-1416h333v271h3042v874h-3042v271h-333zM477 544h2709v-208h-2709v208z" />
    <glyph glyph-name="ydieresis" unicode="&#xff;" horiz-adv-x="3661" 
d="M3177 874v-541h-2709v541h-333v-874h3042v-208h-1354v-333h1687v1415h-333zM896 1416h333v333h-333v-333zM2417 1416h333v333h-333v-333z" />
    <glyph glyph-name="Amacron" unicode="&#x100;" 
d="M172 1416v-1416h333v541h2709v-541h333v1416h-3375zM505 1083h2709v-209h-2709v209zM933 1686h1854v333h-1854v-333z" />
    <glyph glyph-name="amacron" unicode="&#x101;" horiz-adv-x="3616" 
d="M1778 871v-333h1354v-209h-3042v-874h3375v1416h-1687zM423 -4h2709v-208h-2709v208zM1611 1412h1854v333h-1854v-333z" />
    <glyph glyph-name="Abreve" unicode="&#x102;" 
d="M172 1416v-1416h333v541h2709v-541h333v1416h-3375zM505 1083h2709v-209h-2709v209zM2454 2560v-541h-1188v541h-333v-874h1854v874h-333z" />
    <glyph glyph-name="abreve" unicode="&#x103;" horiz-adv-x="3616" 
d="M1778 883v-333h1354v-209h-3042v-874h3375v1416h-1687zM423 8h2709v-208h-2709v208zM3132 2027v-541h-1188v541h-333v-874h1854v874h-333z" />
    <glyph glyph-name="Aogonek" unicode="&#x104;" 
d="M1255 592q28 0 28 21q0 22 -28 22h-34l1 -43h33zM1222 572v-55q0 -4 -4 -4h-17q-4 0 -4 4l1 134q0 4 4 4h56q48 0 48 -41q0 -33 -36 -41l40 -55q3 -5 -3 -5h-20q-3 0 -5 2l-37 57h-23zM1383 671q-2 -3 -5 -3h-6q-6 0 -3 5l13 24q1 2 4 2h14q6 0 2 -4zM1353 598h60
q4 0 4 -4v-13q0 -4 -4 -4h-59v-43h67q4 0 4 -4v-13q0 -4 -4 -4h-88q-4 0 -4 4l1 134q0 4 4 4h87q4 0 4 -4v-13q0 -3 -4 -3h-68v-37zM1574 513q-4 0 -4 4l-2 111l-35 -112q-1 -3 -5 -3h-15q-3 0 -4 3l-37 115l-2 -114q0 -4 -3 -4h-16q-4 0 -4 4l5 134q0 4 4 4h25q4 0 5 -3
l35 -108l35 108q1 3 4 3h25q4 0 4 -4l5 -134q0 -4 -4 -4h-16zM1657 517q0 -4 -4 -4h-17q-4 0 -4 4l1 134q0 4 4 4h15q4 0 4 -4zM622 351q5 0 5 -5q-1 -30 -19 -49q-20 -21 -50 -21t-48 21q-19 21 -19 54q0 32 20 53q19 21 49 21q45 0 60 -40q2 -4 -3 -4l-14 -1q-3 0 -5 3
q-15 22 -40 22q-44 0 -44 -53q0 -55 47 -55q33 0 41 33h-32q-4 0 -4 4v13q0 4 4 4h52zM714 297q45 0 45 54t-46 54q-45 0 -45 -53q0 -55 46 -55zM762 298q-20 -22 -49 -22q-30 0 -49 21t-19 54q0 32 20 53t50 21q29 0 48 -20t19 -52q0 -33 -20 -55zM858 300q48 0 48 50
q0 52 -48 52h-30l1 -102h29zM859 422q70 0 70 -69q0 -73 -70 -73h-51q-3 0 -3 3v135q0 4 4 4h50zM975 364h60q4 0 4 -4v-13q0 -4 -4 -4h-59v-43h67q4 0 4 -3v-14q0 -3 -4 -3h-88q-4 0 -4 3l1 135q0 4 4 4h87q4 0 4 -4v-13q0 -4 -4 -4h-68v-37zM1093 367h59q4 0 4 -4v-13
q0 -4 -4 -4h-59l1 -63q0 -3 -4 -3h-17q-4 0 -4 3l1 135q0 4 4 4h87q4 0 4 -4v-13q0 -4 -4 -4h-68v-34zM1245 359q28 0 28 20q0 23 -28 23h-34v-43h34zM1211 339v-56q0 -3 -4 -3h-16q-4 0 -4 3v135q0 4 4 4h57q48 0 48 -41q0 -34 -36 -41l39 -56q4 -4 -2 -4h-20q-4 0 -5 2
l-38 57h-23zM1384 297q45 0 45 54t-47 54q-45 0 -45 -53q0 -55 47 -55zM1432 298q-20 -22 -50 -22q-29 0 -49 21q-19 21 -19 54q0 32 20 53t50 21t49 -20t19 -52q0 -33 -20 -55zM1510 283q0 -3 -4 -3h-16q-4 0 -4 3v135q0 4 4 4h15q4 0 4 -4zM1602 300q48 0 48 50
q0 52 -48 52h-29v-102h29zM1603 422q70 0 70 -69q0 -73 -70 -73h-50q-4 0 -4 3l1 135q0 4 3 4h50zM733 1374q59 -61 103 -126l8 -13q-9 -31 -14 -56q-12 -51 -18 -102h-79v297zM1177 1077h-183v-90h97l1 -16q0 -105 -28 -216q-21 -83 -57 -165l-6 -13q-8 41 -18 76
q-29 114 -71 197l-4 7l-4 8q-8 54 -8 106l1 16q1 45 7 90l4 30q7 39 16 76q8 30 19 65q17 52 38 100q12 28 25 53q9 18 17 35h-102q-21 -43 -39 -88l-2 -6q-37 49 -80 94h-158v-933h91v440q47 -44 83 -107l15 -27q35 -70 62 -169q10 -37 18 -77q7 -30 12 -60h143
q21 41 39 87q34 84 53 170q25 108 25 211q0 32 -3 65zM221 1301q28 0 28 23t-31 23h-41l1 -46h43zM177 1370h41q23 0 23 21q0 22 -27 22h-37v-43zM261 1292q-15 -13 -38 -13h-68q-5 0 -5 4l1 149q0 4 5 4h61q49 0 49 -43q0 -19 -12 -31q21 -12 21 -36q0 -20 -14 -34z
M431 1346q0 -71 -66 -71t-66 71v86q0 4 5 4h16q5 0 5 -4v-83q1 -51 41 -51q39 0 39 51v83q0 4 5 4h16q5 0 5 -4v-86zM525 1283q0 -4 -4 -4h-18q-5 0 -5 4l1 59l-48 89q-3 5 3 5h18q4 0 6 -3l33 -64h2l34 64q2 3 5 3h17q6 0 3 -5l-47 -89v-59zM71 1117h66q4 0 4 -4v-14
q0 -5 -4 -5h-66v-69q0 -4 -4 -4h-18q-5 0 -5 4l1 149q0 4 4 4h97q4 0 4 -4v-14q0 -5 -4 -5h-75v-38zM306 1089q1 -71 -66 -71q-66 0 -66 71l1 85q0 4 4 4h17q4 0 4 -4v-82q1 -52 41 -52q39 0 39 52l1 82q0 4 4 4h17q4 0 4 -4v-85zM440 1044q4 0 4 -4v-15q0 -4 -4 -4h-100
q-4 0 -4 4l1 149q0 4 4 4h17q4 0 4 -4l1 -130h77zM568 1044q4 0 4 -4v-15q0 -4 -4 -4h-100q-4 0 -4 4l1 149q0 4 4 4h17q4 0 4 -4l1 -130h77zM27 860h65q5 0 5 -5v-14q0 -4 -5 -4h-65v-69q0 -4 -4 -4h-19q-4 0 -4 4l1 148q0 5 4 5h97q4 0 4 -5v-14q0 -4 -4 -4h-76zM202 783
q50 0 50 59q0 60 -52 60q-50 0 -50 -58q0 -61 52 -61zM255 784q-22 -24 -55 -24t-54 23t-21 59t22 59t55 23t54 -22t21 -57q0 -37 -22 -61zM432 768q0 -4 -4 -4h-25q-3 0 -5 3l-71 123l1 -122q0 -4 -4 -4h-18q-5 0 -5 4l1 148q0 5 4 5h26q3 0 5 -3l68 -119l1 117q0 5 4 5h17
q4 0 4 -5zM574 902q0 -4 -4 -4h-45l1 -130q0 -4 -5 -4h-18q-4 0 -4 4v130h-44q-5 0 -5 4v14q0 5 5 5h115q4 0 4 -5v-14zM332 525q50 0 50 60q0 59 -51 59q-50 0 -50 -58q0 -61 51 -61zM386 527q-22 -24 -55 -24t-54 22q-22 24 -22 60q0 35 23 59q22 23 55 23q32 0 53 -22
q22 -23 22 -58q0 -36 -22 -60zM563 510q0 -4 -5 -4h-24q-4 0 -5 3l-71 124l1 -123q0 -4 -5 -4h-18q-4 0 -4 4l1 149q0 4 4 4h26q3 0 5 -3l68 -119l1 118q0 4 4 4h16q5 0 5 -4zM738 196q6 0 4 -6l-49 -181q-1 -5 -6 -5h-27q-4 0 -5 5l-37 142h-3l-36 -142q-2 -5 -6 -5h-26
q-5 0 -6 5l-50 181q-2 6 4 6h22q4 0 6 -4l36 -136h2l36 136q2 4 6 4h27q4 0 6 -4l35 -136h3l36 136q2 4 6 4h22zM798 118h80q6 0 6 -5v-18q0 -5 -6 -5h-80l1 -58h90q6 0 6 -5v-18q0 -5 -6 -5h-118q-6 0 -6 5l2 182q0 5 5 5h117q6 0 6 -5v-18q0 -5 -6 -5h-91v-50zM1011 31
q34 0 34 28q0 29 -39 29h-49v-57h54zM957 116h50q28 0 28 26q0 27 -34 27h-44v-53zM1059 21q-18 -17 -46 -17h-83q-6 0 -6 5l1 182q0 5 6 5h74q27 0 44 -15q17 -14 17 -37t-16 -39q26 -14 26 -43q0 -25 -17 -41zM1244 146h-19q-4 0 -6 4q-14 23 -44 23q-35 0 -35 -23
q0 -19 44 -32l8 -3q61 -18 61 -60q0 -55 -72 -55q-34 0 -57 18q-18 14 -24 35q-1 6 5 6h21q4 0 6 -4q14 -27 51 -27q38 0 38 23q0 21 -45 36l-9 3q-58 19 -59 55q-1 25 20 41q19 14 49 14q55 0 72 -48q2 -6 -5 -6zM1332 9q0 -5 -5 -5h-22q-6 0 -6 5l1 182q0 5 5 5h21
q5 0 5 -5zM1522 173q0 -5 -5 -5h-55l1 -159q0 -5 -5 -5h-23q-5 0 -5 5l1 159h-55q-5 0 -5 5v18q0 5 5 5h141q5 0 5 -5v-18zM1577 118h80q5 0 5 -5v-18q0 -5 -5 -5h-80v-58h91q5 0 5 -5v-18q0 -5 -5 -5h-119q-5 0 -5 5l1 182q0 5 5 5h118q5 0 5 -5v-18q0 -5 -5 -5h-92z" />
    <glyph glyph-name="aogonek" unicode="&#x105;" horiz-adv-x="3616" 
d="M1778 875v-333h1354v-208h-3042v-875h1521v-541h1854v333h-1521v208h1521v1416h-1687zM423 1h2709v-209h-2709v209z" />
    <glyph glyph-name="Cacute" unicode="&#x106;" horiz-adv-x="3655" 
d="M172 1416v-1416h3375v333h-3042v750h3042v333h-3375zM2591 2560l-1548 -551v-323h85l1548 551v323h-85z" />
    <glyph glyph-name="cacute" unicode="&#x107;" horiz-adv-x="3640" 
d="M135 874v-874h3375v333h-3042v208h3042v333h-3375zM2554 2028l-1548 -562v-330h85l1548 562v330h-85z" />
    <glyph glyph-name="Ccircumflex" unicode="&#x108;" horiz-adv-x="3655" 
d="M172 1416v-1416h3375v333h-3042v750h3042v333h-3375zM1808 2560l-843 -569v-305h144l750 507l751 -507h145l-1 305l-844 569h-102z" />
    <glyph glyph-name="ccircumflex" unicode="&#x109;" horiz-adv-x="3640" 
d="M135 874v-874h3375v333h-3042v208h3042v333h-3375zM1771 2019l-843 -570v-304h144l750 507l751 -507h145l-1 304l-844 570h-102z" />
    <glyph glyph-name="Cdotaccent" unicode="&#x10a;" horiz-adv-x="3655" 
d="M172 1416v-1416h3375v333h-3042v750h3042v333h-3375zM1693 1957h333v333h-333v-333z" />
    <glyph glyph-name="cdotaccent" unicode="&#x10b;" horiz-adv-x="3640" 
d="M135 874v-874h3375v333h-3042v208h3042v333h-3375zM1656 1416h333v333h-333v-333z" />
    <glyph glyph-name="Ccaron" unicode="&#x10c;" horiz-adv-x="3655" 
d="M172 1416v-1416h3375v333h-3042v750h3042v333h-3375zM2610 2560l-750 -506l-751 506h-144v-304l844 -570h102l844 570v304h-145z" />
    <glyph glyph-name="ccaron" unicode="&#x10d;" horiz-adv-x="3640" 
d="M1255 592q28 0 28 21q0 22 -28 22h-34l1 -43h33zM1222 572v-55q0 -4 -4 -4h-17q-4 0 -4 4l1 134q0 4 4 4h56q48 0 48 -41q0 -33 -36 -41l40 -55q3 -5 -3 -5h-20q-3 0 -5 2l-37 57h-23zM1383 671q-2 -3 -5 -3h-6q-6 0 -3 5l13 24q1 2 4 2h14q6 0 2 -4zM1353 598h60
q4 0 4 -4v-13q0 -4 -4 -4h-59v-43h67q4 0 4 -4v-13q0 -4 -4 -4h-88q-4 0 -4 4l1 134q0 4 4 4h87q4 0 4 -4v-13q0 -3 -4 -3h-68v-37zM1574 513q-4 0 -4 4l-2 111l-35 -112q-1 -3 -5 -3h-15q-3 0 -4 3l-37 115l-2 -114q0 -4 -3 -4h-16q-4 0 -4 4l5 134q0 4 4 4h25q4 0 5 -3
l35 -108l35 108q1 3 4 3h25q4 0 4 -4l5 -134q0 -4 -4 -4h-16zM1657 517q0 -4 -4 -4h-17q-4 0 -4 4l1 134q0 4 4 4h15q4 0 4 -4zM622 351q5 0 5 -5q-1 -30 -19 -49q-20 -21 -50 -21t-48 21q-19 21 -19 54q0 32 20 53q19 21 49 21q45 0 60 -40q2 -4 -3 -4l-14 -1q-3 0 -5 3
q-15 22 -40 22q-44 0 -44 -53q0 -55 47 -55q33 0 41 33h-32q-4 0 -4 4v13q0 4 4 4h52zM714 297q45 0 45 54t-46 54q-45 0 -45 -53q0 -55 46 -55zM762 298q-20 -22 -49 -22q-30 0 -49 21t-19 54q0 32 20 53t50 21q29 0 48 -20t19 -52q0 -33 -20 -55zM858 300q48 0 48 50
q0 52 -48 52h-30l1 -102h29zM859 422q70 0 70 -69q0 -73 -70 -73h-51q-3 0 -3 3v135q0 4 4 4h50zM975 364h60q4 0 4 -4v-13q0 -4 -4 -4h-59v-43h67q4 0 4 -3v-14q0 -3 -4 -3h-88q-4 0 -4 3l1 135q0 4 4 4h87q4 0 4 -4v-13q0 -4 -4 -4h-68v-37zM1093 367h59q4 0 4 -4v-13
q0 -4 -4 -4h-59l1 -63q0 -3 -4 -3h-17q-4 0 -4 3l1 135q0 4 4 4h87q4 0 4 -4v-13q0 -4 -4 -4h-68v-34zM1245 359q28 0 28 20q0 23 -28 23h-34v-43h34zM1211 339v-56q0 -3 -4 -3h-16q-4 0 -4 3v135q0 4 4 4h57q48 0 48 -41q0 -34 -36 -41l39 -56q4 -4 -2 -4h-20q-4 0 -5 2
l-38 57h-23zM1384 297q45 0 45 54t-47 54q-45 0 -45 -53q0 -55 47 -55zM1432 298q-20 -22 -50 -22q-29 0 -49 21q-19 21 -19 54q0 32 20 53t50 21t49 -20t19 -52q0 -33 -20 -55zM1510 283q0 -3 -4 -3h-16q-4 0 -4 3v135q0 4 4 4h15q4 0 4 -4zM1602 300q48 0 48 50
q0 52 -48 52h-29v-102h29zM1603 422q70 0 70 -69q0 -73 -70 -73h-50q-4 0 -4 3l1 135q0 4 3 4h50zM733 1374q59 -61 103 -126l8 -13q-9 -31 -14 -56q-12 -51 -18 -102h-79v297zM1177 1077h-183v-90h97l1 -16q0 -105 -28 -216q-21 -83 -57 -165l-6 -13q-8 41 -18 76
q-29 114 -71 197l-4 7l-4 8q-8 54 -8 106l1 16q1 45 7 90l4 30q7 39 16 76q8 30 19 65q17 52 38 100q12 28 25 53q9 18 17 35h-102q-21 -43 -39 -88l-2 -6q-37 49 -80 94h-158v-933h91v440q47 -44 83 -107l15 -27q35 -70 62 -169q10 -37 18 -77q7 -30 12 -60h143
q21 41 39 87q34 84 53 170q25 108 25 211q0 32 -3 65zM221 1301q28 0 28 23t-31 23h-41l1 -46h43zM177 1370h41q23 0 23 21q0 22 -27 22h-37v-43zM261 1292q-15 -13 -38 -13h-68q-5 0 -5 4l1 149q0 4 5 4h61q49 0 49 -43q0 -19 -12 -31q21 -12 21 -36q0 -20 -14 -34z
M431 1346q0 -71 -66 -71t-66 71v86q0 4 5 4h16q5 0 5 -4v-83q1 -51 41 -51q39 0 39 51v83q0 4 5 4h16q5 0 5 -4v-86zM525 1283q0 -4 -4 -4h-18q-5 0 -5 4l1 59l-48 89q-3 5 3 5h18q4 0 6 -3l33 -64h2l34 64q2 3 5 3h17q6 0 3 -5l-47 -89v-59zM71 1117h66q4 0 4 -4v-14
q0 -5 -4 -5h-66v-69q0 -4 -4 -4h-18q-5 0 -5 4l1 149q0 4 4 4h97q4 0 4 -4v-14q0 -5 -4 -5h-75v-38zM306 1089q1 -71 -66 -71q-66 0 -66 71l1 85q0 4 4 4h17q4 0 4 -4v-82q1 -52 41 -52q39 0 39 52l1 82q0 4 4 4h17q4 0 4 -4v-85zM440 1044q4 0 4 -4v-15q0 -4 -4 -4h-100
q-4 0 -4 4l1 149q0 4 4 4h17q4 0 4 -4l1 -130h77zM568 1044q4 0 4 -4v-15q0 -4 -4 -4h-100q-4 0 -4 4l1 149q0 4 4 4h17q4 0 4 -4l1 -130h77zM27 860h65q5 0 5 -5v-14q0 -4 -5 -4h-65v-69q0 -4 -4 -4h-19q-4 0 -4 4l1 148q0 5 4 5h97q4 0 4 -5v-14q0 -4 -4 -4h-76zM202 783
q50 0 50 59q0 60 -52 60q-50 0 -50 -58q0 -61 52 -61zM255 784q-22 -24 -55 -24t-54 23t-21 59t22 59t55 23t54 -22t21 -57q0 -37 -22 -61zM432 768q0 -4 -4 -4h-25q-3 0 -5 3l-71 123l1 -122q0 -4 -4 -4h-18q-5 0 -5 4l1 148q0 5 4 5h26q3 0 5 -3l68 -119l1 117q0 5 4 5h17
q4 0 4 -5zM574 902q0 -4 -4 -4h-45l1 -130q0 -4 -5 -4h-18q-4 0 -4 4v130h-44q-5 0 -5 4v14q0 5 5 5h115q4 0 4 -5v-14zM332 525q50 0 50 60q0 59 -51 59q-50 0 -50 -58q0 -61 51 -61zM386 527q-22 -24 -55 -24t-54 22q-22 24 -22 60q0 35 23 59q22 23 55 23q32 0 53 -22
q22 -23 22 -58q0 -36 -22 -60zM563 510q0 -4 -5 -4h-24q-4 0 -5 3l-71 124l1 -123q0 -4 -5 -4h-18q-4 0 -4 4l1 149q0 4 4 4h26q3 0 5 -3l68 -119l1 118q0 4 4 4h16q5 0 5 -4zM738 196q6 0 4 -6l-49 -181q-1 -5 -6 -5h-27q-4 0 -5 5l-37 142h-3l-36 -142q-2 -5 -6 -5h-26
q-5 0 -6 5l-50 181q-2 6 4 6h22q4 0 6 -4l36 -136h2l36 136q2 4 6 4h27q4 0 6 -4l35 -136h3l36 136q2 4 6 4h22zM798 118h80q6 0 6 -5v-18q0 -5 -6 -5h-80l1 -58h90q6 0 6 -5v-18q0 -5 -6 -5h-118q-6 0 -6 5l2 182q0 5 5 5h117q6 0 6 -5v-18q0 -5 -6 -5h-91v-50zM1011 31
q34 0 34 28q0 29 -39 29h-49v-57h54zM957 116h50q28 0 28 26q0 27 -34 27h-44v-53zM1059 21q-18 -17 -46 -17h-83q-6 0 -6 5l1 182q0 5 6 5h74q27 0 44 -15q17 -14 17 -37t-16 -39q26 -14 26 -43q0 -25 -17 -41zM1244 146h-19q-4 0 -6 4q-14 23 -44 23q-35 0 -35 -23
q0 -19 44 -32l8 -3q61 -18 61 -60q0 -55 -72 -55q-34 0 -57 18q-18 14 -24 35q-1 6 5 6h21q4 0 6 -4q14 -27 51 -27q38 0 38 23q0 21 -45 36l-9 3q-58 19 -59 55q-1 25 20 41q19 14 49 14q55 0 72 -48q2 -6 -5 -6zM1332 9q0 -5 -5 -5h-22q-6 0 -6 5l1 182q0 5 5 5h21
q5 0 5 -5zM1522 173q0 -5 -5 -5h-55l1 -159q0 -5 -5 -5h-23q-5 0 -5 5l1 159h-55q-5 0 -5 5v18q0 5 5 5h141q5 0 5 -5v-18zM1577 118h80q5 0 5 -5v-18q0 -5 -5 -5h-80v-58h91q5 0 5 -5v-18q0 -5 -5 -5h-119q-5 0 -5 5l1 182q0 5 5 5h118q5 0 5 -5v-18q0 -5 -5 -5h-92z" />
    <glyph glyph-name="Dcaron" unicode="&#x10e;" horiz-adv-x="3677" 
d="M172 1416v-1416h3375v825l-1659 591h-1716zM505 1083h1326l1383 -493v-257h-2709v750zM2610 2560l-750 -506l-751 506h-144v-304l844 -570h102l844 570v304h-145z" />
    <glyph glyph-name="dcaron" unicode="&#x10f;" horiz-adv-x="4194" 
d="M3789 1249v-455l-279 -199v654h-333v-375h-3042v-874h3375v375h264l348 247v627h-333zM468 541h2709v-208h-2709v208z" />
    <glyph glyph-name="Dcroat" unicode="&#x110;" horiz-adv-x="4136" 
d="M631 1416v-542h-594v-333h594v-541h3375v825l-1659 591h-1716zM964 1083h1326l1383 -493v-257h-2709v208h927v333h-927v209z" />
    <glyph glyph-name="dcroat" unicode="&#x111;" horiz-adv-x="3817" 
d="M1989 1249v-333h1188v-42h-3042v-874h3375v916h333v333h-1854zM468 541h2709v-208h-2709v208z" />
    <glyph glyph-name="Emacron" unicode="&#x112;" horiz-adv-x="3548" 
d="M172 1416v-1416h3209v333h-2876v208h2876v333h-2876v209h2876v333h-3209zM849 1957h1854v333h-1854v-333z" />
    <glyph glyph-name="emacron" unicode="&#x113;" horiz-adv-x="3646" 
d="M141 883v-1416h1688v333h-1355v208h3042v875h-3375zM474 550h2709v-209h-2709v209zM902 1424h1854v333h-1854v-333z" />
    <glyph glyph-name="Ebreve" unicode="&#x114;" horiz-adv-x="3548" 
d="M172 1416v-1416h3209v333h-2876v208h2876v333h-2876v209h2876v333h-3209zM2370 2560v-541h-1188v541h-333v-874h1854v874h-333z" />
    <glyph glyph-name="ebreve" unicode="&#x115;" horiz-adv-x="3650" 
d="M145 877v-1416h1688v333h-1355v208h3042v875h-3375zM478 544h2709v-209h-2709v209zM2427 1991v-541h-1188v541h-333v-874h1854v874h-333z" />
    <glyph glyph-name="Eogonek" unicode="&#x118;" horiz-adv-x="3532" 
d="M172 1422v-1416h1342v-541h1854v333h-1521v208h1534v333h-2876v209h2876v333h-2876v208h2876v333h-3209z" />
    <glyph glyph-name="eogonek" unicode="&#x119;" horiz-adv-x="3650" 
d="M145 876v-1415h761v-539h1854v333h-1521v206h594v2h927v333h-1854v-2h-428v208h3042v874h-3375zM478 543h2709v-208h-2709v208z" />
    <glyph glyph-name="Ecaron" unicode="&#x11a;" horiz-adv-x="3548" 
d="M172 1416v-1416h3209v333h-2876v208h2876v333h-2876v209h2876v333h-3209zM2527 2560l-750 -506l-751 506h-145l1 -304l844 -570h102l843 570v304h-144z" />
    <glyph glyph-name="ecaron" unicode="&#x11b;" horiz-adv-x="3650" 
d="M145 880v-1416h1688v333h-1355v208h3042v875h-3375zM478 547h2709v-209h-2709v209zM2583 1994l-750 -507l-751 507h-144v-304l844 -570h102l844 570v304h-145z" />
    <glyph glyph-name="Gcircumflex" unicode="&#x11c;" 
d="M172 1416v-1416h3375v874h-1687v-333h1354v-208h-2709v750h3042v333h-3375zM1808 2560l-843 -569v-305h144l750 507l751 -507h145l-1 305l-844 569h-102z" />
    <glyph glyph-name="gcircumflex" unicode="&#x11d;" horiz-adv-x="3672" 
d="M135 874v-875h3053v-208h-1360v-333h1693v1416h-3386zM468 541h2720v-209h-2720v209zM1777 2018l-844 -569v-305h144l751 507l750 -507h145l-1 305l-843 569h-102z" />
    <glyph glyph-name="Gbreve" unicode="&#x11e;" 
d="M1255 592q28 0 28 21q0 22 -28 22h-34l1 -43h33zM1222 572v-55q0 -4 -4 -4h-17q-4 0 -4 4l1 134q0 4 4 4h56q48 0 48 -41q0 -33 -36 -41l40 -55q3 -5 -3 -5h-20q-3 0 -5 2l-37 57h-23zM1383 671q-2 -3 -5 -3h-6q-6 0 -3 5l13 24q1 2 4 2h14q6 0 2 -4zM1353 598h60
q4 0 4 -4v-13q0 -4 -4 -4h-59v-43h67q4 0 4 -4v-13q0 -4 -4 -4h-88q-4 0 -4 4l1 134q0 4 4 4h87q4 0 4 -4v-13q0 -3 -4 -3h-68v-37zM1574 513q-4 0 -4 4l-2 111l-35 -112q-1 -3 -5 -3h-15q-3 0 -4 3l-37 115l-2 -114q0 -4 -3 -4h-16q-4 0 -4 4l5 134q0 4 4 4h25q4 0 5 -3
l35 -108l35 108q1 3 4 3h25q4 0 4 -4l5 -134q0 -4 -4 -4h-16zM1657 517q0 -4 -4 -4h-17q-4 0 -4 4l1 134q0 4 4 4h15q4 0 4 -4zM622 351q5 0 5 -5q-1 -30 -19 -49q-20 -21 -50 -21t-48 21q-19 21 -19 54q0 32 20 53q19 21 49 21q45 0 60 -40q2 -4 -3 -4l-14 -1q-3 0 -5 3
q-15 22 -40 22q-44 0 -44 -53q0 -55 47 -55q33 0 41 33h-32q-4 0 -4 4v13q0 4 4 4h52zM714 297q45 0 45 54t-46 54q-45 0 -45 -53q0 -55 46 -55zM762 298q-20 -22 -49 -22q-30 0 -49 21t-19 54q0 32 20 53t50 21q29 0 48 -20t19 -52q0 -33 -20 -55zM858 300q48 0 48 50
q0 52 -48 52h-30l1 -102h29zM859 422q70 0 70 -69q0 -73 -70 -73h-51q-3 0 -3 3v135q0 4 4 4h50zM975 364h60q4 0 4 -4v-13q0 -4 -4 -4h-59v-43h67q4 0 4 -3v-14q0 -3 -4 -3h-88q-4 0 -4 3l1 135q0 4 4 4h87q4 0 4 -4v-13q0 -4 -4 -4h-68v-37zM1093 367h59q4 0 4 -4v-13
q0 -4 -4 -4h-59l1 -63q0 -3 -4 -3h-17q-4 0 -4 3l1 135q0 4 4 4h87q4 0 4 -4v-13q0 -4 -4 -4h-68v-34zM1245 359q28 0 28 20q0 23 -28 23h-34v-43h34zM1211 339v-56q0 -3 -4 -3h-16q-4 0 -4 3v135q0 4 4 4h57q48 0 48 -41q0 -34 -36 -41l39 -56q4 -4 -2 -4h-20q-4 0 -5 2
l-38 57h-23zM1384 297q45 0 45 54t-47 54q-45 0 -45 -53q0 -55 47 -55zM1432 298q-20 -22 -50 -22q-29 0 -49 21q-19 21 -19 54q0 32 20 53t50 21t49 -20t19 -52q0 -33 -20 -55zM1510 283q0 -3 -4 -3h-16q-4 0 -4 3v135q0 4 4 4h15q4 0 4 -4zM1602 300q48 0 48 50
q0 52 -48 52h-29v-102h29zM1603 422q70 0 70 -69q0 -73 -70 -73h-50q-4 0 -4 3l1 135q0 4 3 4h50zM733 1374q59 -61 103 -126l8 -13q-9 -31 -14 -56q-12 -51 -18 -102h-79v297zM1177 1077h-183v-90h97l1 -16q0 -105 -28 -216q-21 -83 -57 -165l-6 -13q-8 41 -18 76
q-29 114 -71 197l-4 7l-4 8q-8 54 -8 106l1 16q1 45 7 90l4 30q7 39 16 76q8 30 19 65q17 52 38 100q12 28 25 53q9 18 17 35h-102q-21 -43 -39 -88l-2 -6q-37 49 -80 94h-158v-933h91v440q47 -44 83 -107l15 -27q35 -70 62 -169q10 -37 18 -77q7 -30 12 -60h143
q21 41 39 87q34 84 53 170q25 108 25 211q0 32 -3 65zM221 1301q28 0 28 23t-31 23h-41l1 -46h43zM177 1370h41q23 0 23 21q0 22 -27 22h-37v-43zM261 1292q-15 -13 -38 -13h-68q-5 0 -5 4l1 149q0 4 5 4h61q49 0 49 -43q0 -19 -12 -31q21 -12 21 -36q0 -20 -14 -34z
M431 1346q0 -71 -66 -71t-66 71v86q0 4 5 4h16q5 0 5 -4v-83q1 -51 41 -51q39 0 39 51v83q0 4 5 4h16q5 0 5 -4v-86zM525 1283q0 -4 -4 -4h-18q-5 0 -5 4l1 59l-48 89q-3 5 3 5h18q4 0 6 -3l33 -64h2l34 64q2 3 5 3h17q6 0 3 -5l-47 -89v-59zM71 1117h66q4 0 4 -4v-14
q0 -5 -4 -5h-66v-69q0 -4 -4 -4h-18q-5 0 -5 4l1 149q0 4 4 4h97q4 0 4 -4v-14q0 -5 -4 -5h-75v-38zM306 1089q1 -71 -66 -71q-66 0 -66 71l1 85q0 4 4 4h17q4 0 4 -4v-82q1 -52 41 -52q39 0 39 52l1 82q0 4 4 4h17q4 0 4 -4v-85zM440 1044q4 0 4 -4v-15q0 -4 -4 -4h-100
q-4 0 -4 4l1 149q0 4 4 4h17q4 0 4 -4l1 -130h77zM568 1044q4 0 4 -4v-15q0 -4 -4 -4h-100q-4 0 -4 4l1 149q0 4 4 4h17q4 0 4 -4l1 -130h77zM27 860h65q5 0 5 -5v-14q0 -4 -5 -4h-65v-69q0 -4 -4 -4h-19q-4 0 -4 4l1 148q0 5 4 5h97q4 0 4 -5v-14q0 -4 -4 -4h-76zM202 783
q50 0 50 59q0 60 -52 60q-50 0 -50 -58q0 -61 52 -61zM255 784q-22 -24 -55 -24t-54 23t-21 59t22 59t55 23t54 -22t21 -57q0 -37 -22 -61zM432 768q0 -4 -4 -4h-25q-3 0 -5 3l-71 123l1 -122q0 -4 -4 -4h-18q-5 0 -5 4l1 148q0 5 4 5h26q3 0 5 -3l68 -119l1 117q0 5 4 5h17
q4 0 4 -5zM574 902q0 -4 -4 -4h-45l1 -130q0 -4 -5 -4h-18q-4 0 -4 4v130h-44q-5 0 -5 4v14q0 5 5 5h115q4 0 4 -5v-14zM332 525q50 0 50 60q0 59 -51 59q-50 0 -50 -58q0 -61 51 -61zM386 527q-22 -24 -55 -24t-54 22q-22 24 -22 60q0 35 23 59q22 23 55 23q32 0 53 -22
q22 -23 22 -58q0 -36 -22 -60zM563 510q0 -4 -5 -4h-24q-4 0 -5 3l-71 124l1 -123q0 -4 -5 -4h-18q-4 0 -4 4l1 149q0 4 4 4h26q3 0 5 -3l68 -119l1 118q0 4 4 4h16q5 0 5 -4zM738 196q6 0 4 -6l-49 -181q-1 -5 -6 -5h-27q-4 0 -5 5l-37 142h-3l-36 -142q-2 -5 -6 -5h-26
q-5 0 -6 5l-50 181q-2 6 4 6h22q4 0 6 -4l36 -136h2l36 136q2 4 6 4h27q4 0 6 -4l35 -136h3l36 136q2 4 6 4h22zM798 118h80q6 0 6 -5v-18q0 -5 -6 -5h-80l1 -58h90q6 0 6 -5v-18q0 -5 -6 -5h-118q-6 0 -6 5l2 182q0 5 5 5h117q6 0 6 -5v-18q0 -5 -6 -5h-91v-50zM1011 31
q34 0 34 28q0 29 -39 29h-49v-57h54zM957 116h50q28 0 28 26q0 27 -34 27h-44v-53zM1059 21q-18 -17 -46 -17h-83q-6 0 -6 5l1 182q0 5 6 5h74q27 0 44 -15q17 -14 17 -37t-16 -39q26 -14 26 -43q0 -25 -17 -41zM1244 146h-19q-4 0 -6 4q-14 23 -44 23q-35 0 -35 -23
q0 -19 44 -32l8 -3q61 -18 61 -60q0 -55 -72 -55q-34 0 -57 18q-18 14 -24 35q-1 6 5 6h21q4 0 6 -4q14 -27 51 -27q38 0 38 23q0 21 -45 36l-9 3q-58 19 -59 55q-1 25 20 41q19 14 49 14q55 0 72 -48q2 -6 -5 -6zM1332 9q0 -5 -5 -5h-22q-6 0 -6 5l1 182q0 5 5 5h21
q5 0 5 -5zM1522 173q0 -5 -5 -5h-55l1 -159q0 -5 -5 -5h-23q-5 0 -5 5l1 159h-55q-5 0 -5 5v18q0 5 5 5h141q5 0 5 -5v-18zM1577 118h80q5 0 5 -5v-18q0 -5 -5 -5h-80v-58h91q5 0 5 -5v-18q0 -5 -5 -5h-119q-5 0 -5 5l1 182q0 5 5 5h118q5 0 5 -5v-18q0 -5 -5 -5h-92z" />
    <glyph glyph-name="gbreve" unicode="&#x11f;" horiz-adv-x="3672" 
d="M135 874v-875h3053v-208h-1360v-333h1693v1416h-3386zM468 541h2720v-209h-2720v209zM2422 2018v-541h-1188v541h-333v-874h1854v874h-333z" />
    <glyph glyph-name="Gdotaccent" unicode="&#x120;" 
d="M172 1416v-1416h3375v874h-1687v-333h1354v-208h-2709v750h3042v333h-3375zM1693 1957h333v333h-333v-333z" />
    <glyph glyph-name="gdotaccent" unicode="&#x121;" horiz-adv-x="3672" 
d="M135 874v-875h3053v-208h-1360v-333h1693v1416h-3386zM468 541h2720v-209h-2720v209zM1661 1415h333v333h-333v-333z" />
    <glyph glyph-name="uni0122" unicode="&#x122;" 
d="M172 1418v-1415h3375v874h-1687v-333h1354v-208h-2709v749h3042v333h-3375zM1693 -539v-455l-588 -419h574l347 247v627h-333z" />
    <glyph glyph-name="uni0123" unicode="&#x123;" horiz-adv-x="3672" 
d="M135 874v-875h3053v-208h-1360v-333h1693v1416h-3386zM468 541h2720v-209h-2720v209zM2009 2289l-348 -247v-627h333v455l589 419h-574z" />
    <glyph glyph-name="Hcircumflex" unicode="&#x124;" 
d="M3214 1416v-542h-2709v542h-333v-1416h333v541h2709v-541h333v1416h-333zM1808 2560l-843 -569v-305h144l750 507l751 -507h145l-1 305l-844 569h-102z" />
    <glyph glyph-name="hcircumflex" unicode="&#x125;" horiz-adv-x="3649" 
d="M144 1249v-1249h333v541h2709v-541h333v874h-3042v375h-333zM1780 2019l-843 -570v-304h144l750 507l751 -507h145l-1 304l-844 570h-102z" />
    <glyph glyph-name="Hbar" unicode="&#x126;" horiz-adv-x="4748" 
d="M3722 1416v-172h-2709v172h-333v-172h-594v-333h594v-911h333v541h2709v-541h333v911h594v333h-594v172h-333zM1013 911h2709v-37h-2709v37z" />
    <glyph glyph-name="hbar" unicode="&#x127;" horiz-adv-x="3820" 
d="M30 1249v-333h333v-916h333v541h2709v-541h333v874h-3042v42h1188v333h-1854z" />
    <glyph glyph-name="Itilde" unicode="&#x128;" horiz-adv-x="1298" 
d="M712 0h333v1416h-333v-1416zM1458 2560l-360 -443l-360 443h-159l-628 -774v-100h348l359 444l360 -444h159l628 774v100h-347z" />
    <glyph glyph-name="itilde" unicode="&#x129;" horiz-adv-x="1093" 
d="M557 0h333v874h-333v-874zM1303 2009l-360 -444l-360 444h-159l-628 -774v-100h348l359 443l360 -443h159l628 774v100h-347z" />
    <glyph glyph-name="Imacron" unicode="&#x12a;" horiz-adv-x="815" 
d="M229 0h333v1416h-333v-1416zM-532 1937h1854v333h-1854v-333z" />
    <glyph glyph-name="imacron" unicode="&#x12b;" horiz-adv-x="1071" 
d="M513 0h333v874h-333v-874zM-248 1405h1854v333h-1854v-333z" />
    <glyph glyph-name="Ibreve" unicode="&#x12c;" horiz-adv-x="1529" 
d="M712 0h333v1416h-333v-1416zM1472 2541v-542h-1188v542h-333v-875h1854v875h-333z" />
    <glyph glyph-name="ibreve" unicode="&#x12d;" horiz-adv-x="1163" 
d="M567 0h333v874h-333v-874zM1327 2009v-541h-1188v541h-333v-874h1854v874h-333z" />
    <glyph glyph-name="Iogonek" unicode="&#x12e;" horiz-adv-x="1802" 
d="M1302 1410v-1416h-1521v-874h1854v333h-1521v208h1521v1749h-333z" />
    <glyph glyph-name="iogonek" unicode="&#x12f;" horiz-adv-x="2058" 
d="M1595 869v-875h-1521v-874h1854v333h-1521v208h1521v1208h-333z" />
    <glyph glyph-name="dotlessi" unicode="&#x131;" horiz-adv-x="598" 
d="M135 0h333v874h-333v-874z" />
    <glyph glyph-name="Jcircumflex" unicode="&#x134;" horiz-adv-x="3572" 
d="M1718 1416v-333h1354v-750h-3042v-333h3375v1416h-1687zM2459 2560l-844 -569v-305h144l751 507l751 -507h144v305l-844 569h-102z" />
    <glyph glyph-name="jcircumflex" unicode="&#x135;" horiz-adv-x="3781" 
d="M1255 592q28 0 28 21q0 22 -28 22h-34l1 -43h33zM1222 572v-55q0 -4 -4 -4h-17q-4 0 -4 4l1 134q0 4 4 4h56q48 0 48 -41q0 -33 -36 -41l40 -55q3 -5 -3 -5h-20q-3 0 -5 2l-37 57h-23zM1383 671q-2 -3 -5 -3h-6q-6 0 -3 5l13 24q1 2 4 2h14q6 0 2 -4zM1353 598h60
q4 0 4 -4v-13q0 -4 -4 -4h-59v-43h67q4 0 4 -4v-13q0 -4 -4 -4h-88q-4 0 -4 4l1 134q0 4 4 4h87q4 0 4 -4v-13q0 -3 -4 -3h-68v-37zM1574 513q-4 0 -4 4l-2 111l-35 -112q-1 -3 -5 -3h-15q-3 0 -4 3l-37 115l-2 -114q0 -4 -3 -4h-16q-4 0 -4 4l5 134q0 4 4 4h25q4 0 5 -3
l35 -108l35 108q1 3 4 3h25q4 0 4 -4l5 -134q0 -4 -4 -4h-16zM1657 517q0 -4 -4 -4h-17q-4 0 -4 4l1 134q0 4 4 4h15q4 0 4 -4zM622 351q5 0 5 -5q-1 -30 -19 -49q-20 -21 -50 -21t-48 21q-19 21 -19 54q0 32 20 53q19 21 49 21q45 0 60 -40q2 -4 -3 -4l-14 -1q-3 0 -5 3
q-15 22 -40 22q-44 0 -44 -53q0 -55 47 -55q33 0 41 33h-32q-4 0 -4 4v13q0 4 4 4h52zM714 297q45 0 45 54t-46 54q-45 0 -45 -53q0 -55 46 -55zM762 298q-20 -22 -49 -22q-30 0 -49 21t-19 54q0 32 20 53t50 21q29 0 48 -20t19 -52q0 -33 -20 -55zM858 300q48 0 48 50
q0 52 -48 52h-30l1 -102h29zM859 422q70 0 70 -69q0 -73 -70 -73h-51q-3 0 -3 3v135q0 4 4 4h50zM975 364h60q4 0 4 -4v-13q0 -4 -4 -4h-59v-43h67q4 0 4 -3v-14q0 -3 -4 -3h-88q-4 0 -4 3l1 135q0 4 4 4h87q4 0 4 -4v-13q0 -4 -4 -4h-68v-37zM1093 367h59q4 0 4 -4v-13
q0 -4 -4 -4h-59l1 -63q0 -3 -4 -3h-17q-4 0 -4 3l1 135q0 4 4 4h87q4 0 4 -4v-13q0 -4 -4 -4h-68v-34zM1245 359q28 0 28 20q0 23 -28 23h-34v-43h34zM1211 339v-56q0 -3 -4 -3h-16q-4 0 -4 3v135q0 4 4 4h57q48 0 48 -41q0 -34 -36 -41l39 -56q4 -4 -2 -4h-20q-4 0 -5 2
l-38 57h-23zM1384 297q45 0 45 54t-47 54q-45 0 -45 -53q0 -55 47 -55zM1432 298q-20 -22 -50 -22q-29 0 -49 21q-19 21 -19 54q0 32 20 53t50 21t49 -20t19 -52q0 -33 -20 -55zM1510 283q0 -3 -4 -3h-16q-4 0 -4 3v135q0 4 4 4h15q4 0 4 -4zM1602 300q48 0 48 50
q0 52 -48 52h-29v-102h29zM1603 422q70 0 70 -69q0 -73 -70 -73h-50q-4 0 -4 3l1 135q0 4 3 4h50zM733 1374q59 -61 103 -126l8 -13q-9 -31 -14 -56q-12 -51 -18 -102h-79v297zM1177 1077h-183v-90h97l1 -16q0 -105 -28 -216q-21 -83 -57 -165l-6 -13q-8 41 -18 76
q-29 114 -71 197l-4 7l-4 8q-8 54 -8 106l1 16q1 45 7 90l4 30q7 39 16 76q8 30 19 65q17 52 38 100q12 28 25 53q9 18 17 35h-102q-21 -43 -39 -88l-2 -6q-37 49 -80 94h-158v-933h91v440q47 -44 83 -107l15 -27q35 -70 62 -169q10 -37 18 -77q7 -30 12 -60h143
q21 41 39 87q34 84 53 170q25 108 25 211q0 32 -3 65zM221 1301q28 0 28 23t-31 23h-41l1 -46h43zM177 1370h41q23 0 23 21q0 22 -27 22h-37v-43zM261 1292q-15 -13 -38 -13h-68q-5 0 -5 4l1 149q0 4 5 4h61q49 0 49 -43q0 -19 -12 -31q21 -12 21 -36q0 -20 -14 -34z
M431 1346q0 -71 -66 -71t-66 71v86q0 4 5 4h16q5 0 5 -4v-83q1 -51 41 -51q39 0 39 51v83q0 4 5 4h16q5 0 5 -4v-86zM525 1283q0 -4 -4 -4h-18q-5 0 -5 4l1 59l-48 89q-3 5 3 5h18q4 0 6 -3l33 -64h2l34 64q2 3 5 3h17q6 0 3 -5l-47 -89v-59zM71 1117h66q4 0 4 -4v-14
q0 -5 -4 -5h-66v-69q0 -4 -4 -4h-18q-5 0 -5 4l1 149q0 4 4 4h97q4 0 4 -4v-14q0 -5 -4 -5h-75v-38zM306 1089q1 -71 -66 -71q-66 0 -66 71l1 85q0 4 4 4h17q4 0 4 -4v-82q1 -52 41 -52q39 0 39 52l1 82q0 4 4 4h17q4 0 4 -4v-85zM440 1044q4 0 4 -4v-15q0 -4 -4 -4h-100
q-4 0 -4 4l1 149q0 4 4 4h17q4 0 4 -4l1 -130h77zM568 1044q4 0 4 -4v-15q0 -4 -4 -4h-100q-4 0 -4 4l1 149q0 4 4 4h17q4 0 4 -4l1 -130h77zM27 860h65q5 0 5 -5v-14q0 -4 -5 -4h-65v-69q0 -4 -4 -4h-19q-4 0 -4 4l1 148q0 5 4 5h97q4 0 4 -5v-14q0 -4 -4 -4h-76zM202 783
q50 0 50 59q0 60 -52 60q-50 0 -50 -58q0 -61 52 -61zM255 784q-22 -24 -55 -24t-54 23t-21 59t22 59t55 23t54 -22t21 -57q0 -37 -22 -61zM432 768q0 -4 -4 -4h-25q-3 0 -5 3l-71 123l1 -122q0 -4 -4 -4h-18q-5 0 -5 4l1 148q0 5 4 5h26q3 0 5 -3l68 -119l1 117q0 5 4 5h17
q4 0 4 -5zM574 902q0 -4 -4 -4h-45l1 -130q0 -4 -5 -4h-18q-4 0 -4 4v130h-44q-5 0 -5 4v14q0 5 5 5h115q4 0 4 -5v-14zM332 525q50 0 50 60q0 59 -51 59q-50 0 -50 -58q0 -61 51 -61zM386 527q-22 -24 -55 -24t-54 22q-22 24 -22 60q0 35 23 59q22 23 55 23q32 0 53 -22
q22 -23 22 -58q0 -36 -22 -60zM563 510q0 -4 -5 -4h-24q-4 0 -5 3l-71 124l1 -123q0 -4 -5 -4h-18q-4 0 -4 4l1 149q0 4 4 4h26q3 0 5 -3l68 -119l1 118q0 4 4 4h16q5 0 5 -4zM738 196q6 0 4 -6l-49 -181q-1 -5 -6 -5h-27q-4 0 -5 5l-37 142h-3l-36 -142q-2 -5 -6 -5h-26
q-5 0 -6 5l-50 181q-2 6 4 6h22q4 0 6 -4l36 -136h2l36 136q2 4 6 4h27q4 0 6 -4l35 -136h3l36 136q2 4 6 4h22zM798 118h80q6 0 6 -5v-18q0 -5 -6 -5h-80l1 -58h90q6 0 6 -5v-18q0 -5 -6 -5h-118q-6 0 -6 5l2 182q0 5 5 5h117q6 0 6 -5v-18q0 -5 -6 -5h-91v-50zM1011 31
q34 0 34 28q0 29 -39 29h-49v-57h54zM957 116h50q28 0 28 26q0 27 -34 27h-44v-53zM1059 21q-18 -17 -46 -17h-83q-6 0 -6 5l1 182q0 5 6 5h74q27 0 44 -15q17 -14 17 -37t-16 -39q26 -14 26 -43q0 -25 -17 -41zM1244 146h-19q-4 0 -6 4q-14 23 -44 23q-35 0 -35 -23
q0 -19 44 -32l8 -3q61 -18 61 -60q0 -55 -72 -55q-34 0 -57 18q-18 14 -24 35q-1 6 5 6h21q4 0 6 -4q14 -27 51 -27q38 0 38 23q0 21 -45 36l-9 3q-58 19 -59 55q-1 25 20 41q19 14 49 14q55 0 72 -48q2 -6 -5 -6zM1332 9q0 -5 -5 -5h-22q-6 0 -6 5l1 182q0 5 5 5h21
q5 0 5 -5zM1522 173q0 -5 -5 -5h-55l1 -159q0 -5 -5 -5h-23q-5 0 -5 5l1 159h-55q-5 0 -5 5v18q0 5 5 5h141q5 0 5 -5v-18zM1577 118h80q5 0 5 -5v-18q0 -5 -5 -5h-80v-58h91q5 0 5 -5v-18q0 -5 -5 -5h-119q-5 0 -5 5l1 182q0 5 5 5h118q5 0 5 -5v-18q0 -5 -5 -5h-92z" />
    <glyph glyph-name="uni0136" unicode="&#x136;" horiz-adv-x="3648" 
d="M3352 1413l-1521 -541h-1326v541h-333v-1415h333v541h1326l1521 -541h195v283l-1191 424l1191 424v284h-195zM1693 -544v-455l-588 -419h574l347 247v627h-333z" />
    <glyph glyph-name="uni0137" unicode="&#x137;" horiz-adv-x="3600" 
d="M3520 889l-1550 -551h-1492v541h-333v-1415h333v541h1492l1550 -552v354l-1024 364l1024 365v353zM1666 -1078v-455l-588 -419h574l347 247v627h-333z" />
    <glyph glyph-name="Lacute" unicode="&#x139;" horiz-adv-x="3627" 
d="M172 1416v-1416h3375v333h-3042v1083h-333zM1720 2560l-1548 -551v-323h85l1548 551v323h-85z" />
    <glyph glyph-name="lacute" unicode="&#x13a;" horiz-adv-x="1226" 
d="M704 -553h333v1416h-333v-1416zM1602 2006l-1548 -562v-330h85l1548 562v330h-85z" />
    <glyph glyph-name="uni013B" unicode="&#x13b;" horiz-adv-x="3627" 
d="M172 1417v-1415h3375v333h-3042v1082h-333zM1638 -540v-455l-588 -419h574l347 247v627h-333z" />
    <glyph glyph-name="uni013C" unicode="&#x13c;" horiz-adv-x="691" 
d="M207 -533h333v1415h-333v-1415zM207 -1085v-455l-588 -419h574l347 247v627h-333z" />
    <glyph glyph-name="Lcaron" unicode="&#x13d;" horiz-adv-x="3627" 
d="M172 1416v-1416h3375v333h-3042v1083h-333zM1638 1416v-456l-588 -419h574l347 247v628h-333z" />
    <glyph glyph-name="lcaron" unicode="&#x13e;" horiz-adv-x="1170" 
d="M145 874v-1416h333v531h241l347 247v627h-333v-455l-255 -182v648h-333z" />
    <glyph glyph-name="Ldot" unicode="&#x13f;" horiz-adv-x="3627" 
d="M172 1416v-1416h3375v333h-3042v1083h-333zM1638 541h333v333h-333v-333z" />
    <glyph glyph-name="ldot" unicode="&#x140;" horiz-adv-x="1224" 
d="M145 -542h333v1416h-333v-1416zM811 -11h333v333h-333v-333z" />
    <glyph glyph-name="Lslash" unicode="&#x141;" horiz-adv-x="4021" 
d="M565 1416v-649l-485 -173v-323h85l400 142v-413h3376v333h-3043v199l815 290v323h-85l-730 -260v531h-333z" />
    <glyph glyph-name="lslash" unicode="&#x142;" horiz-adv-x="1652" 
d="M640 874v-599l-650 -236v-329h85l565 205v-457h333v578l650 236v329h-85l-565 -205v478h-333z" />
    <glyph glyph-name="Nacute" unicode="&#x143;" 
d="M3214 1416v-1014l-2847 1014h-195v-1416h333v1013l2847 -1013h195v1416h-333zM2591 2560l-1548 -551v-323h85l1548 551v323h-85z" />
    <glyph glyph-name="nacute" unicode="&#x144;" horiz-adv-x="3640" 
d="M135 874v-874h333v541h2709v-541h333v874h-3375zM2554 2018l-1548 -562v-330h85l1548 562v330h-85z" />
    <glyph glyph-name="uni0145" unicode="&#x145;" 
d="M1255 592q28 0 28 21q0 22 -28 22h-34l1 -43h33zM1222 572v-55q0 -4 -4 -4h-17q-4 0 -4 4l1 134q0 4 4 4h56q48 0 48 -41q0 -33 -36 -41l40 -55q3 -5 -3 -5h-20q-3 0 -5 2l-37 57h-23zM1383 671q-2 -3 -5 -3h-6q-6 0 -3 5l13 24q1 2 4 2h14q6 0 2 -4zM1353 598h60
q4 0 4 -4v-13q0 -4 -4 -4h-59v-43h67q4 0 4 -4v-13q0 -4 -4 -4h-88q-4 0 -4 4l1 134q0 4 4 4h87q4 0 4 -4v-13q0 -3 -4 -3h-68v-37zM1574 513q-4 0 -4 4l-2 111l-35 -112q-1 -3 -5 -3h-15q-3 0 -4 3l-37 115l-2 -114q0 -4 -3 -4h-16q-4 0 -4 4l5 134q0 4 4 4h25q4 0 5 -3
l35 -108l35 108q1 3 4 3h25q4 0 4 -4l5 -134q0 -4 -4 -4h-16zM1657 517q0 -4 -4 -4h-17q-4 0 -4 4l1 134q0 4 4 4h15q4 0 4 -4zM622 351q5 0 5 -5q-1 -30 -19 -49q-20 -21 -50 -21t-48 21q-19 21 -19 54q0 32 20 53q19 21 49 21q45 0 60 -40q2 -4 -3 -4l-14 -1q-3 0 -5 3
q-15 22 -40 22q-44 0 -44 -53q0 -55 47 -55q33 0 41 33h-32q-4 0 -4 4v13q0 4 4 4h52zM714 297q45 0 45 54t-46 54q-45 0 -45 -53q0 -55 46 -55zM762 298q-20 -22 -49 -22q-30 0 -49 21t-19 54q0 32 20 53t50 21q29 0 48 -20t19 -52q0 -33 -20 -55zM858 300q48 0 48 50
q0 52 -48 52h-30l1 -102h29zM859 422q70 0 70 -69q0 -73 -70 -73h-51q-3 0 -3 3v135q0 4 4 4h50zM975 364h60q4 0 4 -4v-13q0 -4 -4 -4h-59v-43h67q4 0 4 -3v-14q0 -3 -4 -3h-88q-4 0 -4 3l1 135q0 4 4 4h87q4 0 4 -4v-13q0 -4 -4 -4h-68v-37zM1093 367h59q4 0 4 -4v-13
q0 -4 -4 -4h-59l1 -63q0 -3 -4 -3h-17q-4 0 -4 3l1 135q0 4 4 4h87q4 0 4 -4v-13q0 -4 -4 -4h-68v-34zM1245 359q28 0 28 20q0 23 -28 23h-34v-43h34zM1211 339v-56q0 -3 -4 -3h-16q-4 0 -4 3v135q0 4 4 4h57q48 0 48 -41q0 -34 -36 -41l39 -56q4 -4 -2 -4h-20q-4 0 -5 2
l-38 57h-23zM1384 297q45 0 45 54t-47 54q-45 0 -45 -53q0 -55 47 -55zM1432 298q-20 -22 -50 -22q-29 0 -49 21q-19 21 -19 54q0 32 20 53t50 21t49 -20t19 -52q0 -33 -20 -55zM1510 283q0 -3 -4 -3h-16q-4 0 -4 3v135q0 4 4 4h15q4 0 4 -4zM1602 300q48 0 48 50
q0 52 -48 52h-29v-102h29zM1603 422q70 0 70 -69q0 -73 -70 -73h-50q-4 0 -4 3l1 135q0 4 3 4h50zM733 1374q59 -61 103 -126l8 -13q-9 -31 -14 -56q-12 -51 -18 -102h-79v297zM1177 1077h-183v-90h97l1 -16q0 -105 -28 -216q-21 -83 -57 -165l-6 -13q-8 41 -18 76
q-29 114 -71 197l-4 7l-4 8q-8 54 -8 106l1 16q1 45 7 90l4 30q7 39 16 76q8 30 19 65q17 52 38 100q12 28 25 53q9 18 17 35h-102q-21 -43 -39 -88l-2 -6q-37 49 -80 94h-158v-933h91v440q47 -44 83 -107l15 -27q35 -70 62 -169q10 -37 18 -77q7 -30 12 -60h143
q21 41 39 87q34 84 53 170q25 108 25 211q0 32 -3 65zM221 1301q28 0 28 23t-31 23h-41l1 -46h43zM177 1370h41q23 0 23 21q0 22 -27 22h-37v-43zM261 1292q-15 -13 -38 -13h-68q-5 0 -5 4l1 149q0 4 5 4h61q49 0 49 -43q0 -19 -12 -31q21 -12 21 -36q0 -20 -14 -34z
M431 1346q0 -71 -66 -71t-66 71v86q0 4 5 4h16q5 0 5 -4v-83q1 -51 41 -51q39 0 39 51v83q0 4 5 4h16q5 0 5 -4v-86zM525 1283q0 -4 -4 -4h-18q-5 0 -5 4l1 59l-48 89q-3 5 3 5h18q4 0 6 -3l33 -64h2l34 64q2 3 5 3h17q6 0 3 -5l-47 -89v-59zM71 1117h66q4 0 4 -4v-14
q0 -5 -4 -5h-66v-69q0 -4 -4 -4h-18q-5 0 -5 4l1 149q0 4 4 4h97q4 0 4 -4v-14q0 -5 -4 -5h-75v-38zM306 1089q1 -71 -66 -71q-66 0 -66 71l1 85q0 4 4 4h17q4 0 4 -4v-82q1 -52 41 -52q39 0 39 52l1 82q0 4 4 4h17q4 0 4 -4v-85zM440 1044q4 0 4 -4v-15q0 -4 -4 -4h-100
q-4 0 -4 4l1 149q0 4 4 4h17q4 0 4 -4l1 -130h77zM568 1044q4 0 4 -4v-15q0 -4 -4 -4h-100q-4 0 -4 4l1 149q0 4 4 4h17q4 0 4 -4l1 -130h77zM27 860h65q5 0 5 -5v-14q0 -4 -5 -4h-65v-69q0 -4 -4 -4h-19q-4 0 -4 4l1 148q0 5 4 5h97q4 0 4 -5v-14q0 -4 -4 -4h-76zM202 783
q50 0 50 59q0 60 -52 60q-50 0 -50 -58q0 -61 52 -61zM255 784q-22 -24 -55 -24t-54 23t-21 59t22 59t55 23t54 -22t21 -57q0 -37 -22 -61zM432 768q0 -4 -4 -4h-25q-3 0 -5 3l-71 123l1 -122q0 -4 -4 -4h-18q-5 0 -5 4l1 148q0 5 4 5h26q3 0 5 -3l68 -119l1 117q0 5 4 5h17
q4 0 4 -5zM574 902q0 -4 -4 -4h-45l1 -130q0 -4 -5 -4h-18q-4 0 -4 4v130h-44q-5 0 -5 4v14q0 5 5 5h115q4 0 4 -5v-14zM332 525q50 0 50 60q0 59 -51 59q-50 0 -50 -58q0 -61 51 -61zM386 527q-22 -24 -55 -24t-54 22q-22 24 -22 60q0 35 23 59q22 23 55 23q32 0 53 -22
q22 -23 22 -58q0 -36 -22 -60zM563 510q0 -4 -5 -4h-24q-4 0 -5 3l-71 124l1 -123q0 -4 -5 -4h-18q-4 0 -4 4l1 149q0 4 4 4h26q3 0 5 -3l68 -119l1 118q0 4 4 4h16q5 0 5 -4zM738 196q6 0 4 -6l-49 -181q-1 -5 -6 -5h-27q-4 0 -5 5l-37 142h-3l-36 -142q-2 -5 -6 -5h-26
q-5 0 -6 5l-50 181q-2 6 4 6h22q4 0 6 -4l36 -136h2l36 136q2 4 6 4h27q4 0 6 -4l35 -136h3l36 136q2 4 6 4h22zM798 118h80q6 0 6 -5v-18q0 -5 -6 -5h-80l1 -58h90q6 0 6 -5v-18q0 -5 -6 -5h-118q-6 0 -6 5l2 182q0 5 5 5h117q6 0 6 -5v-18q0 -5 -6 -5h-91v-50zM1011 31
q34 0 34 28q0 29 -39 29h-49v-57h54zM957 116h50q28 0 28 26q0 27 -34 27h-44v-53zM1059 21q-18 -17 -46 -17h-83q-6 0 -6 5l1 182q0 5 6 5h74q27 0 44 -15q17 -14 17 -37t-16 -39q26 -14 26 -43q0 -25 -17 -41zM1244 146h-19q-4 0 -6 4q-14 23 -44 23q-35 0 -35 -23
q0 -19 44 -32l8 -3q61 -18 61 -60q0 -55 -72 -55q-34 0 -57 18q-18 14 -24 35q-1 6 5 6h21q4 0 6 -4q14 -27 51 -27q38 0 38 23q0 21 -45 36l-9 3q-58 19 -59 55q-1 25 20 41q19 14 49 14q55 0 72 -48q2 -6 -5 -6zM1332 9q0 -5 -5 -5h-22q-6 0 -6 5l1 182q0 5 5 5h21
q5 0 5 -5zM1522 173q0 -5 -5 -5h-55l1 -159q0 -5 -5 -5h-23q-5 0 -5 5l1 159h-55q-5 0 -5 5v18q0 5 5 5h141q5 0 5 -5v-18zM1577 118h80q5 0 5 -5v-18q0 -5 -5 -5h-80v-58h91q5 0 5 -5v-18q0 -5 -5 -5h-119q-5 0 -5 5l1 182q0 5 5 5h118q5 0 5 -5v-18q0 -5 -5 -5h-92z" />
    <glyph glyph-name="uni0146" unicode="&#x146;" horiz-adv-x="3640" 
d="M1255 592q28 0 28 21q0 22 -28 22h-34l1 -43h33zM1222 572v-55q0 -4 -4 -4h-17q-4 0 -4 4l1 134q0 4 4 4h56q48 0 48 -41q0 -33 -36 -41l40 -55q3 -5 -3 -5h-20q-3 0 -5 2l-37 57h-23zM1383 671q-2 -3 -5 -3h-6q-6 0 -3 5l13 24q1 2 4 2h14q6 0 2 -4zM1353 598h60
q4 0 4 -4v-13q0 -4 -4 -4h-59v-43h67q4 0 4 -4v-13q0 -4 -4 -4h-88q-4 0 -4 4l1 134q0 4 4 4h87q4 0 4 -4v-13q0 -3 -4 -3h-68v-37zM1574 513q-4 0 -4 4l-2 111l-35 -112q-1 -3 -5 -3h-15q-3 0 -4 3l-37 115l-2 -114q0 -4 -3 -4h-16q-4 0 -4 4l5 134q0 4 4 4h25q4 0 5 -3
l35 -108l35 108q1 3 4 3h25q4 0 4 -4l5 -134q0 -4 -4 -4h-16zM1657 517q0 -4 -4 -4h-17q-4 0 -4 4l1 134q0 4 4 4h15q4 0 4 -4zM622 351q5 0 5 -5q-1 -30 -19 -49q-20 -21 -50 -21t-48 21q-19 21 -19 54q0 32 20 53q19 21 49 21q45 0 60 -40q2 -4 -3 -4l-14 -1q-3 0 -5 3
q-15 22 -40 22q-44 0 -44 -53q0 -55 47 -55q33 0 41 33h-32q-4 0 -4 4v13q0 4 4 4h52zM714 297q45 0 45 54t-46 54q-45 0 -45 -53q0 -55 46 -55zM762 298q-20 -22 -49 -22q-30 0 -49 21t-19 54q0 32 20 53t50 21q29 0 48 -20t19 -52q0 -33 -20 -55zM858 300q48 0 48 50
q0 52 -48 52h-30l1 -102h29zM859 422q70 0 70 -69q0 -73 -70 -73h-51q-3 0 -3 3v135q0 4 4 4h50zM975 364h60q4 0 4 -4v-13q0 -4 -4 -4h-59v-43h67q4 0 4 -3v-14q0 -3 -4 -3h-88q-4 0 -4 3l1 135q0 4 4 4h87q4 0 4 -4v-13q0 -4 -4 -4h-68v-37zM1093 367h59q4 0 4 -4v-13
q0 -4 -4 -4h-59l1 -63q0 -3 -4 -3h-17q-4 0 -4 3l1 135q0 4 4 4h87q4 0 4 -4v-13q0 -4 -4 -4h-68v-34zM1245 359q28 0 28 20q0 23 -28 23h-34v-43h34zM1211 339v-56q0 -3 -4 -3h-16q-4 0 -4 3v135q0 4 4 4h57q48 0 48 -41q0 -34 -36 -41l39 -56q4 -4 -2 -4h-20q-4 0 -5 2
l-38 57h-23zM1384 297q45 0 45 54t-47 54q-45 0 -45 -53q0 -55 47 -55zM1432 298q-20 -22 -50 -22q-29 0 -49 21q-19 21 -19 54q0 32 20 53t50 21t49 -20t19 -52q0 -33 -20 -55zM1510 283q0 -3 -4 -3h-16q-4 0 -4 3v135q0 4 4 4h15q4 0 4 -4zM1602 300q48 0 48 50
q0 52 -48 52h-29v-102h29zM1603 422q70 0 70 -69q0 -73 -70 -73h-50q-4 0 -4 3l1 135q0 4 3 4h50zM733 1374q59 -61 103 -126l8 -13q-9 -31 -14 -56q-12 -51 -18 -102h-79v297zM1177 1077h-183v-90h97l1 -16q0 -105 -28 -216q-21 -83 -57 -165l-6 -13q-8 41 -18 76
q-29 114 -71 197l-4 7l-4 8q-8 54 -8 106l1 16q1 45 7 90l4 30q7 39 16 76q8 30 19 65q17 52 38 100q12 28 25 53q9 18 17 35h-102q-21 -43 -39 -88l-2 -6q-37 49 -80 94h-158v-933h91v440q47 -44 83 -107l15 -27q35 -70 62 -169q10 -37 18 -77q7 -30 12 -60h143
q21 41 39 87q34 84 53 170q25 108 25 211q0 32 -3 65zM221 1301q28 0 28 23t-31 23h-41l1 -46h43zM177 1370h41q23 0 23 21q0 22 -27 22h-37v-43zM261 1292q-15 -13 -38 -13h-68q-5 0 -5 4l1 149q0 4 5 4h61q49 0 49 -43q0 -19 -12 -31q21 -12 21 -36q0 -20 -14 -34z
M431 1346q0 -71 -66 -71t-66 71v86q0 4 5 4h16q5 0 5 -4v-83q1 -51 41 -51q39 0 39 51v83q0 4 5 4h16q5 0 5 -4v-86zM525 1283q0 -4 -4 -4h-18q-5 0 -5 4l1 59l-48 89q-3 5 3 5h18q4 0 6 -3l33 -64h2l34 64q2 3 5 3h17q6 0 3 -5l-47 -89v-59zM71 1117h66q4 0 4 -4v-14
q0 -5 -4 -5h-66v-69q0 -4 -4 -4h-18q-5 0 -5 4l1 149q0 4 4 4h97q4 0 4 -4v-14q0 -5 -4 -5h-75v-38zM306 1089q1 -71 -66 -71q-66 0 -66 71l1 85q0 4 4 4h17q4 0 4 -4v-82q1 -52 41 -52q39 0 39 52l1 82q0 4 4 4h17q4 0 4 -4v-85zM440 1044q4 0 4 -4v-15q0 -4 -4 -4h-100
q-4 0 -4 4l1 149q0 4 4 4h17q4 0 4 -4l1 -130h77zM568 1044q4 0 4 -4v-15q0 -4 -4 -4h-100q-4 0 -4 4l1 149q0 4 4 4h17q4 0 4 -4l1 -130h77zM27 860h65q5 0 5 -5v-14q0 -4 -5 -4h-65v-69q0 -4 -4 -4h-19q-4 0 -4 4l1 148q0 5 4 5h97q4 0 4 -5v-14q0 -4 -4 -4h-76zM202 783
q50 0 50 59q0 60 -52 60q-50 0 -50 -58q0 -61 52 -61zM255 784q-22 -24 -55 -24t-54 23t-21 59t22 59t55 23t54 -22t21 -57q0 -37 -22 -61zM432 768q0 -4 -4 -4h-25q-3 0 -5 3l-71 123l1 -122q0 -4 -4 -4h-18q-5 0 -5 4l1 148q0 5 4 5h26q3 0 5 -3l68 -119l1 117q0 5 4 5h17
q4 0 4 -5zM574 902q0 -4 -4 -4h-45l1 -130q0 -4 -5 -4h-18q-4 0 -4 4v130h-44q-5 0 -5 4v14q0 5 5 5h115q4 0 4 -5v-14zM332 525q50 0 50 60q0 59 -51 59q-50 0 -50 -58q0 -61 51 -61zM386 527q-22 -24 -55 -24t-54 22q-22 24 -22 60q0 35 23 59q22 23 55 23q32 0 53 -22
q22 -23 22 -58q0 -36 -22 -60zM563 510q0 -4 -5 -4h-24q-4 0 -5 3l-71 124l1 -123q0 -4 -5 -4h-18q-4 0 -4 4l1 149q0 4 4 4h26q3 0 5 -3l68 -119l1 118q0 4 4 4h16q5 0 5 -4zM738 196q6 0 4 -6l-49 -181q-1 -5 -6 -5h-27q-4 0 -5 5l-37 142h-3l-36 -142q-2 -5 -6 -5h-26
q-5 0 -6 5l-50 181q-2 6 4 6h22q4 0 6 -4l36 -136h2l36 136q2 4 6 4h27q4 0 6 -4l35 -136h3l36 136q2 4 6 4h22zM798 118h80q6 0 6 -5v-18q0 -5 -6 -5h-80l1 -58h90q6 0 6 -5v-18q0 -5 -6 -5h-118q-6 0 -6 5l2 182q0 5 5 5h117q6 0 6 -5v-18q0 -5 -6 -5h-91v-50zM1011 31
q34 0 34 28q0 29 -39 29h-49v-57h54zM957 116h50q28 0 28 26q0 27 -34 27h-44v-53zM1059 21q-18 -17 -46 -17h-83q-6 0 -6 5l1 182q0 5 6 5h74q27 0 44 -15q17 -14 17 -37t-16 -39q26 -14 26 -43q0 -25 -17 -41zM1244 146h-19q-4 0 -6 4q-14 23 -44 23q-35 0 -35 -23
q0 -19 44 -32l8 -3q61 -18 61 -60q0 -55 -72 -55q-34 0 -57 18q-18 14 -24 35q-1 6 5 6h21q4 0 6 -4q14 -27 51 -27q38 0 38 23q0 21 -45 36l-9 3q-58 19 -59 55q-1 25 20 41q19 14 49 14q55 0 72 -48q2 -6 -5 -6zM1332 9q0 -5 -5 -5h-22q-6 0 -6 5l1 182q0 5 5 5h21
q5 0 5 -5zM1522 173q0 -5 -5 -5h-55l1 -159q0 -5 -5 -5h-23q-5 0 -5 5l1 159h-55q-5 0 -5 5v18q0 5 5 5h141q5 0 5 -5v-18zM1577 118h80q5 0 5 -5v-18q0 -5 -5 -5h-80v-58h91q5 0 5 -5v-18q0 -5 -5 -5h-119q-5 0 -5 5l1 182q0 5 5 5h118q5 0 5 -5v-18q0 -5 -5 -5h-92z" />
    <glyph glyph-name="Ncaron" unicode="&#x147;" 
d="M3214 1416v-1014l-2847 1014h-195v-1416h333v1013l2847 -1013h195v1416h-333zM2610 2498l-750 -507l-751 507h-144v-304l844 -570h102l844 570v304h-145z" />
    <glyph glyph-name="ncaron" unicode="&#x148;" horiz-adv-x="3640" 
d="M135 874v-874h333v541h2709v-541h333v874h-3375zM2573 2009l-750 -507l-751 507h-144v-305l844 -569h102l844 569v305h-145z" />
    <glyph glyph-name="napostrophe" unicode="&#x149;" horiz-adv-x="4415" 
d="M910 874v-874h333v541h2709v-541h333v874h-3375zM597 1738v-455l-588 -419h574l347 247v627h-333z" />
    <glyph glyph-name="Eng" unicode="&#x14a;" 
d="M172 1416v-1416l333 8v1075h2709v-742h-1188v367h-333v-700h1854v1408h-3375z" />
    <glyph glyph-name="eng" unicode="&#x14b;" horiz-adv-x="3661" 
d="M1255 592q28 0 28 21q0 22 -28 22h-34l1 -43h33zM1222 572v-55q0 -4 -4 -4h-17q-4 0 -4 4l1 134q0 4 4 4h56q48 0 48 -41q0 -33 -36 -41l40 -55q3 -5 -3 -5h-20q-3 0 -5 2l-37 57h-23zM1383 671q-2 -3 -5 -3h-6q-6 0 -3 5l13 24q1 2 4 2h14q6 0 2 -4zM1353 598h60
q4 0 4 -4v-13q0 -4 -4 -4h-59v-43h67q4 0 4 -4v-13q0 -4 -4 -4h-88q-4 0 -4 4l1 134q0 4 4 4h87q4 0 4 -4v-13q0 -3 -4 -3h-68v-37zM1574 513q-4 0 -4 4l-2 111l-35 -112q-1 -3 -5 -3h-15q-3 0 -4 3l-37 115l-2 -114q0 -4 -3 -4h-16q-4 0 -4 4l5 134q0 4 4 4h25q4 0 5 -3
l35 -108l35 108q1 3 4 3h25q4 0 4 -4l5 -134q0 -4 -4 -4h-16zM1657 517q0 -4 -4 -4h-17q-4 0 -4 4l1 134q0 4 4 4h15q4 0 4 -4zM622 351q5 0 5 -5q-1 -30 -19 -49q-20 -21 -50 -21t-48 21q-19 21 -19 54q0 32 20 53q19 21 49 21q45 0 60 -40q2 -4 -3 -4l-14 -1q-3 0 -5 3
q-15 22 -40 22q-44 0 -44 -53q0 -55 47 -55q33 0 41 33h-32q-4 0 -4 4v13q0 4 4 4h52zM714 297q45 0 45 54t-46 54q-45 0 -45 -53q0 -55 46 -55zM762 298q-20 -22 -49 -22q-30 0 -49 21t-19 54q0 32 20 53t50 21q29 0 48 -20t19 -52q0 -33 -20 -55zM858 300q48 0 48 50
q0 52 -48 52h-30l1 -102h29zM859 422q70 0 70 -69q0 -73 -70 -73h-51q-3 0 -3 3v135q0 4 4 4h50zM975 364h60q4 0 4 -4v-13q0 -4 -4 -4h-59v-43h67q4 0 4 -3v-14q0 -3 -4 -3h-88q-4 0 -4 3l1 135q0 4 4 4h87q4 0 4 -4v-13q0 -4 -4 -4h-68v-37zM1093 367h59q4 0 4 -4v-13
q0 -4 -4 -4h-59l1 -63q0 -3 -4 -3h-17q-4 0 -4 3l1 135q0 4 4 4h87q4 0 4 -4v-13q0 -4 -4 -4h-68v-34zM1245 359q28 0 28 20q0 23 -28 23h-34v-43h34zM1211 339v-56q0 -3 -4 -3h-16q-4 0 -4 3v135q0 4 4 4h57q48 0 48 -41q0 -34 -36 -41l39 -56q4 -4 -2 -4h-20q-4 0 -5 2
l-38 57h-23zM1384 297q45 0 45 54t-47 54q-45 0 -45 -53q0 -55 47 -55zM1432 298q-20 -22 -50 -22q-29 0 -49 21q-19 21 -19 54q0 32 20 53t50 21t49 -20t19 -52q0 -33 -20 -55zM1510 283q0 -3 -4 -3h-16q-4 0 -4 3v135q0 4 4 4h15q4 0 4 -4zM1602 300q48 0 48 50
q0 52 -48 52h-29v-102h29zM1603 422q70 0 70 -69q0 -73 -70 -73h-50q-4 0 -4 3l1 135q0 4 3 4h50zM733 1374q59 -61 103 -126l8 -13q-9 -31 -14 -56q-12 -51 -18 -102h-79v297zM1177 1077h-183v-90h97l1 -16q0 -105 -28 -216q-21 -83 -57 -165l-6 -13q-8 41 -18 76
q-29 114 -71 197l-4 7l-4 8q-8 54 -8 106l1 16q1 45 7 90l4 30q7 39 16 76q8 30 19 65q17 52 38 100q12 28 25 53q9 18 17 35h-102q-21 -43 -39 -88l-2 -6q-37 49 -80 94h-158v-933h91v440q47 -44 83 -107l15 -27q35 -70 62 -169q10 -37 18 -77q7 -30 12 -60h143
q21 41 39 87q34 84 53 170q25 108 25 211q0 32 -3 65zM221 1301q28 0 28 23t-31 23h-41l1 -46h43zM177 1370h41q23 0 23 21q0 22 -27 22h-37v-43zM261 1292q-15 -13 -38 -13h-68q-5 0 -5 4l1 149q0 4 5 4h61q49 0 49 -43q0 -19 -12 -31q21 -12 21 -36q0 -20 -14 -34z
M431 1346q0 -71 -66 -71t-66 71v86q0 4 5 4h16q5 0 5 -4v-83q1 -51 41 -51q39 0 39 51v83q0 4 5 4h16q5 0 5 -4v-86zM525 1283q0 -4 -4 -4h-18q-5 0 -5 4l1 59l-48 89q-3 5 3 5h18q4 0 6 -3l33 -64h2l34 64q2 3 5 3h17q6 0 3 -5l-47 -89v-59zM71 1117h66q4 0 4 -4v-14
q0 -5 -4 -5h-66v-69q0 -4 -4 -4h-18q-5 0 -5 4l1 149q0 4 4 4h97q4 0 4 -4v-14q0 -5 -4 -5h-75v-38zM306 1089q1 -71 -66 -71q-66 0 -66 71l1 85q0 4 4 4h17q4 0 4 -4v-82q1 -52 41 -52q39 0 39 52l1 82q0 4 4 4h17q4 0 4 -4v-85zM440 1044q4 0 4 -4v-15q0 -4 -4 -4h-100
q-4 0 -4 4l1 149q0 4 4 4h17q4 0 4 -4l1 -130h77zM568 1044q4 0 4 -4v-15q0 -4 -4 -4h-100q-4 0 -4 4l1 149q0 4 4 4h17q4 0 4 -4l1 -130h77zM27 860h65q5 0 5 -5v-14q0 -4 -5 -4h-65v-69q0 -4 -4 -4h-19q-4 0 -4 4l1 148q0 5 4 5h97q4 0 4 -5v-14q0 -4 -4 -4h-76zM202 783
q50 0 50 59q0 60 -52 60q-50 0 -50 -58q0 -61 52 -61zM255 784q-22 -24 -55 -24t-54 23t-21 59t22 59t55 23t54 -22t21 -57q0 -37 -22 -61zM432 768q0 -4 -4 -4h-25q-3 0 -5 3l-71 123l1 -122q0 -4 -4 -4h-18q-5 0 -5 4l1 148q0 5 4 5h26q3 0 5 -3l68 -119l1 117q0 5 4 5h17
q4 0 4 -5zM574 902q0 -4 -4 -4h-45l1 -130q0 -4 -5 -4h-18q-4 0 -4 4v130h-44q-5 0 -5 4v14q0 5 5 5h115q4 0 4 -5v-14zM332 525q50 0 50 60q0 59 -51 59q-50 0 -50 -58q0 -61 51 -61zM386 527q-22 -24 -55 -24t-54 22q-22 24 -22 60q0 35 23 59q22 23 55 23q32 0 53 -22
q22 -23 22 -58q0 -36 -22 -60zM563 510q0 -4 -5 -4h-24q-4 0 -5 3l-71 124l1 -123q0 -4 -5 -4h-18q-4 0 -4 4l1 149q0 4 4 4h26q3 0 5 -3l68 -119l1 118q0 4 4 4h16q5 0 5 -4zM738 196q6 0 4 -6l-49 -181q-1 -5 -6 -5h-27q-4 0 -5 5l-37 142h-3l-36 -142q-2 -5 -6 -5h-26
q-5 0 -6 5l-50 181q-2 6 4 6h22q4 0 6 -4l36 -136h2l36 136q2 4 6 4h27q4 0 6 -4l35 -136h3l36 136q2 4 6 4h22zM798 118h80q6 0 6 -5v-18q0 -5 -6 -5h-80l1 -58h90q6 0 6 -5v-18q0 -5 -6 -5h-118q-6 0 -6 5l2 182q0 5 5 5h117q6 0 6 -5v-18q0 -5 -6 -5h-91v-50zM1011 31
q34 0 34 28q0 29 -39 29h-49v-57h54zM957 116h50q28 0 28 26q0 27 -34 27h-44v-53zM1059 21q-18 -17 -46 -17h-83q-6 0 -6 5l1 182q0 5 6 5h74q27 0 44 -15q17 -14 17 -37t-16 -39q26 -14 26 -43q0 -25 -17 -41zM1244 146h-19q-4 0 -6 4q-14 23 -44 23q-35 0 -35 -23
q0 -19 44 -32l8 -3q61 -18 61 -60q0 -55 -72 -55q-34 0 -57 18q-18 14 -24 35q-1 6 5 6h21q4 0 6 -4q14 -27 51 -27q38 0 38 23q0 21 -45 36l-9 3q-58 19 -59 55q-1 25 20 41q19 14 49 14q55 0 72 -48q2 -6 -5 -6zM1332 9q0 -5 -5 -5h-22q-6 0 -6 5l1 182q0 5 5 5h21
q5 0 5 -5zM1522 173q0 -5 -5 -5h-55l1 -159q0 -5 -5 -5h-23q-5 0 -5 5l1 159h-55q-5 0 -5 5v18q0 5 5 5h141q5 0 5 -5v-18zM1577 118h80q5 0 5 -5v-18q0 -5 -5 -5h-80v-58h91q5 0 5 -5v-18q0 -5 -5 -5h-119q-5 0 -5 5l1 182q0 5 5 5h118q5 0 5 -5v-18q0 -5 -5 -5h-92z" />
    <glyph glyph-name="Omacron" unicode="&#x14c;" 
d="M172 0h3375v1416h-3375v-1416zM505 1083h2709v-750h-2709v750zM933 1957h1854v333h-1854v-333z" />
    <glyph glyph-name="omacron" unicode="&#x14d;" horiz-adv-x="3640" 
d="M135 0h3375v874h-3375v-874zM468 541h2709v-208h-2709v208zM896 1405h1854v333h-1854v-333z" />
    <glyph glyph-name="Obreve" unicode="&#x14e;" 
d="M172 0h3375v1416h-3375v-1416zM505 1083h2709v-750h-2709v750zM2454 2560v-541h-1188v541h-333v-874h1854v874h-333z" />
    <glyph glyph-name="obreve" unicode="&#x14f;" horiz-adv-x="3640" 
d="M135 0h3375v874h-3375v-874zM468 541h2709v-208h-2709v208zM2417 2009v-541h-1188v541h-333v-874h1854v874h-333z" />
    <glyph glyph-name="Ohungarumlaut" unicode="&#x150;" 
d="M172 0h3375v1416h-3375v-1416zM505 1083h2709v-750h-2709v750zM1720 2831l-1548 -551v-323h85l1548 551v323h-85zM3463 2831l-1549 -551v-323h85l1548 551v323h-84z" />
    <glyph glyph-name="ohungarumlaut" unicode="&#x151;" horiz-adv-x="3649" 
d="M144 0h3375v874h-3375v-874zM477 541h2709v-208h-2709v208zM1692 2009l-1548 -551v-323h85l1548 551v323h-85zM3435 2009l-1549 -551v-323h85l1548 551v323h-84z" />
    <glyph glyph-name="OE" unicode="&#x152;" horiz-adv-x="6590" 
d="M172 1416v-1416h6251v333h-2876v208h2876v333h-2876v209h2876v333h-6251zM505 1083h2709v-750h-2709v750z" />
    <glyph glyph-name="oe" unicode="&#x153;" horiz-adv-x="6683" 
d="M135 876v-875h3042v-541h1688v333h-1355v208h3043v875h-6418zM3510 543h2710v-209h-2710v209zM468 543h2709v-209h-2709v209z" />
    <glyph glyph-name="Racute" unicode="&#x154;" 
d="M172 1416v-1407h333v532h1326l1521 -541h195v284l-723 257h723v875h-3375zM505 1083h2709v-209h-2709v209zM2458 2569l-1548 -562v-330h85l1547 562v330h-84z" />
    <glyph glyph-name="racute" unicode="&#x155;" horiz-adv-x="3411" 
d="M135 874v-874h333v541h2876v333h-3209zM2471 2024l-1548 -563v-329h85l1548 562v330h-85z" />
    <glyph glyph-name="uni0156" unicode="&#x156;" 
d="M172 1413v-1407h333v533h1326l1521 -541h195v284l-723 257h723v874h-3375zM505 1080h2709v-208h-2709v208zM1693 -544v-455l-588 -419h574l347 247v627h-333z" />
    <glyph glyph-name="uni0157" unicode="&#x157;" horiz-adv-x="3411" 
d="M135 873v-874h333v541h2876v333h-3209zM1573 -381v-455l-589 -419h575l347 247v627h-333z" />
    <glyph glyph-name="Rcaron" unicode="&#x158;" 
d="M172 1416v-1407h333v532h1326l1521 -541h195v284l-723 257h723v875h-3375zM505 1083h2709v-209h-2709v209zM2610 2560l-750 -506l-751 506h-144v-304l844 -570h102l844 570v304h-145z" />
    <glyph glyph-name="rcaron" unicode="&#x159;" horiz-adv-x="3411" 
d="M135 874v-874h333v541h2876v333h-3209zM2490 2015l-750 -507l-751 507h-145l1 -305l844 -569h102l843 569v305h-144z" />
    <glyph glyph-name="Sacute" unicode="&#x15a;" 
d="M172 1416v-875h3042v-208h-3042v-333h3375v874h-3042v209h3042v333h-3375zM2591 2569l-1548 -562v-330h85l1548 562v330h-85z" />
    <glyph glyph-name="sacute" unicode="&#x15b;" horiz-adv-x="3640" 
d="M135 874v-708h333v375h2709v-208h-1354v-333h1687v874h-3375zM2554 2044l-1548 -562v-330h85l1548 562v330h-85z" />
    <glyph glyph-name="Scircumflex" unicode="&#x15c;" 
d="M1808 2560l-843 -569v-305h144l750 507l751 -507h145l-1 305l-844 569h-102zM172 1416v-875h3042v-208h-3042v-333h3375v874h-3042v209h3042v333h-3375z" />
    <glyph glyph-name="scircumflex" unicode="&#x15d;" horiz-adv-x="3640" 
d="M135 874v-708h333v375h2709v-208h-1354v-333h1687v874h-3375zM1771 2015l-843 -570v-304h144l750 506l751 -506h145l-1 304l-844 570h-102z" />
    <glyph glyph-name="Scedilla" unicode="&#x15e;" 
d="M172 1415v-875h3042v-208h-3042v-333h1521v-595h1521v-208h-1521v-333h1854v874h-1521v262h1521v874h-3042v209h3042v333h-3375z" />
    <glyph glyph-name="scedilla" unicode="&#x15f;" horiz-adv-x="3640" 
d="M135 873v-707h333v374h2709v-208h-1188v1h-333v-1042h1521v-208h-1521v-333h1854v874h-1521v375h1521v874h-3375z" />
    <glyph glyph-name="Scaron" unicode="&#x160;" 
d="M172 1416v-875h3042v-208h-3042v-333h3375v874h-3042v209h3042v333h-3375zM2610 2560l-750 -506l-751 506h-144v-304l844 -570h102l844 570v304h-145z" />
    <glyph glyph-name="scaron" unicode="&#x161;" horiz-adv-x="3640" 
d="M135 874v-708h333v375h2709v-208h-1354v-333h1687v874h-3375zM2573 2015l-750 -507l-751 507h-144v-305l844 -569h102l844 569v305h-145z" />
    <glyph glyph-name="uni0162" unicode="&#x162;" horiz-adv-x="3519" 
d="M87 1423v-332h1521v-1687h1521v-208h-1521v-333h1854v874h-1521v1354h1521v332h-3375z" />
    <glyph glyph-name="uni0163" unicode="&#x163;" horiz-adv-x="3442" 
d="M153 1093v-1791h1521v-208h-1521v-333h1854v874h-1521v750h2876v333h-2876v375h-333z" />
    <glyph glyph-name="Tcaron" unicode="&#x164;" horiz-adv-x="3529" 
d="M87 1407v-333h1521v-1074h333v1074h1521v333h-3375zM2525 2560l-750 -506l-751 506h-144v-304l844 -570h102l844 570v304h-145z" />
    <glyph glyph-name="tcaron" unicode="&#x165;" horiz-adv-x="4123" 
d="M144 1087v-1082h333v374h2876v333h-2876v375h-333zM3686 874v-455l-589 -419h574l348 247v627h-333z" />
    <glyph glyph-name="Tbar" unicode="&#x166;" horiz-adv-x="3529" 
d="M87 1407v-333h1521v-209h-760v-333h760v-532h333v532h761v333h-761v209h1521v333h-3375z" />
    <glyph glyph-name="tbar" unicode="&#x167;" horiz-adv-x="3953" 
d="M1255 592q28 0 28 21q0 22 -28 22h-34l1 -43h33zM1222 572v-55q0 -4 -4 -4h-17q-4 0 -4 4l1 134q0 4 4 4h56q48 0 48 -41q0 -33 -36 -41l40 -55q3 -5 -3 -5h-20q-3 0 -5 2l-37 57h-23zM1383 671q-2 -3 -5 -3h-6q-6 0 -3 5l13 24q1 2 4 2h14q6 0 2 -4zM1353 598h60
q4 0 4 -4v-13q0 -4 -4 -4h-59v-43h67q4 0 4 -4v-13q0 -4 -4 -4h-88q-4 0 -4 4l1 134q0 4 4 4h87q4 0 4 -4v-13q0 -3 -4 -3h-68v-37zM1574 513q-4 0 -4 4l-2 111l-35 -112q-1 -3 -5 -3h-15q-3 0 -4 3l-37 115l-2 -114q0 -4 -3 -4h-16q-4 0 -4 4l5 134q0 4 4 4h25q4 0 5 -3
l35 -108l35 108q1 3 4 3h25q4 0 4 -4l5 -134q0 -4 -4 -4h-16zM1657 517q0 -4 -4 -4h-17q-4 0 -4 4l1 134q0 4 4 4h15q4 0 4 -4zM622 351q5 0 5 -5q-1 -30 -19 -49q-20 -21 -50 -21t-48 21q-19 21 -19 54q0 32 20 53q19 21 49 21q45 0 60 -40q2 -4 -3 -4l-14 -1q-3 0 -5 3
q-15 22 -40 22q-44 0 -44 -53q0 -55 47 -55q33 0 41 33h-32q-4 0 -4 4v13q0 4 4 4h52zM714 297q45 0 45 54t-46 54q-45 0 -45 -53q0 -55 46 -55zM762 298q-20 -22 -49 -22q-30 0 -49 21t-19 54q0 32 20 53t50 21q29 0 48 -20t19 -52q0 -33 -20 -55zM858 300q48 0 48 50
q0 52 -48 52h-30l1 -102h29zM859 422q70 0 70 -69q0 -73 -70 -73h-51q-3 0 -3 3v135q0 4 4 4h50zM975 364h60q4 0 4 -4v-13q0 -4 -4 -4h-59v-43h67q4 0 4 -3v-14q0 -3 -4 -3h-88q-4 0 -4 3l1 135q0 4 4 4h87q4 0 4 -4v-13q0 -4 -4 -4h-68v-37zM1093 367h59q4 0 4 -4v-13
q0 -4 -4 -4h-59l1 -63q0 -3 -4 -3h-17q-4 0 -4 3l1 135q0 4 4 4h87q4 0 4 -4v-13q0 -4 -4 -4h-68v-34zM1245 359q28 0 28 20q0 23 -28 23h-34v-43h34zM1211 339v-56q0 -3 -4 -3h-16q-4 0 -4 3v135q0 4 4 4h57q48 0 48 -41q0 -34 -36 -41l39 -56q4 -4 -2 -4h-20q-4 0 -5 2
l-38 57h-23zM1384 297q45 0 45 54t-47 54q-45 0 -45 -53q0 -55 47 -55zM1432 298q-20 -22 -50 -22q-29 0 -49 21q-19 21 -19 54q0 32 20 53t50 21t49 -20t19 -52q0 -33 -20 -55zM1510 283q0 -3 -4 -3h-16q-4 0 -4 3v135q0 4 4 4h15q4 0 4 -4zM1602 300q48 0 48 50
q0 52 -48 52h-29v-102h29zM1603 422q70 0 70 -69q0 -73 -70 -73h-50q-4 0 -4 3l1 135q0 4 3 4h50zM733 1374q59 -61 103 -126l8 -13q-9 -31 -14 -56q-12 -51 -18 -102h-79v297zM1177 1077h-183v-90h97l1 -16q0 -105 -28 -216q-21 -83 -57 -165l-6 -13q-8 41 -18 76
q-29 114 -71 197l-4 7l-4 8q-8 54 -8 106l1 16q1 45 7 90l4 30q7 39 16 76q8 30 19 65q17 52 38 100q12 28 25 53q9 18 17 35h-102q-21 -43 -39 -88l-2 -6q-37 49 -80 94h-158v-933h91v440q47 -44 83 -107l15 -27q35 -70 62 -169q10 -37 18 -77q7 -30 12 -60h143
q21 41 39 87q34 84 53 170q25 108 25 211q0 32 -3 65zM221 1301q28 0 28 23t-31 23h-41l1 -46h43zM177 1370h41q23 0 23 21q0 22 -27 22h-37v-43zM261 1292q-15 -13 -38 -13h-68q-5 0 -5 4l1 149q0 4 5 4h61q49 0 49 -43q0 -19 -12 -31q21 -12 21 -36q0 -20 -14 -34z
M431 1346q0 -71 -66 -71t-66 71v86q0 4 5 4h16q5 0 5 -4v-83q1 -51 41 -51q39 0 39 51v83q0 4 5 4h16q5 0 5 -4v-86zM525 1283q0 -4 -4 -4h-18q-5 0 -5 4l1 59l-48 89q-3 5 3 5h18q4 0 6 -3l33 -64h2l34 64q2 3 5 3h17q6 0 3 -5l-47 -89v-59zM71 1117h66q4 0 4 -4v-14
q0 -5 -4 -5h-66v-69q0 -4 -4 -4h-18q-5 0 -5 4l1 149q0 4 4 4h97q4 0 4 -4v-14q0 -5 -4 -5h-75v-38zM306 1089q1 -71 -66 -71q-66 0 -66 71l1 85q0 4 4 4h17q4 0 4 -4v-82q1 -52 41 -52q39 0 39 52l1 82q0 4 4 4h17q4 0 4 -4v-85zM440 1044q4 0 4 -4v-15q0 -4 -4 -4h-100
q-4 0 -4 4l1 149q0 4 4 4h17q4 0 4 -4l1 -130h77zM568 1044q4 0 4 -4v-15q0 -4 -4 -4h-100q-4 0 -4 4l1 149q0 4 4 4h17q4 0 4 -4l1 -130h77zM27 860h65q5 0 5 -5v-14q0 -4 -5 -4h-65v-69q0 -4 -4 -4h-19q-4 0 -4 4l1 148q0 5 4 5h97q4 0 4 -5v-14q0 -4 -4 -4h-76zM202 783
q50 0 50 59q0 60 -52 60q-50 0 -50 -58q0 -61 52 -61zM255 784q-22 -24 -55 -24t-54 23t-21 59t22 59t55 23t54 -22t21 -57q0 -37 -22 -61zM432 768q0 -4 -4 -4h-25q-3 0 -5 3l-71 123l1 -122q0 -4 -4 -4h-18q-5 0 -5 4l1 148q0 5 4 5h26q3 0 5 -3l68 -119l1 117q0 5 4 5h17
q4 0 4 -5zM574 902q0 -4 -4 -4h-45l1 -130q0 -4 -5 -4h-18q-4 0 -4 4v130h-44q-5 0 -5 4v14q0 5 5 5h115q4 0 4 -5v-14zM332 525q50 0 50 60q0 59 -51 59q-50 0 -50 -58q0 -61 51 -61zM386 527q-22 -24 -55 -24t-54 22q-22 24 -22 60q0 35 23 59q22 23 55 23q32 0 53 -22
q22 -23 22 -58q0 -36 -22 -60zM563 510q0 -4 -5 -4h-24q-4 0 -5 3l-71 124l1 -123q0 -4 -5 -4h-18q-4 0 -4 4l1 149q0 4 4 4h26q3 0 5 -3l68 -119l1 118q0 4 4 4h16q5 0 5 -4zM738 196q6 0 4 -6l-49 -181q-1 -5 -6 -5h-27q-4 0 -5 5l-37 142h-3l-36 -142q-2 -5 -6 -5h-26
q-5 0 -6 5l-50 181q-2 6 4 6h22q4 0 6 -4l36 -136h2l36 136q2 4 6 4h27q4 0 6 -4l35 -136h3l36 136q2 4 6 4h22zM798 118h80q6 0 6 -5v-18q0 -5 -6 -5h-80l1 -58h90q6 0 6 -5v-18q0 -5 -6 -5h-118q-6 0 -6 5l2 182q0 5 5 5h117q6 0 6 -5v-18q0 -5 -6 -5h-91v-50zM1011 31
q34 0 34 28q0 29 -39 29h-49v-57h54zM957 116h50q28 0 28 26q0 27 -34 27h-44v-53zM1059 21q-18 -17 -46 -17h-83q-6 0 -6 5l1 182q0 5 6 5h74q27 0 44 -15q17 -14 17 -37t-16 -39q26 -14 26 -43q0 -25 -17 -41zM1244 146h-19q-4 0 -6 4q-14 23 -44 23q-35 0 -35 -23
q0 -19 44 -32l8 -3q61 -18 61 -60q0 -55 -72 -55q-34 0 -57 18q-18 14 -24 35q-1 6 5 6h21q4 0 6 -4q14 -27 51 -27q38 0 38 23q0 21 -45 36l-9 3q-58 19 -59 55q-1 25 20 41q19 14 49 14q55 0 72 -48q2 -6 -5 -6zM1332 9q0 -5 -5 -5h-22q-6 0 -6 5l1 182q0 5 5 5h21
q5 0 5 -5zM1522 173q0 -5 -5 -5h-55l1 -159q0 -5 -5 -5h-23q-5 0 -5 5l1 159h-55q-5 0 -5 5v18q0 5 5 5h141q5 0 5 -5v-18zM1577 118h80q5 0 5 -5v-18q0 -5 -5 -5h-80v-58h91q5 0 5 -5v-18q0 -5 -5 -5h-119q-5 0 -5 5l1 182q0 5 5 5h118q5 0 5 -5v-18q0 -5 -5 -5h-92z" />
    <glyph glyph-name="Utilde" unicode="&#x168;" 
d="M3214 1416v-1083h-2709v1083h-333v-1416h3375v1416h-333zM2439 2560l-360 -443l-360 443h-158l-628 -774v-100h347l360 444l360 -444h159l628 774v100h-348z" />
    <glyph glyph-name="utilde" unicode="&#x169;" horiz-adv-x="3640" 
d="M3177 874v-541h-2709v541h-333v-874h3375v874h-333zM2402 2015l-360 -444l-360 444h-158l-628 -774v-100h347l360 443l360 -443h159l628 774v100h-348z" />
    <glyph glyph-name="Umacron" unicode="&#x16a;" 
d="M3214 1416v-1083h-2709v1083h-333v-1416h3375v1416h-333zM933 1961h1854v333h-1854v-333z" />
    <glyph glyph-name="umacron" unicode="&#x16b;" horiz-adv-x="3640" 
d="M3177 874v-541h-2709v541h-333v-874h3375v874h-333zM896 1411h1854v333h-1854v-333z" />
    <glyph glyph-name="Ubreve" unicode="&#x16c;" 
d="M3214 1416v-1083h-2709v1083h-333v-1416h3375v1416h-333zM2454 2560v-541h-1188v541h-333v-874h1854v874h-333z" />
    <glyph glyph-name="ubreve" unicode="&#x16d;" horiz-adv-x="3640" 
d="M3177 874v-541h-2709v541h-333v-874h3375v874h-333zM2417 2015v-542h-1188v542h-333v-874h1854v874h-333z" />
    <glyph glyph-name="Uring" unicode="&#x16e;" 
d="M3214 1416v-1083h-2709v1083h-333v-1416h3375v1416h-333zM933 1686h1854v874h-1854v-874zM1266 2228h1188v-209h-1188v209z" />
    <glyph glyph-name="uring" unicode="&#x16f;" horiz-adv-x="3640" 
d="M3177 874v-541h-2709v541h-333v-874h3375v874h-333zM896 1141h1854v874h-1854v-874zM1229 1682h1188v-209h-1188v209z" />
    <glyph glyph-name="Uhungarumlaut" unicode="&#x170;" 
d="M3214 1416v-1083h-2709v1083h-333v-1416h3375v1416h-333zM1720 2560l-1548 -551v-323h85l1548 551v323h-85zM3463 2560l-1549 -551v-323h85l1548 551v323h-84z" />
    <glyph glyph-name="uhungarumlaut" unicode="&#x171;" horiz-adv-x="3649" 
d="M3186 874v-541h-2709v541h-333v-874h3375v874h-333zM1692 2015l-1548 -551v-323h85l1548 550v324h-85zM3435 2015l-1549 -551v-323h85l1548 550v324h-84z" />
    <glyph glyph-name="Uogonek" unicode="&#x172;" 
d="M3214 1414v-1083h-427v2h-1854v-2h-428v1083h-333v-1416h761v-539h1854v333h-1521v206h2281v1416h-333z" />
    <glyph glyph-name="uogonek" unicode="&#x173;" horiz-adv-x="3640" 
d="M3177 876v-541h-2709v541h-333v-874h1521v-546h1854v333h-1521v208h1521v879h-333z" />
    <glyph glyph-name="Wcircumflex" unicode="&#x174;" horiz-adv-x="3419" 
d="M3181 1416l-674 -960l-674 960h-173l-674 -960l-674 960h-253v-220l841 -1196h173l674 959l674 -959h173l840 1196v220h-253zM1693 2560l-844 -569v-305h145l750 507l751 -507h145l-1 305l-844 569h-102z" />
    <glyph glyph-name="wcircumflex" unicode="&#x175;" horiz-adv-x="3640" 
d="M3177 874v-541h-1188v541h-333v-541h-1188v541h-333v-874h3375v874h-333zM1771 2015l-843 -570v-305h144l750 507l751 -507h145l-1 305l-844 570h-102z" />
    <glyph glyph-name="Ycircumflex" unicode="&#x176;" horiz-adv-x="3508" 
d="M3248 1416l-1492 -532l-1493 532h-139v-304l1135 -404l-1135 -404v-304h139l3236 1151v265h-251zM1760 2576l-843 -570v-304h144l750 507l751 -507h145l-1 304l-844 570h-102z" />
    <glyph glyph-name="ycircumflex" unicode="&#x177;" horiz-adv-x="3661" 
d="M3177 879v-541h-2709v541h-333v-874h3042v-208h-1354v-333h1687v1415h-333zM1771 2024l-843 -569v-305h144l750 507l751 -507h145l-1 305l-844 569h-102z" />
    <glyph glyph-name="Ydieresis" unicode="&#x178;" horiz-adv-x="3508" 
d="M3248 1416l-1492 -532l-1493 532h-139v-304l1135 -404l-1135 -404v-304h139l3236 1151v265h-251zM885 1957h333v333h-333v-333zM2406 1957h333v333h-333v-333z" />
    <glyph glyph-name="Zacute" unicode="&#x179;" horiz-adv-x="3607" 
d="M124 1416v-333h2244l-2244 -799v-284h3375v333h-2244l2244 799v284h-3375zM2543 2569l-1548 -562v-330h85l1548 562v330h-85z" />
    <glyph glyph-name="zacute" unicode="&#x17a;" horiz-adv-x="3590" 
d="M135 875v-708h333v375h1188v-542h1521v-208h-1354v-333h1687v874h-1521v542h-1854zM2554 2028l-1548 -562v-330h85l1548 562v330h-85z" />
    <glyph glyph-name="Zdotaccent" unicode="&#x17b;" horiz-adv-x="3607" 
d="M124 1416v-333h2244l-2244 -799v-284h3375v333h-2244l2244 799v284h-3375zM1645 1957h333v333h-333v-333z" />
    <glyph glyph-name="zdotaccent" unicode="&#x17c;" horiz-adv-x="3581" 
d="M126 881v-708h333v375h1188v-542h1521v-208h-1354v-333h1687v874h-1521v542h-1854zM1647 1422h333v333h-333v-333z" />
    <glyph glyph-name="Zcaron" unicode="&#x17d;" horiz-adv-x="3607" 
d="M124 1416v-333h2244l-2244 -799v-284h3375v333h-2244l2244 799v284h-3375zM2562 2560l-750 -506l-751 506h-144v-304l844 -570h102l844 570v304h-145z" />
    <glyph glyph-name="zcaron" unicode="&#x17e;" horiz-adv-x="3581" 
d="M126 885v-708h333v375h1188v-542h1521v-208h-1354v-333h1687v874h-1521v542h-1854zM2564 2029l-750 -506l-751 506h-144v-304l844 -570h102l844 570v304h-145z" />
    <glyph glyph-name="longs" unicode="&#x17f;" horiz-adv-x="864" 
d="M145 869v-1416h333v1083h333v333h-666z" />
    <glyph glyph-name="uni018F" unicode="&#x18f;" horiz-adv-x="3548" 
d="M172 1416v-333h2876v-209h-2876v-874h3209v1416h-3209zM505 541h2543v-208h-2543v208z" />
    <glyph glyph-name="florin" unicode="&#x192;" horiz-adv-x="3530" 
d="M1576 1416v-542h-727v-333h727v-208h-1488v-333h1821v541h794v333h-794v209h1554v333h-1887z" />
    <glyph glyph-name="uni019D" unicode="&#x19d;" horiz-adv-x="3702" 
d="M3202 1415v-1013l-2847 1013h-196v-1871l-588 -419h574l347 247v1640l2848 -1013h195v1416h-333z" />
    <glyph glyph-name="Gcaron" unicode="&#x1e6;" 
d="M172 1416v-1416h3375v874h-1687v-333h1354v-208h-2709v750h3042v333h-3375zM2610 2524l-750 -507l-751 507h-144v-304l844 -570h102l844 570v304h-145z" />
    <glyph glyph-name="gcaron" unicode="&#x1e7;" horiz-adv-x="3672" 
d="M135 874v-875h3053v-208h-1360v-333h1693v1416h-3386zM468 541h2720v-209h-2720v209zM2579 2018l-751 -506l-750 506h-145v-304l844 -570h102l844 570v304h-144z" />
    <glyph glyph-name="uni01EA" unicode="&#x1ea;" 
d="M172 1414v-1416h761v-541h1854v333h-1521v208h2281v1416h-3375zM505 1081h2709v-750h-2709v750z" />
    <glyph glyph-name="uni01EB" unicode="&#x1eb;" horiz-adv-x="3640" 
d="M135 878v-875h761v-541h1854v333h-1521v208h2281v875h-3375zM468 545h2709v-209h-2709v209z" />
    <glyph glyph-name="Aringacute" unicode="&#x1fa;" 
d="M172 1416v-1416h333v541h2709v-541h333v1416h-3375zM505 1083h2709v-209h-2709v209zM2591 3268l-1548 -551v-157h-110v-874h1854v874h-1191l1080 385v323h-85zM1266 2228h1188v-209h-1188v209z" />
    <glyph glyph-name="aringacute" unicode="&#x1fb;" horiz-adv-x="3616" 
d="M1778 890v-333h1354v-209h-3042v-874h3375v1416h-1687zM423 15h2709v-208h-2709v208zM3270 2751l-1548 -562v-155h-111v-874h1854v874h-1176l1066 387v330h-85zM1944 1702h1188v-209h-1188v209z" />
    <glyph glyph-name="AEacute" unicode="&#x1fc;" horiz-adv-x="6590" 
d="M172 1416v-1416h333v541h2709v-541h3209v333h-2876v208h2876v333h-2876v209h2876v333h-6251zM505 1083h2709v-209h-2709v209zM4029 2560l-1548 -551v-323h85l1548 551v323h-85z" />
    <glyph glyph-name="aeacute" unicode="&#x1fd;" horiz-adv-x="6638" 
d="M1778 884v-333h1354v-209h-3042v-874h4730v333h-1355v208h3043v875h-4730zM3465 551h2710v-209h-2710v209zM423 9h2709v-208h-2709v208zM4031 2037l-1549 -562v-330h85l1548 562v330h-84z" />
    <glyph glyph-name="Oslashacute" unicode="&#x1fe;" 
d="M2591 2546l-1548 -551v-324h85l1548 551v324h-85zM172 0h3375v1416h-3375v-1416zM505 1083h1911l-1911 -681v681zM3214 1013v-680h-1911z" />
    <glyph glyph-name="oslashacute" unicode="&#x1ff;" horiz-adv-x="3640" 
d="M2554 2010l-1548 -551v-323h85l1548 551v323h-85zM135 876v-875h871v-1h85l4 1h2415v875h-3375zM2616 543h561v-209h-1147zM468 543h1155l-586 -209h-569v209z" />
    <glyph glyph-name="uni0218" unicode="&#x218;" 
d="M172 1418v-874h3042v-208h-3042v-333h3375v874h-3042v208h3042v333h-3375zM1693 -539v-455l-588 -419h574l347 247v627h-333z" />
    <glyph glyph-name="uni0219" unicode="&#x219;" horiz-adv-x="3640" 
d="M135 873v-708h333v375h2709v-209h-1354v-332h1687v874h-3375zM1656 -381v-455l-588 -419h574l347 247v627h-333z" />
    <glyph glyph-name="uni0232" unicode="&#x232;" horiz-adv-x="3508" 
d="M3248 1416l-1492 -532l-1493 532h-139v-304l1135 -404l-1135 -404v-304h139l3236 1151v265h-251zM885 1957h1854v333h-1854v-333z" />
    <glyph glyph-name="uni0233" unicode="&#x233;" horiz-adv-x="3661" 
d="M3177 879v-541h-2709v541h-333v-874h3042v-208h-1354v-333h1687v1415h-333zM896 1421h1854v333h-1854v-333z" />
    <glyph glyph-name="uni0237" unicode="&#x237;" horiz-adv-x="3589" 
d="M3105 869v-1083h-3042v-333h3375v1416h-333z" />
    <glyph glyph-name="uni0259" unicode="&#x259;" horiz-adv-x="3671" 
d="M145 879v-333h3042v-209h-3042v-874h3375v1416h-3375zM478 4h2709v-208h-2709v208z" />
    <glyph glyph-name="uni0272" unicode="&#x272;" horiz-adv-x="3720" 
d="M214 880v-1329l-588 -419h574l347 247v1169h2710v-542h333v874h-3376z" />
    <glyph glyph-name="circumflex" unicode="&#x2c6;" horiz-adv-x="1975" 
d="M844 2007l-844 -570v-304h144l751 507l750 -507h145v304l-844 570h-102z" />
    <glyph glyph-name="caron" unicode="&#x2c7;" horiz-adv-x="1934" 
d="M1646 1998l-751 -507l-750 507h-145l1 -304l843 -570h102l844 570v304h-144z" />
    <glyph glyph-name="breve" unicode="&#x2d8;" horiz-adv-x="2020" 
d="M1521 1996v-541h-1188v541h-333v-874h1854v874h-333z" />
    <glyph glyph-name="dotaccent" unicode="&#x2d9;" horiz-adv-x="511" 
d="M0 1387h333v333h-333v-333z" />
    <glyph glyph-name="ring" unicode="&#x2da;" horiz-adv-x="2044" 
d="M0 1118h1854v874h-1854v-874zM333 1659h1188v-208h-1188v208z" />
    <glyph glyph-name="ogonek" unicode="&#x2db;" horiz-adv-x="1933" 
d="M0 -107v-874h1854v333h-1521v208h1521v333h-1854z" />
    <glyph glyph-name="tilde" unicode="&#x2dc;" horiz-adv-x="1966" 
d="M1507 2004l-360 -443l-360 443h-159l-628 -774v-100h348l359 443l360 -443h159l628 774v100h-347z" />
    <glyph glyph-name="hungarumlaut" unicode="&#x2dd;" horiz-adv-x="3444" 
d="M1548 1992l-1548 -551v-323h85l1548 551v323h-85zM3291 1992l-1549 -551v-323h85l1548 551v323h-84z" />
    <glyph glyph-name="hookabovecomb" unicode="&#x309;" horiz-adv-x="2002" 
d="M0 1998v-333h1521v-208h-594v-333h927v874h-1854z" />
    <glyph glyph-name="uni0326" unicode="&#x326;" horiz-adv-x="1090" 
d="M588 -96v-453l-588 -417h574l347 246v624h-333z" />
    <glyph glyph-name="tonos" unicode="&#x384;" horiz-adv-x="1710" 
d="M1548 1996l-1548 -562v-330h85l1548 562v330h-85z" />
    <glyph glyph-name="dieresistonos" unicode="&#x385;" horiz-adv-x="1952" 
d="M1255 592q28 0 28 21q0 22 -28 22h-34l1 -43h33zM1222 572v-55q0 -4 -4 -4h-17q-4 0 -4 4l1 134q0 4 4 4h56q48 0 48 -41q0 -33 -36 -41l40 -55q3 -5 -3 -5h-20q-3 0 -5 2l-37 57h-23zM1383 671q-2 -3 -5 -3h-6q-6 0 -3 5l13 24q1 2 4 2h14q6 0 2 -4zM1353 598h60
q4 0 4 -4v-13q0 -4 -4 -4h-59v-43h67q4 0 4 -4v-13q0 -4 -4 -4h-88q-4 0 -4 4l1 134q0 4 4 4h87q4 0 4 -4v-13q0 -3 -4 -3h-68v-37zM1574 513q-4 0 -4 4l-2 111l-35 -112q-1 -3 -5 -3h-15q-3 0 -4 3l-37 115l-2 -114q0 -4 -3 -4h-16q-4 0 -4 4l5 134q0 4 4 4h25q4 0 5 -3
l35 -108l35 108q1 3 4 3h25q4 0 4 -4l5 -134q0 -4 -4 -4h-16zM1657 517q0 -4 -4 -4h-17q-4 0 -4 4l1 134q0 4 4 4h15q4 0 4 -4zM622 351q5 0 5 -5q-1 -30 -19 -49q-20 -21 -50 -21t-48 21q-19 21 -19 54q0 32 20 53q19 21 49 21q45 0 60 -40q2 -4 -3 -4l-14 -1q-3 0 -5 3
q-15 22 -40 22q-44 0 -44 -53q0 -55 47 -55q33 0 41 33h-32q-4 0 -4 4v13q0 4 4 4h52zM714 297q45 0 45 54t-46 54q-45 0 -45 -53q0 -55 46 -55zM762 298q-20 -22 -49 -22q-30 0 -49 21t-19 54q0 32 20 53t50 21q29 0 48 -20t19 -52q0 -33 -20 -55zM858 300q48 0 48 50
q0 52 -48 52h-30l1 -102h29zM859 422q70 0 70 -69q0 -73 -70 -73h-51q-3 0 -3 3v135q0 4 4 4h50zM975 364h60q4 0 4 -4v-13q0 -4 -4 -4h-59v-43h67q4 0 4 -3v-14q0 -3 -4 -3h-88q-4 0 -4 3l1 135q0 4 4 4h87q4 0 4 -4v-13q0 -4 -4 -4h-68v-37zM1093 367h59q4 0 4 -4v-13
q0 -4 -4 -4h-59l1 -63q0 -3 -4 -3h-17q-4 0 -4 3l1 135q0 4 4 4h87q4 0 4 -4v-13q0 -4 -4 -4h-68v-34zM1245 359q28 0 28 20q0 23 -28 23h-34v-43h34zM1211 339v-56q0 -3 -4 -3h-16q-4 0 -4 3v135q0 4 4 4h57q48 0 48 -41q0 -34 -36 -41l39 -56q4 -4 -2 -4h-20q-4 0 -5 2
l-38 57h-23zM1384 297q45 0 45 54t-47 54q-45 0 -45 -53q0 -55 47 -55zM1432 298q-20 -22 -50 -22q-29 0 -49 21q-19 21 -19 54q0 32 20 53t50 21t49 -20t19 -52q0 -33 -20 -55zM1510 283q0 -3 -4 -3h-16q-4 0 -4 3v135q0 4 4 4h15q4 0 4 -4zM1602 300q48 0 48 50
q0 52 -48 52h-29v-102h29zM1603 422q70 0 70 -69q0 -73 -70 -73h-50q-4 0 -4 3l1 135q0 4 3 4h50zM733 1374q59 -61 103 -126l8 -13q-9 -31 -14 -56q-12 -51 -18 -102h-79v297zM1177 1077h-183v-90h97l1 -16q0 -105 -28 -216q-21 -83 -57 -165l-6 -13q-8 41 -18 76
q-29 114 -71 197l-4 7l-4 8q-8 54 -8 106l1 16q1 45 7 90l4 30q7 39 16 76q8 30 19 65q17 52 38 100q12 28 25 53q9 18 17 35h-102q-21 -43 -39 -88l-2 -6q-37 49 -80 94h-158v-933h91v440q47 -44 83 -107l15 -27q35 -70 62 -169q10 -37 18 -77q7 -30 12 -60h143
q21 41 39 87q34 84 53 170q25 108 25 211q0 32 -3 65zM221 1301q28 0 28 23t-31 23h-41l1 -46h43zM177 1370h41q23 0 23 21q0 22 -27 22h-37v-43zM261 1292q-15 -13 -38 -13h-68q-5 0 -5 4l1 149q0 4 5 4h61q49 0 49 -43q0 -19 -12 -31q21 -12 21 -36q0 -20 -14 -34z
M431 1346q0 -71 -66 -71t-66 71v86q0 4 5 4h16q5 0 5 -4v-83q1 -51 41 -51q39 0 39 51v83q0 4 5 4h16q5 0 5 -4v-86zM525 1283q0 -4 -4 -4h-18q-5 0 -5 4l1 59l-48 89q-3 5 3 5h18q4 0 6 -3l33 -64h2l34 64q2 3 5 3h17q6 0 3 -5l-47 -89v-59zM71 1117h66q4 0 4 -4v-14
q0 -5 -4 -5h-66v-69q0 -4 -4 -4h-18q-5 0 -5 4l1 149q0 4 4 4h97q4 0 4 -4v-14q0 -5 -4 -5h-75v-38zM306 1089q1 -71 -66 -71q-66 0 -66 71l1 85q0 4 4 4h17q4 0 4 -4v-82q1 -52 41 -52q39 0 39 52l1 82q0 4 4 4h17q4 0 4 -4v-85zM440 1044q4 0 4 -4v-15q0 -4 -4 -4h-100
q-4 0 -4 4l1 149q0 4 4 4h17q4 0 4 -4l1 -130h77zM568 1044q4 0 4 -4v-15q0 -4 -4 -4h-100q-4 0 -4 4l1 149q0 4 4 4h17q4 0 4 -4l1 -130h77zM27 860h65q5 0 5 -5v-14q0 -4 -5 -4h-65v-69q0 -4 -4 -4h-19q-4 0 -4 4l1 148q0 5 4 5h97q4 0 4 -5v-14q0 -4 -4 -4h-76zM202 783
q50 0 50 59q0 60 -52 60q-50 0 -50 -58q0 -61 52 -61zM255 784q-22 -24 -55 -24t-54 23t-21 59t22 59t55 23t54 -22t21 -57q0 -37 -22 -61zM432 768q0 -4 -4 -4h-25q-3 0 -5 3l-71 123l1 -122q0 -4 -4 -4h-18q-5 0 -5 4l1 148q0 5 4 5h26q3 0 5 -3l68 -119l1 117q0 5 4 5h17
q4 0 4 -5zM574 902q0 -4 -4 -4h-45l1 -130q0 -4 -5 -4h-18q-4 0 -4 4v130h-44q-5 0 -5 4v14q0 5 5 5h115q4 0 4 -5v-14zM332 525q50 0 50 60q0 59 -51 59q-50 0 -50 -58q0 -61 51 -61zM386 527q-22 -24 -55 -24t-54 22q-22 24 -22 60q0 35 23 59q22 23 55 23q32 0 53 -22
q22 -23 22 -58q0 -36 -22 -60zM563 510q0 -4 -5 -4h-24q-4 0 -5 3l-71 124l1 -123q0 -4 -5 -4h-18q-4 0 -4 4l1 149q0 4 4 4h26q3 0 5 -3l68 -119l1 118q0 4 4 4h16q5 0 5 -4zM738 196q6 0 4 -6l-49 -181q-1 -5 -6 -5h-27q-4 0 -5 5l-37 142h-3l-36 -142q-2 -5 -6 -5h-26
q-5 0 -6 5l-50 181q-2 6 4 6h22q4 0 6 -4l36 -136h2l36 136q2 4 6 4h27q4 0 6 -4l35 -136h3l36 136q2 4 6 4h22zM798 118h80q6 0 6 -5v-18q0 -5 -6 -5h-80l1 -58h90q6 0 6 -5v-18q0 -5 -6 -5h-118q-6 0 -6 5l2 182q0 5 5 5h117q6 0 6 -5v-18q0 -5 -6 -5h-91v-50zM1011 31
q34 0 34 28q0 29 -39 29h-49v-57h54zM957 116h50q28 0 28 26q0 27 -34 27h-44v-53zM1059 21q-18 -17 -46 -17h-83q-6 0 -6 5l1 182q0 5 6 5h74q27 0 44 -15q17 -14 17 -37t-16 -39q26 -14 26 -43q0 -25 -17 -41zM1244 146h-19q-4 0 -6 4q-14 23 -44 23q-35 0 -35 -23
q0 -19 44 -32l8 -3q61 -18 61 -60q0 -55 -72 -55q-34 0 -57 18q-18 14 -24 35q-1 6 5 6h21q4 0 6 -4q14 -27 51 -27q38 0 38 23q0 21 -45 36l-9 3q-58 19 -59 55q-1 25 20 41q19 14 49 14q55 0 72 -48q2 -6 -5 -6zM1332 9q0 -5 -5 -5h-22q-6 0 -6 5l1 182q0 5 5 5h21
q5 0 5 -5zM1522 173q0 -5 -5 -5h-55l1 -159q0 -5 -5 -5h-23q-5 0 -5 5l1 159h-55q-5 0 -5 5v18q0 5 5 5h141q5 0 5 -5v-18zM1577 118h80q5 0 5 -5v-18q0 -5 -5 -5h-80v-58h91q5 0 5 -5v-18q0 -5 -5 -5h-119q-5 0 -5 5l1 182q0 5 5 5h118q5 0 5 -5v-18q0 -5 -5 -5h-92z" />
    <glyph glyph-name="Alphatonos" unicode="&#x386;" horiz-adv-x="4740" 
d="M1252 1416v-1416h333v541h2710v-541h333v1416h-3376zM1585 1083h2710v-209h-2710v209zM588 1413v-453l-588 -417h574l347 246v624h-333z" />
    <glyph glyph-name="Epsilontonos" unicode="&#x388;" horiz-adv-x="4564" 
d="M1255 592q28 0 28 21q0 22 -28 22h-34l1 -43h33zM1222 572v-55q0 -4 -4 -4h-17q-4 0 -4 4l1 134q0 4 4 4h56q48 0 48 -41q0 -33 -36 -41l40 -55q3 -5 -3 -5h-20q-3 0 -5 2l-37 57h-23zM1383 671q-2 -3 -5 -3h-6q-6 0 -3 5l13 24q1 2 4 2h14q6 0 2 -4zM1353 598h60
q4 0 4 -4v-13q0 -4 -4 -4h-59v-43h67q4 0 4 -4v-13q0 -4 -4 -4h-88q-4 0 -4 4l1 134q0 4 4 4h87q4 0 4 -4v-13q0 -3 -4 -3h-68v-37zM1574 513q-4 0 -4 4l-2 111l-35 -112q-1 -3 -5 -3h-15q-3 0 -4 3l-37 115l-2 -114q0 -4 -3 -4h-16q-4 0 -4 4l5 134q0 4 4 4h25q4 0 5 -3
l35 -108l35 108q1 3 4 3h25q4 0 4 -4l5 -134q0 -4 -4 -4h-16zM1657 517q0 -4 -4 -4h-17q-4 0 -4 4l1 134q0 4 4 4h15q4 0 4 -4zM622 351q5 0 5 -5q-1 -30 -19 -49q-20 -21 -50 -21t-48 21q-19 21 -19 54q0 32 20 53q19 21 49 21q45 0 60 -40q2 -4 -3 -4l-14 -1q-3 0 -5 3
q-15 22 -40 22q-44 0 -44 -53q0 -55 47 -55q33 0 41 33h-32q-4 0 -4 4v13q0 4 4 4h52zM714 297q45 0 45 54t-46 54q-45 0 -45 -53q0 -55 46 -55zM762 298q-20 -22 -49 -22q-30 0 -49 21t-19 54q0 32 20 53t50 21q29 0 48 -20t19 -52q0 -33 -20 -55zM858 300q48 0 48 50
q0 52 -48 52h-30l1 -102h29zM859 422q70 0 70 -69q0 -73 -70 -73h-51q-3 0 -3 3v135q0 4 4 4h50zM975 364h60q4 0 4 -4v-13q0 -4 -4 -4h-59v-43h67q4 0 4 -3v-14q0 -3 -4 -3h-88q-4 0 -4 3l1 135q0 4 4 4h87q4 0 4 -4v-13q0 -4 -4 -4h-68v-37zM1093 367h59q4 0 4 -4v-13
q0 -4 -4 -4h-59l1 -63q0 -3 -4 -3h-17q-4 0 -4 3l1 135q0 4 4 4h87q4 0 4 -4v-13q0 -4 -4 -4h-68v-34zM1245 359q28 0 28 20q0 23 -28 23h-34v-43h34zM1211 339v-56q0 -3 -4 -3h-16q-4 0 -4 3v135q0 4 4 4h57q48 0 48 -41q0 -34 -36 -41l39 -56q4 -4 -2 -4h-20q-4 0 -5 2
l-38 57h-23zM1384 297q45 0 45 54t-47 54q-45 0 -45 -53q0 -55 47 -55zM1432 298q-20 -22 -50 -22q-29 0 -49 21q-19 21 -19 54q0 32 20 53t50 21t49 -20t19 -52q0 -33 -20 -55zM1510 283q0 -3 -4 -3h-16q-4 0 -4 3v135q0 4 4 4h15q4 0 4 -4zM1602 300q48 0 48 50
q0 52 -48 52h-29v-102h29zM1603 422q70 0 70 -69q0 -73 -70 -73h-50q-4 0 -4 3l1 135q0 4 3 4h50zM733 1374q59 -61 103 -126l8 -13q-9 -31 -14 -56q-12 -51 -18 -102h-79v297zM1177 1077h-183v-90h97l1 -16q0 -105 -28 -216q-21 -83 -57 -165l-6 -13q-8 41 -18 76
q-29 114 -71 197l-4 7l-4 8q-8 54 -8 106l1 16q1 45 7 90l4 30q7 39 16 76q8 30 19 65q17 52 38 100q12 28 25 53q9 18 17 35h-102q-21 -43 -39 -88l-2 -6q-37 49 -80 94h-158v-933h91v440q47 -44 83 -107l15 -27q35 -70 62 -169q10 -37 18 -77q7 -30 12 -60h143
q21 41 39 87q34 84 53 170q25 108 25 211q0 32 -3 65zM221 1301q28 0 28 23t-31 23h-41l1 -46h43zM177 1370h41q23 0 23 21q0 22 -27 22h-37v-43zM261 1292q-15 -13 -38 -13h-68q-5 0 -5 4l1 149q0 4 5 4h61q49 0 49 -43q0 -19 -12 -31q21 -12 21 -36q0 -20 -14 -34z
M431 1346q0 -71 -66 -71t-66 71v86q0 4 5 4h16q5 0 5 -4v-83q1 -51 41 -51q39 0 39 51v83q0 4 5 4h16q5 0 5 -4v-86zM525 1283q0 -4 -4 -4h-18q-5 0 -5 4l1 59l-48 89q-3 5 3 5h18q4 0 6 -3l33 -64h2l34 64q2 3 5 3h17q6 0 3 -5l-47 -89v-59zM71 1117h66q4 0 4 -4v-14
q0 -5 -4 -5h-66v-69q0 -4 -4 -4h-18q-5 0 -5 4l1 149q0 4 4 4h97q4 0 4 -4v-14q0 -5 -4 -5h-75v-38zM306 1089q1 -71 -66 -71q-66 0 -66 71l1 85q0 4 4 4h17q4 0 4 -4v-82q1 -52 41 -52q39 0 39 52l1 82q0 4 4 4h17q4 0 4 -4v-85zM440 1044q4 0 4 -4v-15q0 -4 -4 -4h-100
q-4 0 -4 4l1 149q0 4 4 4h17q4 0 4 -4l1 -130h77zM568 1044q4 0 4 -4v-15q0 -4 -4 -4h-100q-4 0 -4 4l1 149q0 4 4 4h17q4 0 4 -4l1 -130h77zM27 860h65q5 0 5 -5v-14q0 -4 -5 -4h-65v-69q0 -4 -4 -4h-19q-4 0 -4 4l1 148q0 5 4 5h97q4 0 4 -5v-14q0 -4 -4 -4h-76zM202 783
q50 0 50 59q0 60 -52 60q-50 0 -50 -58q0 -61 52 -61zM255 784q-22 -24 -55 -24t-54 23t-21 59t22 59t55 23t54 -22t21 -57q0 -37 -22 -61zM432 768q0 -4 -4 -4h-25q-3 0 -5 3l-71 123l1 -122q0 -4 -4 -4h-18q-5 0 -5 4l1 148q0 5 4 5h26q3 0 5 -3l68 -119l1 117q0 5 4 5h17
q4 0 4 -5zM574 902q0 -4 -4 -4h-45l1 -130q0 -4 -5 -4h-18q-4 0 -4 4v130h-44q-5 0 -5 4v14q0 5 5 5h115q4 0 4 -5v-14zM332 525q50 0 50 60q0 59 -51 59q-50 0 -50 -58q0 -61 51 -61zM386 527q-22 -24 -55 -24t-54 22q-22 24 -22 60q0 35 23 59q22 23 55 23q32 0 53 -22
q22 -23 22 -58q0 -36 -22 -60zM563 510q0 -4 -5 -4h-24q-4 0 -5 3l-71 124l1 -123q0 -4 -5 -4h-18q-4 0 -4 4l1 149q0 4 4 4h26q3 0 5 -3l68 -119l1 118q0 4 4 4h16q5 0 5 -4zM738 196q6 0 4 -6l-49 -181q-1 -5 -6 -5h-27q-4 0 -5 5l-37 142h-3l-36 -142q-2 -5 -6 -5h-26
q-5 0 -6 5l-50 181q-2 6 4 6h22q4 0 6 -4l36 -136h2l36 136q2 4 6 4h27q4 0 6 -4l35 -136h3l36 136q2 4 6 4h22zM798 118h80q6 0 6 -5v-18q0 -5 -6 -5h-80l1 -58h90q6 0 6 -5v-18q0 -5 -6 -5h-118q-6 0 -6 5l2 182q0 5 5 5h117q6 0 6 -5v-18q0 -5 -6 -5h-91v-50zM1011 31
q34 0 34 28q0 29 -39 29h-49v-57h54zM957 116h50q28 0 28 26q0 27 -34 27h-44v-53zM1059 21q-18 -17 -46 -17h-83q-6 0 -6 5l1 182q0 5 6 5h74q27 0 44 -15q17 -14 17 -37t-16 -39q26 -14 26 -43q0 -25 -17 -41zM1244 146h-19q-4 0 -6 4q-14 23 -44 23q-35 0 -35 -23
q0 -19 44 -32l8 -3q61 -18 61 -60q0 -55 -72 -55q-34 0 -57 18q-18 14 -24 35q-1 6 5 6h21q4 0 6 -4q14 -27 51 -27q38 0 38 23q0 21 -45 36l-9 3q-58 19 -59 55q-1 25 20 41q19 14 49 14q55 0 72 -48q2 -6 -5 -6zM1332 9q0 -5 -5 -5h-22q-6 0 -6 5l1 182q0 5 5 5h21
q5 0 5 -5zM1522 173q0 -5 -5 -5h-55l1 -159q0 -5 -5 -5h-23q-5 0 -5 5l1 159h-55q-5 0 -5 5v18q0 5 5 5h141q5 0 5 -5v-18zM1577 118h80q5 0 5 -5v-18q0 -5 -5 -5h-80v-58h91q5 0 5 -5v-18q0 -5 -5 -5h-119q-5 0 -5 5l1 182q0 5 5 5h118q5 0 5 -5v-18q0 -5 -5 -5h-92z" />
    <glyph glyph-name="Etatonos" unicode="&#x389;" horiz-adv-x="4724" 
d="M4293 1416v-542h-2709v542h-333v-1416h333v541h2709v-541h333v1416h-333zM588 1416v-454l-588 -416h574l347 246v624h-333z" />
    <glyph glyph-name="Iotatonos" unicode="&#x38a;" horiz-adv-x="1690" 
d="M1221 0h333v1416h-333v-1416zM588 1416v-454l-588 -416h574l347 246v624h-333z" />
    <glyph glyph-name="Omicrontonos" unicode="&#x38c;" horiz-adv-x="4695" 
d="M1242 0h3376v1416h-3376v-1416zM1575 1083h2710v-750h-2710v750zM588 1416v-454l-588 -416h574l347 246v624h-333z" />
    <glyph glyph-name="Upsilontonos" unicode="&#x38e;" horiz-adv-x="4740" 
d="M4377 1416l-1493 -532l-1492 532h-140v-304l1136 -404l-1136 -404v-304h140l3236 1151v265h-251zM588 1416v-454l-588 -416h574l347 246v624h-333z" />
    <glyph glyph-name="Omegatonos" unicode="&#x38f;" horiz-adv-x="5090" 
d="M1254 1416v-1083h-333v-333h1522v333h-856v750h2710v-750h-856v-333h1522v333h-333v1083h-3376zM588 1416v-454l-588 -416h574l347 246v624h-333z" />
    <glyph glyph-name="iotadieresistonos" unicode="&#x390;" horiz-adv-x="1950" 
d="M761 0h333v874h-333v-874zM1659 2018l-1326 -482v202h-333v-333h111v-279h85l1325 481v-202h333v333h-111v280h-84z" />
    <glyph glyph-name="Alpha" unicode="&#x391;" horiz-adv-x="3563" 
d="M1255 592q28 0 28 21q0 22 -28 22h-34l1 -43h33zM1222 572v-55q0 -4 -4 -4h-17q-4 0 -4 4l1 134q0 4 4 4h56q48 0 48 -41q0 -33 -36 -41l40 -55q3 -5 -3 -5h-20q-3 0 -5 2l-37 57h-23zM1383 671q-2 -3 -5 -3h-6q-6 0 -3 5l13 24q1 2 4 2h14q6 0 2 -4zM1353 598h60
q4 0 4 -4v-13q0 -4 -4 -4h-59v-43h67q4 0 4 -4v-13q0 -4 -4 -4h-88q-4 0 -4 4l1 134q0 4 4 4h87q4 0 4 -4v-13q0 -3 -4 -3h-68v-37zM1574 513q-4 0 -4 4l-2 111l-35 -112q-1 -3 -5 -3h-15q-3 0 -4 3l-37 115l-2 -114q0 -4 -3 -4h-16q-4 0 -4 4l5 134q0 4 4 4h25q4 0 5 -3
l35 -108l35 108q1 3 4 3h25q4 0 4 -4l5 -134q0 -4 -4 -4h-16zM1657 517q0 -4 -4 -4h-17q-4 0 -4 4l1 134q0 4 4 4h15q4 0 4 -4zM622 351q5 0 5 -5q-1 -30 -19 -49q-20 -21 -50 -21t-48 21q-19 21 -19 54q0 32 20 53q19 21 49 21q45 0 60 -40q2 -4 -3 -4l-14 -1q-3 0 -5 3
q-15 22 -40 22q-44 0 -44 -53q0 -55 47 -55q33 0 41 33h-32q-4 0 -4 4v13q0 4 4 4h52zM714 297q45 0 45 54t-46 54q-45 0 -45 -53q0 -55 46 -55zM762 298q-20 -22 -49 -22q-30 0 -49 21t-19 54q0 32 20 53t50 21q29 0 48 -20t19 -52q0 -33 -20 -55zM858 300q48 0 48 50
q0 52 -48 52h-30l1 -102h29zM859 422q70 0 70 -69q0 -73 -70 -73h-51q-3 0 -3 3v135q0 4 4 4h50zM975 364h60q4 0 4 -4v-13q0 -4 -4 -4h-59v-43h67q4 0 4 -3v-14q0 -3 -4 -3h-88q-4 0 -4 3l1 135q0 4 4 4h87q4 0 4 -4v-13q0 -4 -4 -4h-68v-37zM1093 367h59q4 0 4 -4v-13
q0 -4 -4 -4h-59l1 -63q0 -3 -4 -3h-17q-4 0 -4 3l1 135q0 4 4 4h87q4 0 4 -4v-13q0 -4 -4 -4h-68v-34zM1245 359q28 0 28 20q0 23 -28 23h-34v-43h34zM1211 339v-56q0 -3 -4 -3h-16q-4 0 -4 3v135q0 4 4 4h57q48 0 48 -41q0 -34 -36 -41l39 -56q4 -4 -2 -4h-20q-4 0 -5 2
l-38 57h-23zM1384 297q45 0 45 54t-47 54q-45 0 -45 -53q0 -55 47 -55zM1432 298q-20 -22 -50 -22q-29 0 -49 21q-19 21 -19 54q0 32 20 53t50 21t49 -20t19 -52q0 -33 -20 -55zM1510 283q0 -3 -4 -3h-16q-4 0 -4 3v135q0 4 4 4h15q4 0 4 -4zM1602 300q48 0 48 50
q0 52 -48 52h-29v-102h29zM1603 422q70 0 70 -69q0 -73 -70 -73h-50q-4 0 -4 3l1 135q0 4 3 4h50zM733 1374q59 -61 103 -126l8 -13q-9 -31 -14 -56q-12 -51 -18 -102h-79v297zM1177 1077h-183v-90h97l1 -16q0 -105 -28 -216q-21 -83 -57 -165l-6 -13q-8 41 -18 76
q-29 114 -71 197l-4 7l-4 8q-8 54 -8 106l1 16q1 45 7 90l4 30q7 39 16 76q8 30 19 65q17 52 38 100q12 28 25 53q9 18 17 35h-102q-21 -43 -39 -88l-2 -6q-37 49 -80 94h-158v-933h91v440q47 -44 83 -107l15 -27q35 -70 62 -169q10 -37 18 -77q7 -30 12 -60h143
q21 41 39 87q34 84 53 170q25 108 25 211q0 32 -3 65zM221 1301q28 0 28 23t-31 23h-41l1 -46h43zM177 1370h41q23 0 23 21q0 22 -27 22h-37v-43zM261 1292q-15 -13 -38 -13h-68q-5 0 -5 4l1 149q0 4 5 4h61q49 0 49 -43q0 -19 -12 -31q21 -12 21 -36q0 -20 -14 -34z
M431 1346q0 -71 -66 -71t-66 71v86q0 4 5 4h16q5 0 5 -4v-83q1 -51 41 -51q39 0 39 51v83q0 4 5 4h16q5 0 5 -4v-86zM525 1283q0 -4 -4 -4h-18q-5 0 -5 4l1 59l-48 89q-3 5 3 5h18q4 0 6 -3l33 -64h2l34 64q2 3 5 3h17q6 0 3 -5l-47 -89v-59zM71 1117h66q4 0 4 -4v-14
q0 -5 -4 -5h-66v-69q0 -4 -4 -4h-18q-5 0 -5 4l1 149q0 4 4 4h97q4 0 4 -4v-14q0 -5 -4 -5h-75v-38zM306 1089q1 -71 -66 -71q-66 0 -66 71l1 85q0 4 4 4h17q4 0 4 -4v-82q1 -52 41 -52q39 0 39 52l1 82q0 4 4 4h17q4 0 4 -4v-85zM440 1044q4 0 4 -4v-15q0 -4 -4 -4h-100
q-4 0 -4 4l1 149q0 4 4 4h17q4 0 4 -4l1 -130h77zM568 1044q4 0 4 -4v-15q0 -4 -4 -4h-100q-4 0 -4 4l1 149q0 4 4 4h17q4 0 4 -4l1 -130h77zM27 860h65q5 0 5 -5v-14q0 -4 -5 -4h-65v-69q0 -4 -4 -4h-19q-4 0 -4 4l1 148q0 5 4 5h97q4 0 4 -5v-14q0 -4 -4 -4h-76zM202 783
q50 0 50 59q0 60 -52 60q-50 0 -50 -58q0 -61 52 -61zM255 784q-22 -24 -55 -24t-54 23t-21 59t22 59t55 23t54 -22t21 -57q0 -37 -22 -61zM432 768q0 -4 -4 -4h-25q-3 0 -5 3l-71 123l1 -122q0 -4 -4 -4h-18q-5 0 -5 4l1 148q0 5 4 5h26q3 0 5 -3l68 -119l1 117q0 5 4 5h17
q4 0 4 -5zM574 902q0 -4 -4 -4h-45l1 -130q0 -4 -5 -4h-18q-4 0 -4 4v130h-44q-5 0 -5 4v14q0 5 5 5h115q4 0 4 -5v-14zM332 525q50 0 50 60q0 59 -51 59q-50 0 -50 -58q0 -61 51 -61zM386 527q-22 -24 -55 -24t-54 22q-22 24 -22 60q0 35 23 59q22 23 55 23q32 0 53 -22
q22 -23 22 -58q0 -36 -22 -60zM563 510q0 -4 -5 -4h-24q-4 0 -5 3l-71 124l1 -123q0 -4 -5 -4h-18q-4 0 -4 4l1 149q0 4 4 4h26q3 0 5 -3l68 -119l1 118q0 4 4 4h16q5 0 5 -4zM738 196q6 0 4 -6l-49 -181q-1 -5 -6 -5h-27q-4 0 -5 5l-37 142h-3l-36 -142q-2 -5 -6 -5h-26
q-5 0 -6 5l-50 181q-2 6 4 6h22q4 0 6 -4l36 -136h2l36 136q2 4 6 4h27q4 0 6 -4l35 -136h3l36 136q2 4 6 4h22zM798 118h80q6 0 6 -5v-18q0 -5 -6 -5h-80l1 -58h90q6 0 6 -5v-18q0 -5 -6 -5h-118q-6 0 -6 5l2 182q0 5 5 5h117q6 0 6 -5v-18q0 -5 -6 -5h-91v-50zM1011 31
q34 0 34 28q0 29 -39 29h-49v-57h54zM957 116h50q28 0 28 26q0 27 -34 27h-44v-53zM1059 21q-18 -17 -46 -17h-83q-6 0 -6 5l1 182q0 5 6 5h74q27 0 44 -15q17 -14 17 -37t-16 -39q26 -14 26 -43q0 -25 -17 -41zM1244 146h-19q-4 0 -6 4q-14 23 -44 23q-35 0 -35 -23
q0 -19 44 -32l8 -3q61 -18 61 -60q0 -55 -72 -55q-34 0 -57 18q-18 14 -24 35q-1 6 5 6h21q4 0 6 -4q14 -27 51 -27q38 0 38 23q0 21 -45 36l-9 3q-58 19 -59 55q-1 25 20 41q19 14 49 14q55 0 72 -48q2 -6 -5 -6zM1332 9q0 -5 -5 -5h-22q-6 0 -6 5l1 182q0 5 5 5h21
q5 0 5 -5zM1522 173q0 -5 -5 -5h-55l1 -159q0 -5 -5 -5h-23q-5 0 -5 5l1 159h-55q-5 0 -5 5v18q0 5 5 5h141q5 0 5 -5v-18zM1577 118h80q5 0 5 -5v-18q0 -5 -5 -5h-80v-58h91q5 0 5 -5v-18q0 -5 -5 -5h-119q-5 0 -5 5l1 182q0 5 5 5h118q5 0 5 -5v-18q0 -5 -5 -5h-92z" />
    <glyph glyph-name="Beta" unicode="&#x392;" horiz-adv-x="3545" 
d="M0 1416v-1416h3375v825l-1659 591h-1716zM333 1083h1326l585 -209h-1911v209zM333 541h2709v-208h-2709v208z" />
    <glyph glyph-name="Gamma" unicode="&#x393;" horiz-adv-x="3539" 
d="M0 1416v-1416h333v1083h3042v333h-3375z" />
    <glyph glyph-name="uni0394" unicode="&#x394;" horiz-adv-x="3503" 
d="M1622 1407l-1622 -1155v-252h220l6 4h2897v19l33 -23h219v252l-1622 1155h-131zM1688 1045l994 -708h-1988z" />
    <glyph glyph-name="Epsilon" unicode="&#x395;" horiz-adv-x="3330" 
d="M0 1416v-1416h3209v333h-2876v208h2876v333h-2876v209h2876v333h-3209z" />
    <glyph glyph-name="Zeta" unicode="&#x396;" horiz-adv-x="3557" 
d="M0 1416v-333h2244l-2244 -799v-284h3375v333h-2244l2244 799v284h-3375z" />
    <glyph glyph-name="Eta" unicode="&#x397;" horiz-adv-x="3509" 
d="M3042 1416v-542h-2709v542h-333v-1416h333v541h2709v-541h333v1416h-333z" />
    <glyph glyph-name="Theta" unicode="&#x398;" horiz-adv-x="3557" 
d="M1255 592q28 0 28 21q0 22 -28 22h-34l1 -43h33zM1222 572v-55q0 -4 -4 -4h-17q-4 0 -4 4l1 134q0 4 4 4h56q48 0 48 -41q0 -33 -36 -41l40 -55q3 -5 -3 -5h-20q-3 0 -5 2l-37 57h-23zM1383 671q-2 -3 -5 -3h-6q-6 0 -3 5l13 24q1 2 4 2h14q6 0 2 -4zM1353 598h60
q4 0 4 -4v-13q0 -4 -4 -4h-59v-43h67q4 0 4 -4v-13q0 -4 -4 -4h-88q-4 0 -4 4l1 134q0 4 4 4h87q4 0 4 -4v-13q0 -3 -4 -3h-68v-37zM1574 513q-4 0 -4 4l-2 111l-35 -112q-1 -3 -5 -3h-15q-3 0 -4 3l-37 115l-2 -114q0 -4 -3 -4h-16q-4 0 -4 4l5 134q0 4 4 4h25q4 0 5 -3
l35 -108l35 108q1 3 4 3h25q4 0 4 -4l5 -134q0 -4 -4 -4h-16zM1657 517q0 -4 -4 -4h-17q-4 0 -4 4l1 134q0 4 4 4h15q4 0 4 -4zM622 351q5 0 5 -5q-1 -30 -19 -49q-20 -21 -50 -21t-48 21q-19 21 -19 54q0 32 20 53q19 21 49 21q45 0 60 -40q2 -4 -3 -4l-14 -1q-3 0 -5 3
q-15 22 -40 22q-44 0 -44 -53q0 -55 47 -55q33 0 41 33h-32q-4 0 -4 4v13q0 4 4 4h52zM714 297q45 0 45 54t-46 54q-45 0 -45 -53q0 -55 46 -55zM762 298q-20 -22 -49 -22q-30 0 -49 21t-19 54q0 32 20 53t50 21q29 0 48 -20t19 -52q0 -33 -20 -55zM858 300q48 0 48 50
q0 52 -48 52h-30l1 -102h29zM859 422q70 0 70 -69q0 -73 -70 -73h-51q-3 0 -3 3v135q0 4 4 4h50zM975 364h60q4 0 4 -4v-13q0 -4 -4 -4h-59v-43h67q4 0 4 -3v-14q0 -3 -4 -3h-88q-4 0 -4 3l1 135q0 4 4 4h87q4 0 4 -4v-13q0 -4 -4 -4h-68v-37zM1093 367h59q4 0 4 -4v-13
q0 -4 -4 -4h-59l1 -63q0 -3 -4 -3h-17q-4 0 -4 3l1 135q0 4 4 4h87q4 0 4 -4v-13q0 -4 -4 -4h-68v-34zM1245 359q28 0 28 20q0 23 -28 23h-34v-43h34zM1211 339v-56q0 -3 -4 -3h-16q-4 0 -4 3v135q0 4 4 4h57q48 0 48 -41q0 -34 -36 -41l39 -56q4 -4 -2 -4h-20q-4 0 -5 2
l-38 57h-23zM1384 297q45 0 45 54t-47 54q-45 0 -45 -53q0 -55 47 -55zM1432 298q-20 -22 -50 -22q-29 0 -49 21q-19 21 -19 54q0 32 20 53t50 21t49 -20t19 -52q0 -33 -20 -55zM1510 283q0 -3 -4 -3h-16q-4 0 -4 3v135q0 4 4 4h15q4 0 4 -4zM1602 300q48 0 48 50
q0 52 -48 52h-29v-102h29zM1603 422q70 0 70 -69q0 -73 -70 -73h-50q-4 0 -4 3l1 135q0 4 3 4h50zM733 1374q59 -61 103 -126l8 -13q-9 -31 -14 -56q-12 -51 -18 -102h-79v297zM1177 1077h-183v-90h97l1 -16q0 -105 -28 -216q-21 -83 -57 -165l-6 -13q-8 41 -18 76
q-29 114 -71 197l-4 7l-4 8q-8 54 -8 106l1 16q1 45 7 90l4 30q7 39 16 76q8 30 19 65q17 52 38 100q12 28 25 53q9 18 17 35h-102q-21 -43 -39 -88l-2 -6q-37 49 -80 94h-158v-933h91v440q47 -44 83 -107l15 -27q35 -70 62 -169q10 -37 18 -77q7 -30 12 -60h143
q21 41 39 87q34 84 53 170q25 108 25 211q0 32 -3 65zM221 1301q28 0 28 23t-31 23h-41l1 -46h43zM177 1370h41q23 0 23 21q0 22 -27 22h-37v-43zM261 1292q-15 -13 -38 -13h-68q-5 0 -5 4l1 149q0 4 5 4h61q49 0 49 -43q0 -19 -12 -31q21 -12 21 -36q0 -20 -14 -34z
M431 1346q0 -71 -66 -71t-66 71v86q0 4 5 4h16q5 0 5 -4v-83q1 -51 41 -51q39 0 39 51v83q0 4 5 4h16q5 0 5 -4v-86zM525 1283q0 -4 -4 -4h-18q-5 0 -5 4l1 59l-48 89q-3 5 3 5h18q4 0 6 -3l33 -64h2l34 64q2 3 5 3h17q6 0 3 -5l-47 -89v-59zM71 1117h66q4 0 4 -4v-14
q0 -5 -4 -5h-66v-69q0 -4 -4 -4h-18q-5 0 -5 4l1 149q0 4 4 4h97q4 0 4 -4v-14q0 -5 -4 -5h-75v-38zM306 1089q1 -71 -66 -71q-66 0 -66 71l1 85q0 4 4 4h17q4 0 4 -4v-82q1 -52 41 -52q39 0 39 52l1 82q0 4 4 4h17q4 0 4 -4v-85zM440 1044q4 0 4 -4v-15q0 -4 -4 -4h-100
q-4 0 -4 4l1 149q0 4 4 4h17q4 0 4 -4l1 -130h77zM568 1044q4 0 4 -4v-15q0 -4 -4 -4h-100q-4 0 -4 4l1 149q0 4 4 4h17q4 0 4 -4l1 -130h77zM27 860h65q5 0 5 -5v-14q0 -4 -5 -4h-65v-69q0 -4 -4 -4h-19q-4 0 -4 4l1 148q0 5 4 5h97q4 0 4 -5v-14q0 -4 -4 -4h-76zM202 783
q50 0 50 59q0 60 -52 60q-50 0 -50 -58q0 -61 52 -61zM255 784q-22 -24 -55 -24t-54 23t-21 59t22 59t55 23t54 -22t21 -57q0 -37 -22 -61zM432 768q0 -4 -4 -4h-25q-3 0 -5 3l-71 123l1 -122q0 -4 -4 -4h-18q-5 0 -5 4l1 148q0 5 4 5h26q3 0 5 -3l68 -119l1 117q0 5 4 5h17
q4 0 4 -5zM574 902q0 -4 -4 -4h-45l1 -130q0 -4 -5 -4h-18q-4 0 -4 4v130h-44q-5 0 -5 4v14q0 5 5 5h115q4 0 4 -5v-14zM332 525q50 0 50 60q0 59 -51 59q-50 0 -50 -58q0 -61 51 -61zM386 527q-22 -24 -55 -24t-54 22q-22 24 -22 60q0 35 23 59q22 23 55 23q32 0 53 -22
q22 -23 22 -58q0 -36 -22 -60zM563 510q0 -4 -5 -4h-24q-4 0 -5 3l-71 124l1 -123q0 -4 -5 -4h-18q-4 0 -4 4l1 149q0 4 4 4h26q3 0 5 -3l68 -119l1 118q0 4 4 4h16q5 0 5 -4zM738 196q6 0 4 -6l-49 -181q-1 -5 -6 -5h-27q-4 0 -5 5l-37 142h-3l-36 -142q-2 -5 -6 -5h-26
q-5 0 -6 5l-50 181q-2 6 4 6h22q4 0 6 -4l36 -136h2l36 136q2 4 6 4h27q4 0 6 -4l35 -136h3l36 136q2 4 6 4h22zM798 118h80q6 0 6 -5v-18q0 -5 -6 -5h-80l1 -58h90q6 0 6 -5v-18q0 -5 -6 -5h-118q-6 0 -6 5l2 182q0 5 5 5h117q6 0 6 -5v-18q0 -5 -6 -5h-91v-50zM1011 31
q34 0 34 28q0 29 -39 29h-49v-57h54zM957 116h50q28 0 28 26q0 27 -34 27h-44v-53zM1059 21q-18 -17 -46 -17h-83q-6 0 -6 5l1 182q0 5 6 5h74q27 0 44 -15q17 -14 17 -37t-16 -39q26 -14 26 -43q0 -25 -17 -41zM1244 146h-19q-4 0 -6 4q-14 23 -44 23q-35 0 -35 -23
q0 -19 44 -32l8 -3q61 -18 61 -60q0 -55 -72 -55q-34 0 -57 18q-18 14 -24 35q-1 6 5 6h21q4 0 6 -4q14 -27 51 -27q38 0 38 23q0 21 -45 36l-9 3q-58 19 -59 55q-1 25 20 41q19 14 49 14q55 0 72 -48q2 -6 -5 -6zM1332 9q0 -5 -5 -5h-22q-6 0 -6 5l1 182q0 5 5 5h21
q5 0 5 -5zM1522 173q0 -5 -5 -5h-55l1 -159q0 -5 -5 -5h-23q-5 0 -5 5l1 159h-55q-5 0 -5 5v18q0 5 5 5h141q5 0 5 -5v-18zM1577 118h80q5 0 5 -5v-18q0 -5 -5 -5h-80v-58h91q5 0 5 -5v-18q0 -5 -5 -5h-119q-5 0 -5 5l1 182q0 5 5 5h118q5 0 5 -5v-18q0 -5 -5 -5h-92z" />
    <glyph glyph-name="Iota" unicode="&#x399;" horiz-adv-x="689" 
d="M0 0h333v1416h-333v-1416z" />
    <glyph glyph-name="Kappa" unicode="&#x39a;" horiz-adv-x="3539" 
d="M3180 1416l-1521 -542h-1326v542h-333v-1416h333v541h1326l1521 -541h195v284l-1191 424l1191 424v284h-195z" />
    <glyph glyph-name="Lambda" unicode="&#x39b;" horiz-adv-x="3497" 
d="M1622 1407l-1622 -1155v-252h220l1468 1045l1468 -1045h219v252l-1622 1155h-131z" />
    <glyph glyph-name="Mu" unicode="&#x39c;" horiz-adv-x="3503" 
d="M3156 1416l-1468 -1045l-1468 1045h-220v-1416h333v926l1301 -926h107l1301 926v-926h333v1416h-219z" />
    <glyph glyph-name="Nu" unicode="&#x39d;" horiz-adv-x="3509" 
d="M3042 1416v-1014l-2847 1014h-195v-1416h333v1013l2847 -1013h195v1416h-333z" />
    <glyph glyph-name="Xi" unicode="&#x39e;" horiz-adv-x="3360" 
d="M0 1083h3209v333h-3209v-333zM333 541h2527v333h-2527v-333zM0 0h3209v333h-3209v-333z" />
    <glyph glyph-name="Omicron" unicode="&#x39f;" horiz-adv-x="3509" 
d="M0 0h3375v1416h-3375v-1416zM333 1083h2709v-750h-2709v750z" />
    <glyph glyph-name="Pi" unicode="&#x3a0;" horiz-adv-x="3509" 
d="M0 1416v-1416h333v1083h2709v-1083h333v1416h-3375z" />
    <glyph glyph-name="Rho" unicode="&#x3a1;" horiz-adv-x="3515" 
d="M0 1416v-1416h333v541h3042v875h-3375zM333 1083h2709v-209h-2709v209z" />
    <glyph glyph-name="Sigma" unicode="&#x3a3;" horiz-adv-x="3342" 
d="M0 1416v-333l1106 -375l-1106 -375v-333h3209v333h-2227l615 208v333l-615 209h2227v333h-3209z" />
    <glyph glyph-name="Tau" unicode="&#x3a4;" horiz-adv-x="3503" 
d="M0 1407v-333h1521v-1074h333v1074h1521v333h-3375z" />
    <glyph glyph-name="Upsilon" unicode="&#x3a5;" horiz-adv-x="3491" 
d="M3124 1416l-1492 -532l-1493 532h-139v-304l1135 -404l-1135 -404v-304h139l3236 1151v265h-251z" />
    <glyph glyph-name="Phi" unicode="&#x3a6;" horiz-adv-x="3627" 
d="M1255 592q28 0 28 21q0 22 -28 22h-34l1 -43h33zM1222 572v-55q0 -4 -4 -4h-17q-4 0 -4 4l1 134q0 4 4 4h56q48 0 48 -41q0 -33 -36 -41l40 -55q3 -5 -3 -5h-20q-3 0 -5 2l-37 57h-23zM1383 671q-2 -3 -5 -3h-6q-6 0 -3 5l13 24q1 2 4 2h14q6 0 2 -4zM1353 598h60
q4 0 4 -4v-13q0 -4 -4 -4h-59v-43h67q4 0 4 -4v-13q0 -4 -4 -4h-88q-4 0 -4 4l1 134q0 4 4 4h87q4 0 4 -4v-13q0 -3 -4 -3h-68v-37zM1574 513q-4 0 -4 4l-2 111l-35 -112q-1 -3 -5 -3h-15q-3 0 -4 3l-37 115l-2 -114q0 -4 -3 -4h-16q-4 0 -4 4l5 134q0 4 4 4h25q4 0 5 -3
l35 -108l35 108q1 3 4 3h25q4 0 4 -4l5 -134q0 -4 -4 -4h-16zM1657 517q0 -4 -4 -4h-17q-4 0 -4 4l1 134q0 4 4 4h15q4 0 4 -4zM622 351q5 0 5 -5q-1 -30 -19 -49q-20 -21 -50 -21t-48 21q-19 21 -19 54q0 32 20 53q19 21 49 21q45 0 60 -40q2 -4 -3 -4l-14 -1q-3 0 -5 3
q-15 22 -40 22q-44 0 -44 -53q0 -55 47 -55q33 0 41 33h-32q-4 0 -4 4v13q0 4 4 4h52zM714 297q45 0 45 54t-46 54q-45 0 -45 -53q0 -55 46 -55zM762 298q-20 -22 -49 -22q-30 0 -49 21t-19 54q0 32 20 53t50 21q29 0 48 -20t19 -52q0 -33 -20 -55zM858 300q48 0 48 50
q0 52 -48 52h-30l1 -102h29zM859 422q70 0 70 -69q0 -73 -70 -73h-51q-3 0 -3 3v135q0 4 4 4h50zM975 364h60q4 0 4 -4v-13q0 -4 -4 -4h-59v-43h67q4 0 4 -3v-14q0 -3 -4 -3h-88q-4 0 -4 3l1 135q0 4 4 4h87q4 0 4 -4v-13q0 -4 -4 -4h-68v-37zM1093 367h59q4 0 4 -4v-13
q0 -4 -4 -4h-59l1 -63q0 -3 -4 -3h-17q-4 0 -4 3l1 135q0 4 4 4h87q4 0 4 -4v-13q0 -4 -4 -4h-68v-34zM1245 359q28 0 28 20q0 23 -28 23h-34v-43h34zM1211 339v-56q0 -3 -4 -3h-16q-4 0 -4 3v135q0 4 4 4h57q48 0 48 -41q0 -34 -36 -41l39 -56q4 -4 -2 -4h-20q-4 0 -5 2
l-38 57h-23zM1384 297q45 0 45 54t-47 54q-45 0 -45 -53q0 -55 47 -55zM1432 298q-20 -22 -50 -22q-29 0 -49 21q-19 21 -19 54q0 32 20 53t50 21t49 -20t19 -52q0 -33 -20 -55zM1510 283q0 -3 -4 -3h-16q-4 0 -4 3v135q0 4 4 4h15q4 0 4 -4zM1602 300q48 0 48 50
q0 52 -48 52h-29v-102h29zM1603 422q70 0 70 -69q0 -73 -70 -73h-50q-4 0 -4 3l1 135q0 4 3 4h50zM733 1374q59 -61 103 -126l8 -13q-9 -31 -14 -56q-12 -51 -18 -102h-79v297zM1177 1077h-183v-90h97l1 -16q0 -105 -28 -216q-21 -83 -57 -165l-6 -13q-8 41 -18 76
q-29 114 -71 197l-4 7l-4 8q-8 54 -8 106l1 16q1 45 7 90l4 30q7 39 16 76q8 30 19 65q17 52 38 100q12 28 25 53q9 18 17 35h-102q-21 -43 -39 -88l-2 -6q-37 49 -80 94h-158v-933h91v440q47 -44 83 -107l15 -27q35 -70 62 -169q10 -37 18 -77q7 -30 12 -60h143
q21 41 39 87q34 84 53 170q25 108 25 211q0 32 -3 65zM221 1301q28 0 28 23t-31 23h-41l1 -46h43zM177 1370h41q23 0 23 21q0 22 -27 22h-37v-43zM261 1292q-15 -13 -38 -13h-68q-5 0 -5 4l1 149q0 4 5 4h61q49 0 49 -43q0 -19 -12 -31q21 -12 21 -36q0 -20 -14 -34z
M431 1346q0 -71 -66 -71t-66 71v86q0 4 5 4h16q5 0 5 -4v-83q1 -51 41 -51q39 0 39 51v83q0 4 5 4h16q5 0 5 -4v-86zM525 1283q0 -4 -4 -4h-18q-5 0 -5 4l1 59l-48 89q-3 5 3 5h18q4 0 6 -3l33 -64h2l34 64q2 3 5 3h17q6 0 3 -5l-47 -89v-59zM71 1117h66q4 0 4 -4v-14
q0 -5 -4 -5h-66v-69q0 -4 -4 -4h-18q-5 0 -5 4l1 149q0 4 4 4h97q4 0 4 -4v-14q0 -5 -4 -5h-75v-38zM306 1089q1 -71 -66 -71q-66 0 -66 71l1 85q0 4 4 4h17q4 0 4 -4v-82q1 -52 41 -52q39 0 39 52l1 82q0 4 4 4h17q4 0 4 -4v-85zM440 1044q4 0 4 -4v-15q0 -4 -4 -4h-100
q-4 0 -4 4l1 149q0 4 4 4h17q4 0 4 -4l1 -130h77zM568 1044q4 0 4 -4v-15q0 -4 -4 -4h-100q-4 0 -4 4l1 149q0 4 4 4h17q4 0 4 -4l1 -130h77zM27 860h65q5 0 5 -5v-14q0 -4 -5 -4h-65v-69q0 -4 -4 -4h-19q-4 0 -4 4l1 148q0 5 4 5h97q4 0 4 -5v-14q0 -4 -4 -4h-76zM202 783
q50 0 50 59q0 60 -52 60q-50 0 -50 -58q0 -61 52 -61zM255 784q-22 -24 -55 -24t-54 23t-21 59t22 59t55 23t54 -22t21 -57q0 -37 -22 -61zM432 768q0 -4 -4 -4h-25q-3 0 -5 3l-71 123l1 -122q0 -4 -4 -4h-18q-5 0 -5 4l1 148q0 5 4 5h26q3 0 5 -3l68 -119l1 117q0 5 4 5h17
q4 0 4 -5zM574 902q0 -4 -4 -4h-45l1 -130q0 -4 -5 -4h-18q-4 0 -4 4v130h-44q-5 0 -5 4v14q0 5 5 5h115q4 0 4 -5v-14zM332 525q50 0 50 60q0 59 -51 59q-50 0 -50 -58q0 -61 51 -61zM386 527q-22 -24 -55 -24t-54 22q-22 24 -22 60q0 35 23 59q22 23 55 23q32 0 53 -22
q22 -23 22 -58q0 -36 -22 -60zM563 510q0 -4 -5 -4h-24q-4 0 -5 3l-71 124l1 -123q0 -4 -5 -4h-18q-4 0 -4 4l1 149q0 4 4 4h26q3 0 5 -3l68 -119l1 118q0 4 4 4h16q5 0 5 -4zM738 196q6 0 4 -6l-49 -181q-1 -5 -6 -5h-27q-4 0 -5 5l-37 142h-3l-36 -142q-2 -5 -6 -5h-26
q-5 0 -6 5l-50 181q-2 6 4 6h22q4 0 6 -4l36 -136h2l36 136q2 4 6 4h27q4 0 6 -4l35 -136h3l36 136q2 4 6 4h22zM798 118h80q6 0 6 -5v-18q0 -5 -6 -5h-80l1 -58h90q6 0 6 -5v-18q0 -5 -6 -5h-118q-6 0 -6 5l2 182q0 5 5 5h117q6 0 6 -5v-18q0 -5 -6 -5h-91v-50zM1011 31
q34 0 34 28q0 29 -39 29h-49v-57h54zM957 116h50q28 0 28 26q0 27 -34 27h-44v-53zM1059 21q-18 -17 -46 -17h-83q-6 0 -6 5l1 182q0 5 6 5h74q27 0 44 -15q17 -14 17 -37t-16 -39q26 -14 26 -43q0 -25 -17 -41zM1244 146h-19q-4 0 -6 4q-14 23 -44 23q-35 0 -35 -23
q0 -19 44 -32l8 -3q61 -18 61 -60q0 -55 -72 -55q-34 0 -57 18q-18 14 -24 35q-1 6 5 6h21q4 0 6 -4q14 -27 51 -27q38 0 38 23q0 21 -45 36l-9 3q-58 19 -59 55q-1 25 20 41q19 14 49 14q55 0 72 -48q2 -6 -5 -6zM1332 9q0 -5 -5 -5h-22q-6 0 -6 5l1 182q0 5 5 5h21
q5 0 5 -5zM1522 173q0 -5 -5 -5h-55l1 -159q0 -5 -5 -5h-23q-5 0 -5 5l1 159h-55q-5 0 -5 5v18q0 5 5 5h141q5 0 5 -5v-18zM1577 118h80q5 0 5 -5v-18q0 -5 -5 -5h-80v-58h91q5 0 5 -5v-18q0 -5 -5 -5h-119q-5 0 -5 5l1 182q0 5 5 5h118q5 0 5 -5v-18q0 -5 -5 -5h-92z" />
    <glyph glyph-name="Chi" unicode="&#x3a7;" horiz-adv-x="3479" 
d="M3180 1416l-1492 -532l-1493 532h-195v-284l1191 -424l-1191 -424v-284h195l1493 531l1492 -531h195v284l-1191 424l1191 424v284h-195z" />
    <glyph glyph-name="Psi" unicode="&#x3a8;" horiz-adv-x="3503" 
d="M3042 1407v-541h-1188v532h-333v-532h-1188v541h-333v-874h1521v-533h333v533h1521v874h-333z" />
    <glyph glyph-name="uni03A9" unicode="&#x3a9;" horiz-adv-x="4150" 
d="M333 1416v-1083h-333v-333h1521v333h-855v750h2709v-750h-855v-333h1521v333h-333v1083h-3375z" />
    <glyph glyph-name="Iotadieresis" unicode="&#x3aa;" horiz-adv-x="2062" 
d="M0 1957h333v333h-333v-333zM1521 1957h333v333h-333v-333zM761 0h333v1416h-333v-1416z" />
    <glyph glyph-name="Upsilondieresis" unicode="&#x3ab;" horiz-adv-x="3507" 
d="M3124 1416l-1492 -532l-1493 532h-139v-304l1135 -404l-1135 -404v-304h139l3236 1151v265h-251zM761 1957h333v333h-333v-333zM2282 1957h333v333h-333v-333z" />
    <glyph glyph-name="alphatonos" unicode="&#x3ac;" horiz-adv-x="3848" 
d="M3572 1144l-401 -271v-1h-3171v-874h3169l403 -272h144v304l-333 225v360l333 225v304h-144zM333 539h2709v-208h-2709v208zM2590 2052l-1548 -562v-329h84l1548 562v329h-84z" />
    <glyph glyph-name="epsilontonos" unicode="&#x3ad;" horiz-adv-x="3484" 
d="M1255 592q28 0 28 21q0 22 -28 22h-34l1 -43h33zM1222 572v-55q0 -4 -4 -4h-17q-4 0 -4 4l1 134q0 4 4 4h56q48 0 48 -41q0 -33 -36 -41l40 -55q3 -5 -3 -5h-20q-3 0 -5 2l-37 57h-23zM1383 671q-2 -3 -5 -3h-6q-6 0 -3 5l13 24q1 2 4 2h14q6 0 2 -4zM1353 598h60
q4 0 4 -4v-13q0 -4 -4 -4h-59v-43h67q4 0 4 -4v-13q0 -4 -4 -4h-88q-4 0 -4 4l1 134q0 4 4 4h87q4 0 4 -4v-13q0 -3 -4 -3h-68v-37zM1574 513q-4 0 -4 4l-2 111l-35 -112q-1 -3 -5 -3h-15q-3 0 -4 3l-37 115l-2 -114q0 -4 -3 -4h-16q-4 0 -4 4l5 134q0 4 4 4h25q4 0 5 -3
l35 -108l35 108q1 3 4 3h25q4 0 4 -4l5 -134q0 -4 -4 -4h-16zM1657 517q0 -4 -4 -4h-17q-4 0 -4 4l1 134q0 4 4 4h15q4 0 4 -4zM622 351q5 0 5 -5q-1 -30 -19 -49q-20 -21 -50 -21t-48 21q-19 21 -19 54q0 32 20 53q19 21 49 21q45 0 60 -40q2 -4 -3 -4l-14 -1q-3 0 -5 3
q-15 22 -40 22q-44 0 -44 -53q0 -55 47 -55q33 0 41 33h-32q-4 0 -4 4v13q0 4 4 4h52zM714 297q45 0 45 54t-46 54q-45 0 -45 -53q0 -55 46 -55zM762 298q-20 -22 -49 -22q-30 0 -49 21t-19 54q0 32 20 53t50 21q29 0 48 -20t19 -52q0 -33 -20 -55zM858 300q48 0 48 50
q0 52 -48 52h-30l1 -102h29zM859 422q70 0 70 -69q0 -73 -70 -73h-51q-3 0 -3 3v135q0 4 4 4h50zM975 364h60q4 0 4 -4v-13q0 -4 -4 -4h-59v-43h67q4 0 4 -3v-14q0 -3 -4 -3h-88q-4 0 -4 3l1 135q0 4 4 4h87q4 0 4 -4v-13q0 -4 -4 -4h-68v-37zM1093 367h59q4 0 4 -4v-13
q0 -4 -4 -4h-59l1 -63q0 -3 -4 -3h-17q-4 0 -4 3l1 135q0 4 4 4h87q4 0 4 -4v-13q0 -4 -4 -4h-68v-34zM1245 359q28 0 28 20q0 23 -28 23h-34v-43h34zM1211 339v-56q0 -3 -4 -3h-16q-4 0 -4 3v135q0 4 4 4h57q48 0 48 -41q0 -34 -36 -41l39 -56q4 -4 -2 -4h-20q-4 0 -5 2
l-38 57h-23zM1384 297q45 0 45 54t-47 54q-45 0 -45 -53q0 -55 47 -55zM1432 298q-20 -22 -50 -22q-29 0 -49 21q-19 21 -19 54q0 32 20 53t50 21t49 -20t19 -52q0 -33 -20 -55zM1510 283q0 -3 -4 -3h-16q-4 0 -4 3v135q0 4 4 4h15q4 0 4 -4zM1602 300q48 0 48 50
q0 52 -48 52h-29v-102h29zM1603 422q70 0 70 -69q0 -73 -70 -73h-50q-4 0 -4 3l1 135q0 4 3 4h50zM733 1374q59 -61 103 -126l8 -13q-9 -31 -14 -56q-12 -51 -18 -102h-79v297zM1177 1077h-183v-90h97l1 -16q0 -105 -28 -216q-21 -83 -57 -165l-6 -13q-8 41 -18 76
q-29 114 -71 197l-4 7l-4 8q-8 54 -8 106l1 16q1 45 7 90l4 30q7 39 16 76q8 30 19 65q17 52 38 100q12 28 25 53q9 18 17 35h-102q-21 -43 -39 -88l-2 -6q-37 49 -80 94h-158v-933h91v440q47 -44 83 -107l15 -27q35 -70 62 -169q10 -37 18 -77q7 -30 12 -60h143
q21 41 39 87q34 84 53 170q25 108 25 211q0 32 -3 65zM221 1301q28 0 28 23t-31 23h-41l1 -46h43zM177 1370h41q23 0 23 21q0 22 -27 22h-37v-43zM261 1292q-15 -13 -38 -13h-68q-5 0 -5 4l1 149q0 4 5 4h61q49 0 49 -43q0 -19 -12 -31q21 -12 21 -36q0 -20 -14 -34z
M431 1346q0 -71 -66 -71t-66 71v86q0 4 5 4h16q5 0 5 -4v-83q1 -51 41 -51q39 0 39 51v83q0 4 5 4h16q5 0 5 -4v-86zM525 1283q0 -4 -4 -4h-18q-5 0 -5 4l1 59l-48 89q-3 5 3 5h18q4 0 6 -3l33 -64h2l34 64q2 3 5 3h17q6 0 3 -5l-47 -89v-59zM71 1117h66q4 0 4 -4v-14
q0 -5 -4 -5h-66v-69q0 -4 -4 -4h-18q-5 0 -5 4l1 149q0 4 4 4h97q4 0 4 -4v-14q0 -5 -4 -5h-75v-38zM306 1089q1 -71 -66 -71q-66 0 -66 71l1 85q0 4 4 4h17q4 0 4 -4v-82q1 -52 41 -52q39 0 39 52l1 82q0 4 4 4h17q4 0 4 -4v-85zM440 1044q4 0 4 -4v-15q0 -4 -4 -4h-100
q-4 0 -4 4l1 149q0 4 4 4h17q4 0 4 -4l1 -130h77zM568 1044q4 0 4 -4v-15q0 -4 -4 -4h-100q-4 0 -4 4l1 149q0 4 4 4h17q4 0 4 -4l1 -130h77zM27 860h65q5 0 5 -5v-14q0 -4 -5 -4h-65v-69q0 -4 -4 -4h-19q-4 0 -4 4l1 148q0 5 4 5h97q4 0 4 -5v-14q0 -4 -4 -4h-76zM202 783
q50 0 50 59q0 60 -52 60q-50 0 -50 -58q0 -61 52 -61zM255 784q-22 -24 -55 -24t-54 23t-21 59t22 59t55 23t54 -22t21 -57q0 -37 -22 -61zM432 768q0 -4 -4 -4h-25q-3 0 -5 3l-71 123l1 -122q0 -4 -4 -4h-18q-5 0 -5 4l1 148q0 5 4 5h26q3 0 5 -3l68 -119l1 117q0 5 4 5h17
q4 0 4 -5zM574 902q0 -4 -4 -4h-45l1 -130q0 -4 -5 -4h-18q-4 0 -4 4v130h-44q-5 0 -5 4v14q0 5 5 5h115q4 0 4 -5v-14zM332 525q50 0 50 60q0 59 -51 59q-50 0 -50 -58q0 -61 51 -61zM386 527q-22 -24 -55 -24t-54 22q-22 24 -22 60q0 35 23 59q22 23 55 23q32 0 53 -22
q22 -23 22 -58q0 -36 -22 -60zM563 510q0 -4 -5 -4h-24q-4 0 -5 3l-71 124l1 -123q0 -4 -5 -4h-18q-4 0 -4 4l1 149q0 4 4 4h26q3 0 5 -3l68 -119l1 118q0 4 4 4h16q5 0 5 -4zM738 196q6 0 4 -6l-49 -181q-1 -5 -6 -5h-27q-4 0 -5 5l-37 142h-3l-36 -142q-2 -5 -6 -5h-26
q-5 0 -6 5l-50 181q-2 6 4 6h22q4 0 6 -4l36 -136h2l36 136q2 4 6 4h27q4 0 6 -4l35 -136h3l36 136q2 4 6 4h22zM798 118h80q6 0 6 -5v-18q0 -5 -6 -5h-80l1 -58h90q6 0 6 -5v-18q0 -5 -6 -5h-118q-6 0 -6 5l2 182q0 5 5 5h117q6 0 6 -5v-18q0 -5 -6 -5h-91v-50zM1011 31
q34 0 34 28q0 29 -39 29h-49v-57h54zM957 116h50q28 0 28 26q0 27 -34 27h-44v-53zM1059 21q-18 -17 -46 -17h-83q-6 0 -6 5l1 182q0 5 6 5h74q27 0 44 -15q17 -14 17 -37t-16 -39q26 -14 26 -43q0 -25 -17 -41zM1244 146h-19q-4 0 -6 4q-14 23 -44 23q-35 0 -35 -23
q0 -19 44 -32l8 -3q61 -18 61 -60q0 -55 -72 -55q-34 0 -57 18q-18 14 -24 35q-1 6 5 6h21q4 0 6 -4q14 -27 51 -27q38 0 38 23q0 21 -45 36l-9 3q-58 19 -59 55q-1 25 20 41q19 14 49 14q55 0 72 -48q2 -6 -5 -6zM1332 9q0 -5 -5 -5h-22q-6 0 -6 5l1 182q0 5 5 5h21
q5 0 5 -5zM1522 173q0 -5 -5 -5h-55l1 -159q0 -5 -5 -5h-23q-5 0 -5 5l1 159h-55q-5 0 -5 5v18q0 5 5 5h141q5 0 5 -5v-18zM1577 118h80q5 0 5 -5v-18q0 -5 -5 -5h-80v-58h91q5 0 5 -5v-18q0 -5 -5 -5h-119q-5 0 -5 5l1 182q0 5 5 5h118q5 0 5 -5v-18q0 -5 -5 -5h-92z" />
    <glyph glyph-name="etatonos" unicode="&#x3ae;" horiz-adv-x="3521" 
d="M0 874v-875h333v542h2709v-1083h333v1416h-3375zM2419 2006l-1548 -562v-329h85l1548 562v329h-85z" />
    <glyph glyph-name="iotatonos" unicode="&#x3af;" horiz-adv-x="1775" 
d="M621 879v-879h332v879h-332zM1548 1863l-1548 -563v-329h85l1548 562v330h-85z" />
    <glyph glyph-name="upsilondieresistonos" unicode="&#x3b0;" horiz-adv-x="3475" 
d="M3042 874v-541h-2709v541h-333v-874h3375v874h-333zM2419 1957l-1325 -481v202h-333v-333h110v-279h85l1326 481v-202h333v333h-111v279h-85z" />
    <glyph glyph-name="alpha" unicode="&#x3b1;" horiz-adv-x="3855" 
d="M3572 1149l-401 -271v-1h-3171v-874h3169l403 -272h144v304l-333 225v360l333 225v304h-144zM333 544h2709v-208h-2709v208z" />
    <glyph glyph-name="beta" unicode="&#x3b2;" horiz-adv-x="3581" 
d="M0 887v-2127h333v704h3042v1423h-3375zM333 554h2709v-208h-1354v-341h1354v-208h-2709v757z" />
    <glyph glyph-name="gamma" unicode="&#x3b3;" horiz-adv-x="3497" 
d="M3042 873v-541h-2709v541h-333v-874h1440l-8 -7v-541h333v548h1610v874h-333z" />
    <glyph glyph-name="delta" unicode="&#x3b4;" horiz-adv-x="3554" 
d="M0 1035v-333l1718 -365h-1718v-874h3375v874h-7l-1761 365h1768v333h-3375zM333 4h2709v-208h-2709v208z" />
    <glyph glyph-name="epsilon" unicode="&#x3b5;" horiz-adv-x="3530" 
d="M0 796v-1249h3375v333h-3042v125h1355v333h-1355v125h3042v333h-3375z" />
    <glyph glyph-name="zeta" unicode="&#x3b6;" horiz-adv-x="3619" 
d="M0 895v-333h1768l-1761 -364h-7v-741h3042v-208h-594v-333h927v874h-3042v75l3042 697v333h-3375z" />
    <glyph glyph-name="eta" unicode="&#x3b7;" horiz-adv-x="3545" 
d="M0 878v-874h333v541h2709v-1207h333v1540h-3375z" />
    <glyph glyph-name="theta" unicode="&#x3b8;" horiz-adv-x="3527" 
d="M1255 592q28 0 28 21q0 22 -28 22h-34l1 -43h33zM1222 572v-55q0 -4 -4 -4h-17q-4 0 -4 4l1 134q0 4 4 4h56q48 0 48 -41q0 -33 -36 -41l40 -55q3 -5 -3 -5h-20q-3 0 -5 2l-37 57h-23zM1383 671q-2 -3 -5 -3h-6q-6 0 -3 5l13 24q1 2 4 2h14q6 0 2 -4zM1353 598h60
q4 0 4 -4v-13q0 -4 -4 -4h-59v-43h67q4 0 4 -4v-13q0 -4 -4 -4h-88q-4 0 -4 4l1 134q0 4 4 4h87q4 0 4 -4v-13q0 -3 -4 -3h-68v-37zM1574 513q-4 0 -4 4l-2 111l-35 -112q-1 -3 -5 -3h-15q-3 0 -4 3l-37 115l-2 -114q0 -4 -3 -4h-16q-4 0 -4 4l5 134q0 4 4 4h25q4 0 5 -3
l35 -108l35 108q1 3 4 3h25q4 0 4 -4l5 -134q0 -4 -4 -4h-16zM1657 517q0 -4 -4 -4h-17q-4 0 -4 4l1 134q0 4 4 4h15q4 0 4 -4zM622 351q5 0 5 -5q-1 -30 -19 -49q-20 -21 -50 -21t-48 21q-19 21 -19 54q0 32 20 53q19 21 49 21q45 0 60 -40q2 -4 -3 -4l-14 -1q-3 0 -5 3
q-15 22 -40 22q-44 0 -44 -53q0 -55 47 -55q33 0 41 33h-32q-4 0 -4 4v13q0 4 4 4h52zM714 297q45 0 45 54t-46 54q-45 0 -45 -53q0 -55 46 -55zM762 298q-20 -22 -49 -22q-30 0 -49 21t-19 54q0 32 20 53t50 21q29 0 48 -20t19 -52q0 -33 -20 -55zM858 300q48 0 48 50
q0 52 -48 52h-30l1 -102h29zM859 422q70 0 70 -69q0 -73 -70 -73h-51q-3 0 -3 3v135q0 4 4 4h50zM975 364h60q4 0 4 -4v-13q0 -4 -4 -4h-59v-43h67q4 0 4 -3v-14q0 -3 -4 -3h-88q-4 0 -4 3l1 135q0 4 4 4h87q4 0 4 -4v-13q0 -4 -4 -4h-68v-37zM1093 367h59q4 0 4 -4v-13
q0 -4 -4 -4h-59l1 -63q0 -3 -4 -3h-17q-4 0 -4 3l1 135q0 4 4 4h87q4 0 4 -4v-13q0 -4 -4 -4h-68v-34zM1245 359q28 0 28 20q0 23 -28 23h-34v-43h34zM1211 339v-56q0 -3 -4 -3h-16q-4 0 -4 3v135q0 4 4 4h57q48 0 48 -41q0 -34 -36 -41l39 -56q4 -4 -2 -4h-20q-4 0 -5 2
l-38 57h-23zM1384 297q45 0 45 54t-47 54q-45 0 -45 -53q0 -55 47 -55zM1432 298q-20 -22 -50 -22q-29 0 -49 21q-19 21 -19 54q0 32 20 53t50 21t49 -20t19 -52q0 -33 -20 -55zM1510 283q0 -3 -4 -3h-16q-4 0 -4 3v135q0 4 4 4h15q4 0 4 -4zM1602 300q48 0 48 50
q0 52 -48 52h-29v-102h29zM1603 422q70 0 70 -69q0 -73 -70 -73h-50q-4 0 -4 3l1 135q0 4 3 4h50zM733 1374q59 -61 103 -126l8 -13q-9 -31 -14 -56q-12 -51 -18 -102h-79v297zM1177 1077h-183v-90h97l1 -16q0 -105 -28 -216q-21 -83 -57 -165l-6 -13q-8 41 -18 76
q-29 114 -71 197l-4 7l-4 8q-8 54 -8 106l1 16q1 45 7 90l4 30q7 39 16 76q8 30 19 65q17 52 38 100q12 28 25 53q9 18 17 35h-102q-21 -43 -39 -88l-2 -6q-37 49 -80 94h-158v-933h91v440q47 -44 83 -107l15 -27q35 -70 62 -169q10 -37 18 -77q7 -30 12 -60h143
q21 41 39 87q34 84 53 170q25 108 25 211q0 32 -3 65zM221 1301q28 0 28 23t-31 23h-41l1 -46h43zM177 1370h41q23 0 23 21q0 22 -27 22h-37v-43zM261 1292q-15 -13 -38 -13h-68q-5 0 -5 4l1 149q0 4 5 4h61q49 0 49 -43q0 -19 -12 -31q21 -12 21 -36q0 -20 -14 -34z
M431 1346q0 -71 -66 -71t-66 71v86q0 4 5 4h16q5 0 5 -4v-83q1 -51 41 -51q39 0 39 51v83q0 4 5 4h16q5 0 5 -4v-86zM525 1283q0 -4 -4 -4h-18q-5 0 -5 4l1 59l-48 89q-3 5 3 5h18q4 0 6 -3l33 -64h2l34 64q2 3 5 3h17q6 0 3 -5l-47 -89v-59zM71 1117h66q4 0 4 -4v-14
q0 -5 -4 -5h-66v-69q0 -4 -4 -4h-18q-5 0 -5 4l1 149q0 4 4 4h97q4 0 4 -4v-14q0 -5 -4 -5h-75v-38zM306 1089q1 -71 -66 -71q-66 0 -66 71l1 85q0 4 4 4h17q4 0 4 -4v-82q1 -52 41 -52q39 0 39 52l1 82q0 4 4 4h17q4 0 4 -4v-85zM440 1044q4 0 4 -4v-15q0 -4 -4 -4h-100
q-4 0 -4 4l1 149q0 4 4 4h17q4 0 4 -4l1 -130h77zM568 1044q4 0 4 -4v-15q0 -4 -4 -4h-100q-4 0 -4 4l1 149q0 4 4 4h17q4 0 4 -4l1 -130h77zM27 860h65q5 0 5 -5v-14q0 -4 -5 -4h-65v-69q0 -4 -4 -4h-19q-4 0 -4 4l1 148q0 5 4 5h97q4 0 4 -5v-14q0 -4 -4 -4h-76zM202 783
q50 0 50 59q0 60 -52 60q-50 0 -50 -58q0 -61 52 -61zM255 784q-22 -24 -55 -24t-54 23t-21 59t22 59t55 23t54 -22t21 -57q0 -37 -22 -61zM432 768q0 -4 -4 -4h-25q-3 0 -5 3l-71 123l1 -122q0 -4 -4 -4h-18q-5 0 -5 4l1 148q0 5 4 5h26q3 0 5 -3l68 -119l1 117q0 5 4 5h17
q4 0 4 -5zM574 902q0 -4 -4 -4h-45l1 -130q0 -4 -5 -4h-18q-4 0 -4 4v130h-44q-5 0 -5 4v14q0 5 5 5h115q4 0 4 -5v-14zM332 525q50 0 50 60q0 59 -51 59q-50 0 -50 -58q0 -61 51 -61zM386 527q-22 -24 -55 -24t-54 22q-22 24 -22 60q0 35 23 59q22 23 55 23q32 0 53 -22
q22 -23 22 -58q0 -36 -22 -60zM563 510q0 -4 -5 -4h-24q-4 0 -5 3l-71 124l1 -123q0 -4 -5 -4h-18q-4 0 -4 4l1 149q0 4 4 4h26q3 0 5 -3l68 -119l1 118q0 4 4 4h16q5 0 5 -4zM738 196q6 0 4 -6l-49 -181q-1 -5 -6 -5h-27q-4 0 -5 5l-37 142h-3l-36 -142q-2 -5 -6 -5h-26
q-5 0 -6 5l-50 181q-2 6 4 6h22q4 0 6 -4l36 -136h2l36 136q2 4 6 4h27q4 0 6 -4l35 -136h3l36 136q2 4 6 4h22zM798 118h80q6 0 6 -5v-18q0 -5 -6 -5h-80l1 -58h90q6 0 6 -5v-18q0 -5 -6 -5h-118q-6 0 -6 5l2 182q0 5 5 5h117q6 0 6 -5v-18q0 -5 -6 -5h-91v-50zM1011 31
q34 0 34 28q0 29 -39 29h-49v-57h54zM957 116h50q28 0 28 26q0 27 -34 27h-44v-53zM1059 21q-18 -17 -46 -17h-83q-6 0 -6 5l1 182q0 5 6 5h74q27 0 44 -15q17 -14 17 -37t-16 -39q26 -14 26 -43q0 -25 -17 -41zM1244 146h-19q-4 0 -6 4q-14 23 -44 23q-35 0 -35 -23
q0 -19 44 -32l8 -3q61 -18 61 -60q0 -55 -72 -55q-34 0 -57 18q-18 14 -24 35q-1 6 5 6h21q4 0 6 -4q14 -27 51 -27q38 0 38 23q0 21 -45 36l-9 3q-58 19 -59 55q-1 25 20 41q19 14 49 14q55 0 72 -48q2 -6 -5 -6zM1332 9q0 -5 -5 -5h-22q-6 0 -6 5l1 182q0 5 5 5h21
q5 0 5 -5zM1522 173q0 -5 -5 -5h-55l1 -159q0 -5 -5 -5h-23q-5 0 -5 5l1 159h-55q-5 0 -5 5v18q0 5 5 5h141q5 0 5 -5v-18zM1577 118h80q5 0 5 -5v-18q0 -5 -5 -5h-80v-58h91q5 0 5 -5v-18q0 -5 -5 -5h-119q-5 0 -5 5l1 182q0 5 5 5h118q5 0 5 -5v-18q0 -5 -5 -5h-92z" />
    <glyph glyph-name="iota" unicode="&#x3b9;" horiz-adv-x="1351" 
d="M761 1416h333v-1416h-333v1416z" />
    <glyph glyph-name="kappa" unicode="&#x3ba;" horiz-adv-x="3571" 
d="M3375 876l-1550 -552h-1492v542h-333v-1416h333v542h1492l1550 -552v353l-1024 365l1024 365v353z" />
    <glyph glyph-name="lambda" unicode="&#x3bb;" horiz-adv-x="3516" 
d="M1944 885h-333v-548h-1611v-874h333v541h2709v-541h333v874h-1439l8 7v541z" />
    <glyph glyph-name="uni03BC" unicode="&#x3bc;" horiz-adv-x="3524" 
d="M3042 878v-541h-2709v541h-333v-1420h333v546h3042v874h-333z" />
    <glyph glyph-name="nu" unicode="&#x3bd;" horiz-adv-x="3521" 
d="M3180 874l-1492 -531l-1493 531h-195v-284l1659 -590h57l1659 590v284h-195z" />
    <glyph glyph-name="xi" unicode="&#x3be;" horiz-adv-x="3518" 
d="M0 880v-1249h3042v-208h-1521v-333h1854v874h-3042v125h1355v333h-1355v126h3042v332h-3375z" />
    <glyph glyph-name="omicron" unicode="&#x3bf;" horiz-adv-x="3461" 
d="M0 0h3375v874h-3375v-874zM333 541h2709v-208h-2709v208z" />
    <glyph glyph-name="pi" unicode="&#x3c0;" horiz-adv-x="3479" 
d="M0 879v-333h761v-546h333v541h1188v-541h333v546h760v333h-3375z" />
    <glyph glyph-name="rho" unicode="&#x3c1;" horiz-adv-x="3504" 
d="M0 882v-1407h333v532h3042v875h-3375zM333 549h2709v-209h-2709v209z" />
    <glyph glyph-name="sigma1" unicode="&#x3c2;" horiz-adv-x="3478" 
d="M1255 592q28 0 28 21q0 22 -28 22h-34l1 -43h33zM1222 572v-55q0 -4 -4 -4h-17q-4 0 -4 4l1 134q0 4 4 4h56q48 0 48 -41q0 -33 -36 -41l40 -55q3 -5 -3 -5h-20q-3 0 -5 2l-37 57h-23zM1383 671q-2 -3 -5 -3h-6q-6 0 -3 5l13 24q1 2 4 2h14q6 0 2 -4zM1353 598h60
q4 0 4 -4v-13q0 -4 -4 -4h-59v-43h67q4 0 4 -4v-13q0 -4 -4 -4h-88q-4 0 -4 4l1 134q0 4 4 4h87q4 0 4 -4v-13q0 -3 -4 -3h-68v-37zM1574 513q-4 0 -4 4l-2 111l-35 -112q-1 -3 -5 -3h-15q-3 0 -4 3l-37 115l-2 -114q0 -4 -3 -4h-16q-4 0 -4 4l5 134q0 4 4 4h25q4 0 5 -3
l35 -108l35 108q1 3 4 3h25q4 0 4 -4l5 -134q0 -4 -4 -4h-16zM1657 517q0 -4 -4 -4h-17q-4 0 -4 4l1 134q0 4 4 4h15q4 0 4 -4zM622 351q5 0 5 -5q-1 -30 -19 -49q-20 -21 -50 -21t-48 21q-19 21 -19 54q0 32 20 53q19 21 49 21q45 0 60 -40q2 -4 -3 -4l-14 -1q-3 0 -5 3
q-15 22 -40 22q-44 0 -44 -53q0 -55 47 -55q33 0 41 33h-32q-4 0 -4 4v13q0 4 4 4h52zM714 297q45 0 45 54t-46 54q-45 0 -45 -53q0 -55 46 -55zM762 298q-20 -22 -49 -22q-30 0 -49 21t-19 54q0 32 20 53t50 21q29 0 48 -20t19 -52q0 -33 -20 -55zM858 300q48 0 48 50
q0 52 -48 52h-30l1 -102h29zM859 422q70 0 70 -69q0 -73 -70 -73h-51q-3 0 -3 3v135q0 4 4 4h50zM975 364h60q4 0 4 -4v-13q0 -4 -4 -4h-59v-43h67q4 0 4 -3v-14q0 -3 -4 -3h-88q-4 0 -4 3l1 135q0 4 4 4h87q4 0 4 -4v-13q0 -4 -4 -4h-68v-37zM1093 367h59q4 0 4 -4v-13
q0 -4 -4 -4h-59l1 -63q0 -3 -4 -3h-17q-4 0 -4 3l1 135q0 4 4 4h87q4 0 4 -4v-13q0 -4 -4 -4h-68v-34zM1245 359q28 0 28 20q0 23 -28 23h-34v-43h34zM1211 339v-56q0 -3 -4 -3h-16q-4 0 -4 3v135q0 4 4 4h57q48 0 48 -41q0 -34 -36 -41l39 -56q4 -4 -2 -4h-20q-4 0 -5 2
l-38 57h-23zM1384 297q45 0 45 54t-47 54q-45 0 -45 -53q0 -55 47 -55zM1432 298q-20 -22 -50 -22q-29 0 -49 21q-19 21 -19 54q0 32 20 53t50 21t49 -20t19 -52q0 -33 -20 -55zM1510 283q0 -3 -4 -3h-16q-4 0 -4 3v135q0 4 4 4h15q4 0 4 -4zM1602 300q48 0 48 50
q0 52 -48 52h-29v-102h29zM1603 422q70 0 70 -69q0 -73 -70 -73h-50q-4 0 -4 3l1 135q0 4 3 4h50zM733 1374q59 -61 103 -126l8 -13q-9 -31 -14 -56q-12 -51 -18 -102h-79v297zM1177 1077h-183v-90h97l1 -16q0 -105 -28 -216q-21 -83 -57 -165l-6 -13q-8 41 -18 76
q-29 114 -71 197l-4 7l-4 8q-8 54 -8 106l1 16q1 45 7 90l4 30q7 39 16 76q8 30 19 65q17 52 38 100q12 28 25 53q9 18 17 35h-102q-21 -43 -39 -88l-2 -6q-37 49 -80 94h-158v-933h91v440q47 -44 83 -107l15 -27q35 -70 62 -169q10 -37 18 -77q7 -30 12 -60h143
q21 41 39 87q34 84 53 170q25 108 25 211q0 32 -3 65zM221 1301q28 0 28 23t-31 23h-41l1 -46h43zM177 1370h41q23 0 23 21q0 22 -27 22h-37v-43zM261 1292q-15 -13 -38 -13h-68q-5 0 -5 4l1 149q0 4 5 4h61q49 0 49 -43q0 -19 -12 -31q21 -12 21 -36q0 -20 -14 -34z
M431 1346q0 -71 -66 -71t-66 71v86q0 4 5 4h16q5 0 5 -4v-83q1 -51 41 -51q39 0 39 51v83q0 4 5 4h16q5 0 5 -4v-86zM525 1283q0 -4 -4 -4h-18q-5 0 -5 4l1 59l-48 89q-3 5 3 5h18q4 0 6 -3l33 -64h2l34 64q2 3 5 3h17q6 0 3 -5l-47 -89v-59zM71 1117h66q4 0 4 -4v-14
q0 -5 -4 -5h-66v-69q0 -4 -4 -4h-18q-5 0 -5 4l1 149q0 4 4 4h97q4 0 4 -4v-14q0 -5 -4 -5h-75v-38zM306 1089q1 -71 -66 -71q-66 0 -66 71l1 85q0 4 4 4h17q4 0 4 -4v-82q1 -52 41 -52q39 0 39 52l1 82q0 4 4 4h17q4 0 4 -4v-85zM440 1044q4 0 4 -4v-15q0 -4 -4 -4h-100
q-4 0 -4 4l1 149q0 4 4 4h17q4 0 4 -4l1 -130h77zM568 1044q4 0 4 -4v-15q0 -4 -4 -4h-100q-4 0 -4 4l1 149q0 4 4 4h17q4 0 4 -4l1 -130h77zM27 860h65q5 0 5 -5v-14q0 -4 -5 -4h-65v-69q0 -4 -4 -4h-19q-4 0 -4 4l1 148q0 5 4 5h97q4 0 4 -5v-14q0 -4 -4 -4h-76zM202 783
q50 0 50 59q0 60 -52 60q-50 0 -50 -58q0 -61 52 -61zM255 784q-22 -24 -55 -24t-54 23t-21 59t22 59t55 23t54 -22t21 -57q0 -37 -22 -61zM432 768q0 -4 -4 -4h-25q-3 0 -5 3l-71 123l1 -122q0 -4 -4 -4h-18q-5 0 -5 4l1 148q0 5 4 5h26q3 0 5 -3l68 -119l1 117q0 5 4 5h17
q4 0 4 -5zM574 902q0 -4 -4 -4h-45l1 -130q0 -4 -5 -4h-18q-4 0 -4 4v130h-44q-5 0 -5 4v14q0 5 5 5h115q4 0 4 -5v-14zM332 525q50 0 50 60q0 59 -51 59q-50 0 -50 -58q0 -61 51 -61zM386 527q-22 -24 -55 -24t-54 22q-22 24 -22 60q0 35 23 59q22 23 55 23q32 0 53 -22
q22 -23 22 -58q0 -36 -22 -60zM563 510q0 -4 -5 -4h-24q-4 0 -5 3l-71 124l1 -123q0 -4 -5 -4h-18q-4 0 -4 4l1 149q0 4 4 4h26q3 0 5 -3l68 -119l1 118q0 4 4 4h16q5 0 5 -4zM738 196q6 0 4 -6l-49 -181q-1 -5 -6 -5h-27q-4 0 -5 5l-37 142h-3l-36 -142q-2 -5 -6 -5h-26
q-5 0 -6 5l-50 181q-2 6 4 6h22q4 0 6 -4l36 -136h2l36 136q2 4 6 4h27q4 0 6 -4l35 -136h3l36 136q2 4 6 4h22zM798 118h80q6 0 6 -5v-18q0 -5 -6 -5h-80l1 -58h90q6 0 6 -5v-18q0 -5 -6 -5h-118q-6 0 -6 5l2 182q0 5 5 5h117q6 0 6 -5v-18q0 -5 -6 -5h-91v-50zM1011 31
q34 0 34 28q0 29 -39 29h-49v-57h54zM957 116h50q28 0 28 26q0 27 -34 27h-44v-53zM1059 21q-18 -17 -46 -17h-83q-6 0 -6 5l1 182q0 5 6 5h74q27 0 44 -15q17 -14 17 -37t-16 -39q26 -14 26 -43q0 -25 -17 -41zM1244 146h-19q-4 0 -6 4q-14 23 -44 23q-35 0 -35 -23
q0 -19 44 -32l8 -3q61 -18 61 -60q0 -55 -72 -55q-34 0 -57 18q-18 14 -24 35q-1 6 5 6h21q4 0 6 -4q14 -27 51 -27q38 0 38 23q0 21 -45 36l-9 3q-58 19 -59 55q-1 25 20 41q19 14 49 14q55 0 72 -48q2 -6 -5 -6zM1332 9q0 -5 -5 -5h-22q-6 0 -6 5l1 182q0 5 5 5h21
q5 0 5 -5zM1522 173q0 -5 -5 -5h-55l1 -159q0 -5 -5 -5h-23q-5 0 -5 5l1 159h-55q-5 0 -5 5v18q0 5 5 5h141q5 0 5 -5v-18zM1577 118h80q5 0 5 -5v-18q0 -5 -5 -5h-80v-58h91q5 0 5 -5v-18q0 -5 -5 -5h-119q-5 0 -5 5l1 182q0 5 5 5h118q5 0 5 -5v-18q0 -5 -5 -5h-92z" />
    <glyph glyph-name="sigma" unicode="&#x3c3;" horiz-adv-x="4132" 
d="M0 874v-874h3375v541h666v333h-4041zM333 541h2709v-208h-2709v208z" />
    <glyph glyph-name="tau" unicode="&#x3c4;" horiz-adv-x="3300" 
d="M0 876v-332h1438v-544h333v544h1438v332h-3209z" />
    </font>
</defs>
</svg>
