<?xml version="1.0" encoding="UTF-8" standalone="no"?>
<!DOCTYPE svg PUBLIC "-//W3C//DTD SVG 1.1//EN" "http://www.w3.org/Graphics/SVG/1.1/DTD/svg11.dtd">
<svg width="100%" height="100%" viewBox="0 0 46 46" version="1.1" xmlns="http://www.w3.org/2000/svg" xmlns:xlink="http://www.w3.org/1999/xlink" xml:space="preserve" xmlns:serif="http://www.serif.com/" style="fill-rule:evenodd;clip-rule:evenodd;stroke-linejoin:round;stroke-miterlimit:2;">
    <g transform="matrix(1,0,0,1,-1205.06,-1657.81)">
        <g transform="matrix(1,0,0,3,0,0)">
            <g transform="matrix(0.205751,0,0,0.0685838,1207.47,560.25)">
                <path d="M0,-0.258C0.09,55.56 45.459,99.463 99.566,99.545C154.131,99.627 199.15,55.177 199.393,0.337C199.637,-54.981 154.385,-99.707 99.856,-99.781C45.845,-99.854 0.245,-56.102 0,-0.258M99.668,111.322C38.067,111.106 -11.658,61.456 -11.745,-0.158C-11.831,-61.551 38.429,-111.602 99.755,-111.502C161.332,-111.402 211.142,-61.557 211.107,-0.072C211.073,61.387 161.096,111.344 99.668,111.322" style="fill:rgb(0,179,175);fill-rule:nonzero;"/>
            </g>
        </g>
        <g transform="matrix(1,0,0,3,0,0)">
            <g transform="matrix(0.205751,0,0,0.0685838,1227.87,561.904)">
                <path d="M0,54.381C-31.673,52.629 -55.499,38.131 -69.985,9.072C-70.439,8.162 -70.874,7.203 -71.081,6.217C-71.538,4.029 -70.532,2.119 -68.56,1.102C-66.608,0.095 -64.515,0.453 -62.996,2.167C-62.322,2.927 -61.785,3.818 -61.239,4.683C-51.553,20.032 -37.733,29.869 -20.515,35.125C10.414,44.566 43.75,32.119 61.726,5.625C62.417,4.606 63.069,3.555 63.832,2.592C65.497,0.492 67.643,0 69.805,1.142C72.072,2.34 73.145,4.697 72.03,7.122C70.32,10.838 68.552,14.581 66.326,17.999C53.339,37.941 34.961,49.677 11.48,53.378C7.844,53.95 4.131,54.033 0,54.381" style="fill:rgb(0,179,175);fill-rule:nonzero;"/>
            </g>
        </g>
        <g transform="matrix(1,0,0,3,0,0)">
            <g transform="matrix(0.205751,0,0,0.0685838,1238.27,557.742)">
                <path d="M0,-2.212C-0.001,3.743 -1.373,8.165 -4.598,11.896C-10.037,18.188 -18.65,18.25 -24.238,12.083C-30.753,4.894 -30.65,-7.609 -24.017,-14.684C-18.779,-20.271 -10.853,-20.462 -5.429,-15.075C-1.575,-11.248 -0.037,-6.477 0,-2.212" style="fill:rgb(0,179,175);fill-rule:nonzero;"/>
            </g>
        </g>
        <g transform="matrix(1,0,0,3,0,0)">
            <g transform="matrix(0.205751,0,0,0.0685838,1223.61,557.653)">
                <path d="M0,0.175C-0.239,5.662 -1.768,10.543 -5.827,14.358C-10.93,19.154 -18.184,19.162 -23.312,14.413C-30.974,7.318 -31.109,-6.612 -23.588,-13.871C-18.321,-18.954 -10.927,-18.987 -5.663,-13.915C-1.653,-10.05 -0.189,-5.148 0,0.175" style="fill:rgb(0,179,175);fill-rule:nonzero;"/>
            </g>
        </g>
    </g>
</svg>
