<?xml version="1.0" encoding="UTF-8" standalone="no"?>
<!DOCTYPE svg PUBLIC "-//W3C//DTD SVG 1.1//EN" "http://www.w3.org/Graphics/SVG/1.1/DTD/svg11.dtd">
<svg width="100%" height="100%" viewBox="0 0 241 165" version="1.1" xmlns="http://www.w3.org/2000/svg" xmlns:xlink="http://www.w3.org/1999/xlink" xml:space="preserve" xmlns:serif="http://www.serif.com/" style="fill-rule:evenodd;clip-rule:evenodd;stroke-linejoin:round;stroke-miterlimit:2;">
    <g transform="matrix(1,0,0,1,-1708,-531.449)">
        <g transform="matrix(0.390043,0,0,0.390043,1621.2,326.573)">
            <g transform="matrix(2.56382,0,0,2.56382,-4156.45,-837.275)">
                <path d="M1828.19,673.871C1834.35,673.871 1839.36,678.879 1839.36,685.046C1839.36,691.214 1834.35,696.222 1828.19,696.222C1822.02,696.222 1817.01,691.214 1817.01,685.046C1817.01,678.879 1822.02,673.871 1828.19,673.871ZM1828.24,627.765C1808.1,627.765 1789.16,635.616 1774.9,649.872C1769.65,655.128 1769.65,663.648 1774.9,668.903C1780.16,674.158 1788.68,674.158 1793.93,668.903C1812.85,649.986 1843.63,649.986 1862.55,668.903C1865.18,671.53 1868.62,672.844 1872.06,672.844C1875.51,672.844 1878.95,671.53 1881.58,668.903C1886.83,663.648 1886.83,655.128 1881.58,649.872C1867.32,635.616 1848.38,627.765 1828.24,627.765ZM1828.24,579.099L1828.24,579.099L1828.24,579.099L1828.24,579.099C1795.29,579.099 1764.29,591.947 1740.96,615.276C1735.71,620.531 1735.71,629.051 1740.96,634.306C1746.22,639.561 1754.74,639.561 1760,634.306C1797.62,596.675 1858.86,596.675 1896.48,634.306C1899.11,636.933 1902.55,638.247 1906,638.247C1909.44,638.247 1912.88,636.933 1915.51,634.306C1920.77,629.051 1920.77,620.531 1915.51,615.276C1892.18,591.947 1861.19,579.099 1828.24,579.099ZM1944.58,579.665C1928.87,563.955 1910.55,551.789 1890.14,543.506C1870.43,535.505 1849.61,531.449 1828.26,531.449C1806.9,531.449 1786.09,535.505 1766.37,543.506C1745.96,551.789 1727.65,563.955 1711.94,579.665C1706.69,584.92 1706.69,593.44 1711.94,598.695C1717.2,603.951 1725.72,603.95 1730.97,598.695C1784.61,545.053 1871.9,545.053 1925.54,598.695C1928.17,601.323 1931.61,602.636 1935.06,602.636C1938.5,602.636 1941.94,601.323 1944.57,598.695C1949.83,593.44 1949.83,584.92 1944.57,579.665L1944.58,579.665Z" style="fill:rgb(0,179,175);fill-rule:nonzero;"/>
            </g>
        </g>
    </g>
</svg>
